<mxfile host="app.diagrams.net" modified="2021-11-17T12:53:19.183Z" agent="5.0 (Macintosh; Intel Mac OS X 10_15_7) AppleWebKit/605.1.15 (KHTML, like Gecko) Version/15.1 Safari/605.1.15" etag="FqaqRg7ihAexKRxcpFEy" version="15.7.4" type="github">
  <diagram id="hHVHGPB__OEgV-n0ZHnZ" name="Page-1">
    <mxGraphModel dx="1102" dy="1878" grid="1" gridSize="10" guides="1" tooltips="1" connect="1" arrows="1" fold="1" page="1" pageScale="1" pageWidth="827" pageHeight="1169" math="0" shadow="0">
      <root>
        <mxCell id="0" />
        <mxCell id="1" parent="0" />
        <mxCell id="675HwpJTXZrzleELEa9g-38" value="" style="rounded=0;whiteSpace=wrap;html=1;fillColor=#cdeb8b;strokeColor=#36393d;" parent="1" vertex="1">
          <mxGeometry x="679.06" y="-192.72000000000003" width="310" height="340" as="geometry" />
        </mxCell>
        <mxCell id="675HwpJTXZrzleELEa9g-4" value="" style="rounded=1;whiteSpace=wrap;html=1;shadow=1;sketch=1;gradientColor=none;strokeColor=#660066;glass=0;" parent="1" vertex="1">
          <mxGeometry x="510" y="-288.61" width="360" height="52" as="geometry" />
        </mxCell>
        <mxCell id="675HwpJTXZrzleELEa9g-5" value="" style="group" parent="1" vertex="1" connectable="0">
          <mxGeometry x="193.06" y="-206.61" width="622.94" height="410" as="geometry" />
        </mxCell>
        <mxCell id="675HwpJTXZrzleELEa9g-6" value="" style="rounded=0;whiteSpace=wrap;html=1;" parent="675HwpJTXZrzleELEa9g-5" vertex="1">
          <mxGeometry y="-10" width="120" height="420" as="geometry" />
        </mxCell>
        <mxCell id="675HwpJTXZrzleELEa9g-12" value="" style="shape=image;verticalLabelPosition=bottom;labelBackgroundColor=#ffffff;verticalAlign=top;aspect=fixed;imageAspect=0;image=data:image/png,iVBORw0KGgoAAAANSUhEUgAAAK4AAABsCAYAAADzLIlRAAAMaWlDQ1BJQ0MgUHJvZmlsZQAASImVVwdYU8kWnluSkJDQAqFICb0J0quUEFoAAamCjZAEEkqMCUHFXhYVXLuIYEVXRRRdCyCLitjLotj7YkFFWRcLiqLyJiSg677yvfN9c+e/Z878p9yZe+8AoNnLlUjyUC0A8sUF0oSIEOaYtHQmqQMgQBtQgT6gcXkyCSs+PgZAGez/Lu9vQGsoV50UXP8c/6+iwxfIeAAg4yDO5Mt4+RA3A4Cv50mkBQAQFXrLKQUSBZ4Dsa4UBgjxagXOVuKdCpypxE0DNkkJbIgvA6BG5XKl2QBo3IN6ZiEvG/JofIbYRcwXiQHQHA5xIE/I5UOsiH14fv4kBS6H2A7aSyCG8QCfzO84s//GnznEz+VmD2FlXgOiFiqSSfK40/7P0vxvyc+TD/qwgY0qlEYmKPKHNbyVOylagakQd4kzY+MUtYa4V8RX1h0AlCKURyYr7VFjnowN6wcYELvwuaHREBtDHC7Oi41R6TOzROEciOFqQaeKCjhJEBtAvEggC0tU2WyWTkpQ+ULrsqRslkp/lisd8Kvw9UCem8xS8b8RCjgqfkyjSJiUCjEFYqtCUUosxBoQO8tyE6NVNiOLhOzYQRupPEERvxXECQJxRIiSHyvMkoYnqOxL8mWD+WKbhSJOrArvLxAmRSrrg53kcQfih7lglwViVvIgj0A2JmYwF74gNEyZO/ZcIE5OVPH0SgpCEpRzcYokL15lj1sI8iIUeguIPWSFiaq5eEoBXJxKfjxLUhCfpIwTL8rhRsUr48GXgxjABqGACeSwZYJJIAeIWrvqu+CdciQccIEUZAMBcFJpBmekDoyI4TURFIE/IRIA2dC8kIFRASiE+i9DWuXVCWQNjBYOzMgFTyHOB9EgD97LB2aJh7ylgCdQI/qHdy5sPBhvHmyK8X+vH9R+07CgJkalkQ96ZGoOWhLDiKHESGI40R43wgNxfzwGXoNhc8N9cN/BPL7ZE54S2giPCNcJ7YTbE0XzpD9EOQq0Q/5wVS0yv68FbgM5PfEQPACyQ2acgRsBJ9wD+mHhQdCzJ9SyVXErqsL8gftvGXz3NFR2ZBcyStYnB5Ptfpyp4aDhOcSiqPX39VHGmjlUb/bQyI/+2d9Vnw/76B8tsUXYAewMdhw7hzVh9YCJHcMasIvYEQUeWl1PBlbXoLeEgXhyIY/oH/64Kp+KSspcalw6XT4rxwoEUwsUG489STJNKsoWFjBZ8OsgYHLEPOfhTDcXN1cAFN8a5evrLWPgG4Iwzn/TzYd7PEDc39/f9E0X/QmAg+Zw+7d/09lega8J+J4+u4InlxYqdbjiQoBvCU240wyBKbAEdjAfN+AF/EEwCANRIA4kgTQwAVZZCNe5FEwBM8BcUAxKwXKwBlSATWAr2An2gP2gHjSB4+A0uAAug+vgLlw9HeAl6AbvQR+CICSEhtARQ8QMsUYcETfEBwlEwpAYJAFJQzKQbESMyJEZyHykFFmJVCBbkGrkV+Qwchw5h7Qht5GHSCfyBvmEYigV1UVNUBt0BOqDstBoNAkdj2ajk9EidAG6FC1Hq9DdaB16HL2AXkfb0ZdoDwYwdYyBmWNOmA/GxuKwdCwLk2KzsBKsDKvCarFG+JyvYu1YF/YRJ+J0nIk7wRUciSfjPHwyPgtfglfgO/E6/CR+FX+Id+NfCTSCMcGR4EfgEMYQsglTCMWEMsJ2wiHCKbiXOgjviUQig2hL9IZ7MY2YQ5xOXELcQNxLbCa2ER8Te0gkkiHJkRRAiiNxSQWkYtI60m7SMdIVUgepV01dzUzNTS1cLV1NrDZPrUxtl9pRtStqz9T6yFpka7IfOY7MJ08jLyNvIzeSL5E7yH0UbYotJYCSRMmhzKWUU2oppyj3KG/V1dUt1H3VR6uL1Oeol6vvUz+r/lD9I1WH6kBlU8dR5dSl1B3UZupt6lsajWZDC6al0wpoS2nVtBO0B7ReDbqGswZHg68xW6NSo07jisYrTbKmtSZLc4JmkWaZ5gHNS5pdWmQtGy22Fldrllal1mGtm1o92nRtV+047XztJdq7tM9pP9ch6djohOnwdRbobNU5ofOYjtEt6Ww6jz6fvo1+it6hS9S11eXo5uiW6u7RbdXt1tPR89BL0ZuqV6l3RK+dgTFsGBxGHmMZYz/jBuOTvok+S1+gv1i/Vv+K/geDYQbBBgKDEoO9BtcNPhkyDcMMcw1XGNYb3jfCjRyMRhtNMdpodMqoa5juMP9hvGElw/YPu2OMGjsYJxhPN95qfNG4x8TUJMJEYrLO5IRJlynDNNg0x3S16VHTTjO6WaCZyGy12TGzF0w9JouZxyxnnmR2mxubR5rLzbeYt5r3WdhaJFvMs9hrcd+SYuljmWW52rLFstvKzGqU1QyrGqs71mRrH2uh9VrrM9YfbGxtUm0W2tTbPLc1sOXYFtnW2N6zo9kF2U22q7K7Zk+097HPtd9gf9kBdfB0EDpUOlxyRB29HEWOGxzbhhOG+w4XD68aftOJ6sRyKnSqcXrozHCOcZ7nXO/8aoTViPQRK0acGfHVxdMlz2Wby11XHdco13muja5v3BzceG6Vbtfcae7h7rPdG9xfezh6CDw2etzypHuO8lzo2eL5xcvbS+pV69XpbeWd4b3e+6aPrk+8zxKfs74E3xDf2b5Nvh/9vPwK/Pb7/eXv5J/rv8v/+UjbkYKR20Y+DrAI4AZsCWgPZAZmBG4ObA8yD+IGVQU9CrYM5gdvD37GsmflsHazXoW4hEhDDoV8YPuxZ7KbQ7HQiNCS0NYwnbDksIqwB+EW4dnhNeHdEZ4R0yOaIwmR0ZErIm9yTDg8TjWnO8o7ambUyWhqdGJ0RfSjGIcYaUzjKHRU1KhVo+7FWseKY+vjQBwnblXc/Xjb+Mnxv40mjo4fXTn6aYJrwoyEM4n0xImJuxLfJ4UkLUu6m2yXLE9uSdFMGZdSnfIhNTR1ZWr7mBFjZo65kGaUJkprSCelp6RvT+8ZGzZ2zdiOcZ7jisfdGG87fur4cxOMJuRNODJRcyJ34oEMQkZqxq6Mz9w4bhW3J5OTuT6zm8fmreW95AfzV/M7BQGClYJnWQFZK7OeZwdkr8ruFAYJy4RdIraoQvQ6JzJnU86H3LjcHbn9eal5e/PV8jPyD4t1xLnik5NMJ02d1CZxlBRL2if7TV4zuVsaLd0uQ2TjZQ0FuvCn/qLcTv6T/GFhYGFlYe+UlCkHpmpPFU+9OM1h2uJpz4rCi36Zjk/nTW+ZYT5j7oyHM1kzt8xCZmXOapltOXvB7I45EXN2zqXMzZ37+zyXeSvnvZufOr9xgcmCOQse/xTxU02xRrG0+OZC/4WbFuGLRItaF7svXrf4awm/5HypS2lZ6eclvCXnf3b9ufzn/qVZS1uXeS3buJy4XLz8xoqgFTtXaq8sWvl41ahVdauZq0tWv1szcc25Mo+yTWspa+Vr28tjyhvWWa1bvu5zhbDiemVI5d71xusXr/+wgb/hysbgjbWbTDaVbvq0WbT51paILXVVNlVlW4lbC7c+3Zay7cwvPr9UbzfaXrr9yw7xjvadCTtPVntXV+8y3rWsBq2R13TuHrf78p7QPQ21TrVb9jL2lu4D++T7Xvya8euN/dH7Ww74HKg9aH1w/SH6oZI6pG5aXXe9sL69Ia2h7XDU4ZZG/8ZDvzn/tqPJvKnyiN6RZUcpRxcc7T9WdKynWdLcdTz7+OOWiS13T4w5ce3k6JOtp6JPnT0dfvrEGdaZY2cDzjad8zt3+LzP+foLXhfqLnpePPS75++HWr1a6y55X2q47Hu5sW1k29ErQVeOXw29evoa59qF67HX224k37h1c9zN9lv8W89v591+fafwTt/dOfcI90rua90ve2D8oOoP+z/2tnu1H3kY+vDio8RHdx/zHr98InvyuWPBU9rTsmdmz6qfuz1v6gzvvPxi7IuOl5KXfV3Ff2r/uf6V3auDfwX/dbF7THfHa+nr/jdL3hq+3fHO411LT3zPg/f57/s+lPQa9u786PPxzKfUT8/6pnwmfS7/Yv+l8Wv013v9+f39Eq6UO/ArgMGGZmUB8GYHALQ0AOjw3EYZqzwLDgiiPL8OIPCfsPK8OCBeANTCTvEbz24GYB9sNnMgN2yKX/ikYIC6uw81lciy3N2UXFR4EiL09ve/NQGA1AjAF2l/f9+G/v4v22CwtwFonqw8gyqECM8Mm4MV6LrBWBz8IMrz6Xc5/tgDRQQe4Mf+X55bjwFeCncVAAAAlmVYSWZNTQAqAAAACAAFARIAAwAAAAEAAQAAARoABQAAAAEAAABKARsABQAAAAEAAABSASgAAwAAAAEAAgAAh2kABAAAAAEAAABaAAAAAAAAAJAAAAABAAAAkAAAAAEAA5KGAAcAAAASAAAAhKACAAQAAAABAAAArqADAAQAAAABAAAAbAAAAABBU0NJSQAAAFNjcmVlbnNob3TntIyUAAAACXBIWXMAABYlAAAWJQFJUiTwAAAC22lUWHRYTUw6Y29tLmFkb2JlLnhtcAAAAAAAPHg6eG1wbWV0YSB4bWxuczp4PSJhZG9iZTpuczptZXRhLyIgeDp4bXB0az0iWE1QIENvcmUgNi4wLjAiPgogICA8cmRmOlJERiB4bWxuczpyZGY9Imh0dHA6Ly93d3cudzMub3JnLzE5OTkvMDIvMjItcmRmLXN5bnRheC1ucyMiPgogICAgICA8cmRmOkRlc2NyaXB0aW9uIHJkZjphYm91dD0iIgogICAgICAgICAgICB4bWxuczpleGlmPSJodHRwOi8vbnMuYWRvYmUuY29tL2V4aWYvMS4wLyIKICAgICAgICAgICAgeG1sbnM6dGlmZj0iaHR0cDovL25zLmFkb2JlLmNvbS90aWZmLzEuMC8iPgogICAgICAgICA8ZXhpZjpVc2VyQ29tbWVudD5TY3JlZW5zaG90PC9leGlmOlVzZXJDb21tZW50PgogICAgICAgICA8ZXhpZjpQaXhlbFhEaW1lbnNpb24+MTc0PC9leGlmOlBpeGVsWERpbWVuc2lvbj4KICAgICAgICAgPGV4aWY6UGl4ZWxZRGltZW5zaW9uPjEwODwvZXhpZjpQaXhlbFlEaW1lbnNpb24+CiAgICAgICAgIDx0aWZmOlJlc29sdXRpb25Vbml0PjI8L3RpZmY6UmVzb2x1dGlvblVuaXQ+CiAgICAgICAgIDx0aWZmOlhSZXNvbHV0aW9uPjE0NC8xPC90aWZmOlhSZXNvbHV0aW9uPgogICAgICAgICA8dGlmZjpZUmVzb2x1dGlvbj4xNDQvMTwvdGlmZjpZUmVzb2x1dGlvbj4KICAgICAgICAgPHRpZmY6T3JpZW50YXRpb24+MTwvdGlmZjpPcmllbnRhdGlvbj4KICAgICAgPC9yZGY6RGVzY3JpcHRpb24+CiAgIDwvcmRmOlJERj4KPC94OnhtcG1ldGE+CvEWK4gAACxmSURBVHgB7Z0HnF1V9e/XzGRqJjOTySSZVCY9hADSQQhEkGoDBBGlPJ8V9Y9/1Kcfe/d9LDysiA0UVEABAVFBBGmGXkIJLY2USZ+0KZmSuW9915012XO4d3Lv5E7zfxac2fvssvbaa//22vXc5CWUJKZYA8NMA/nDTN5Y3FgDpoEYuDEQhqUGYuAOy2aLhY6BG2NgWGogBu6wbLZY6Bi4MQaGpQZi4A7LZouFjoEbY2BYaiAG7rBstljoGLgxBoalBkYMS6mzENrOsyOn2smwkEny1Pv14WGa1P5kztRxHprnnmxczdQz3563vD3eLo558vqwbAobfmmHFXA7OjqlqWWXbN/ZIu3tHbKrtV39zbJrV5u0d+yW7TtapLmlVXZ3dkpj0y5p0fC2tg4Nb5aE/rdpy05t4DxLu3V7o/nJu1PTQrityjOkJg1ramkLg7r98GptbJZOlSUtaacpq66UzkjnCdMXFY6Q0VVlEiYZMSJfRleWa5hKrr2jenS5jCjIl87OhIyvqZSiohFSNapUayUysqxYykqLpbCwQMNGSgXhmmlUeamMGFEg5SNLhIQ11aOkWPNVVoyUkuJCS58/TBGfN1Qu2TS3tMt9D78gjc27DEAvL6uXrduaZMWqjbJ2Q4Ps3t1pjbFbwdumIO1UcNKIAJg4gNHWruG7dycx0dXg1mJuFkGAkjld/jA+5X0j0nn+JOeef7v59Azu8bY3cGBBU6ShY3RT4M/L7wr3MHvdY3XzRyTtUZGCFh6F2gmoQrGCNV/z0lEK8vMFPpUK7irtIHVTxhrgAfmc6RNk3qxJUqrp58yc1C3CUPL0G3ABFRYMMOxsTFrIlWs2C4B84dW1giVb/MJKWfz00iSSVMF5quAkqZ/GoWEIVye/oMCUPkJdLAsNkK/Kt0YoUH9esiGwKDRWZXmZjNJGKCkplLE1FTrs5snkidUG8GJtuNqxVQbg8pHF2nAjzT9m9CizXt0NpK1dVQmf0u6g0IMVr9CG3xsxQvRm2Xa1tcvGzTusns6rXTvhuo0NVhfqs27DVmHEod6vrd1sI8vmhuQIskNHlB068rTq6LJx605Nl+y8uAk6d1dnbmvVTq4dHt64uzWus6NjT0fu6oQJjSMflFAeVeOqpaKiVObPnSJTJ9XIXAU2gJ49rdbaoqioUEpLiqwt0P9AUM6AW6+KfWX5Oln0xMuyur7BhuflqzbosNwpy1aul50NO7Q+AFEdVQwmAFDTKHlqGYrKSqR2fJVMnVhjYJsyYYwNdbXjKqXGAFVilqNMh8UKHQ6LFLwMd5WjyrqGPR36FPgMm//TCaNBxzeDwfSqqcX0vlmnSoB7+84mnV612wi1acsOHeVatGNsly0KejrG6votsqp+s02z6tdukc7WtqQhAcu0nxoM0J6nboW2TbVOQSaMrZSqijLZb8o4mTd7svlPXnCgjB1T0S/N0Wfgrl2/Ve6452m5f9ELcsudj9nQAxAZsvX/JHV5CKcH01vH6fzsxAUHmBU78pCZCtQxMmO/8TbskwkgJ11zut+Tb/Hf/tIAbeSEl9GE/2mPNes2y3MvrZGNW7bLitc2yv2PLLERAoOkCexJtppywBB1taH2ARk3plIt9WQ5/cRD5K0nHSr7Ta7xYvbJzRi4DPsPPvqiLNFh/sbbH5anHnsp2fOQVRcNo7Vn1eiQXKUWsHZclUyfPFYOmDdVqnUYPvbwOf3W8/ap9nHmfdJAm64vGptadR2ywXBRr2uR+x9+0RbFWPI16xqkcUeTjrDaDVij6EhbM2msnH36EfLOM46U/dUyT66t7pMMGQH3ulsekq/9vz/JaoYNFRYhcOfOnyYXv+sEOW3hwTJSV7Xl5SW2us1k3tcnaeNMQ14DWG52e5imbNveJGvWN8g/HnhWnnl+pdytIzRTmDxdPBboOmPa1LHysYtPlY//r1NslO4y1BnVca/A/cJ3bpDv/uQ2KdBJd5lOwA8/cLqcpb3lkotOzqiAOFGsAdcAW5Q33L5Irvjl32STLkZ36Ny7Q7cjzz3zOLn+p//lyTJyewXuUp3DHHrq53T7qUO+eOlZctZpR8gBc6ZkxDhOFGugNw2Arb+qBf76FTfrDkmb3Hr1p+TUEw7uLUuPON9/6hHoL03NrdKscxQm6/W6GItB65qJ3X3VwMy6WmlWfLXo7sZuNYzMibOhjDfdfvHbu+RX198r7ztvoZzzlqNkiu4QzNLCC3RhFlOsgUw0wHx3le7lsyvxzR/8WVqbmqWgVE/1+kAZAZdJ85G6M/DoIy/K1b+/R6658T6p0V2E+bOnyATdQVhwzP5y8nEH5myrow/1iLMMQQ1s2Lxdnli8TE9El8ijTy2V9frOQUqLLtwYxseMr7Yj9ubmrtPOLOqQEXA59Vl0+zfk7geflf/741tVmBV6UtMiD+iWGFsc19/6kJ7A7JbxKginUCced4CcceKhMql2tMyoG2+nRpxyFeiKEpdN7piGrwbYq+eQo/vYXduenYS77ntGsbHcwProk69qBdkITp5oclhRqKNzgZ58HnHYbDn/zGPl0v99msw54TJZsTJ5VyQbjWQEXGd48oKDhIee9Jge1b6yYp1uc7ymR5Nb5fmXV8t6PYpcv2aTvPT8Crnyqju0UyWkUPd1JyqAJ4wbLRP1ZGxi7Rhzx+ppC0esbKFxaYQj2BG6TTJaj1hjGhoa4ICBk7ZWPZJeunKDbNIj5ia9S8IpKWuejYoDjp2XPLt8z3aWAtRIDVqVtjlbXvvPmiKzp4+3E7U3Hj7bsOA1ZP3UF8oKuF4AQHvbyYfZa4fu6XLRhQqyUuTW1X2Llsid/1os6zZtkw0K5tV62rJm9SY9sOg6VVELzt2DZA/MtxtM3GJiSsLlD07TykqLdDpSadMP7hPM192MmXUT7LweZXC8GFP2GmjQi0u79e7Csy+usvsO3HtgYfTysnXSqPcduEdidxgSeplJ7zZgfLCwtC838OyETUGZdDkl1aNfbbt8PYI/UY94K/SOCOA87+1H6020IruNVqLbqNxsyyX1CbihAAg0oqDILlkcftB0i8Iqf+uz7zY/pyuvLl+v9xjqzUK/smy9vKqWmpM4riAy5DTrXl6LrjBREGEb9ASGUQZiKmKnj5pOtdQVyBFyp5QrsJl6jK4aKdxhmDyhWuhI++nCkUMQ7i1M1ZMaymB6Mqm2ShstefTMMMddh+4Or57k5R1XcMJuUyULTP2XKVShbqRnQkyOuEzTGyWvVCanUfwFKFyGwd/KwY/KSJlr1m0xNlzM4UYcdw/YI8UycnUTMK1Vq7hh4zbT6XY9CKh/bYPl8eNYjIiO48k7CObtMipdxiVPDQvGgUtNGJMJ40fbbTHqy6J81oxama73EqbqCemhehCFoRlIykzr+yARt7cOmDPZnpANANuqCu3QrRDuy5pfw/Cv1qPCtq7hCWvOvdplqvh6XZWyi1G/fpu0NGyXRru4I7Jj8zZlnScvPbciWQSmm8bgj7ke3PWCoyAYoRd7ujuDBtkdVbUeEI1fruA3y2Ihr/+DLNyKUlZ7JYpkmPW+F80AoABfIK7NGwEvce27WvfI6gVquHVsmFmY/vE4LWhPWYRr5y0ukhK96TZCb9NN0/sh1JfFNesSOnupgo97I4CVW16AtVD1QYeeoOuX8iF0ganfgRttIH/HUjPPhZj/9oXW61SEq3tbtjbamTm30VD0std0yqIdYGfjLr0UssGsLVZ3lQ6LgG2FTluwXMk23gMVQMLjxEjQA/ke0e06SroDMvDsKa9n4uRNuZ5hOnVSeaESOpkSoxIggwt1mlY3Tm/IJS+POxC1anbLbpLesMNajqkul/2H6L1aq1Qf/gwacPsg6+uysKCDJmsDQcceMdvcTP902D3VJJC4jM61Ph9KcTdox/D3VDwBuX1JkSoyEgbgWBuk6whY9vF6NVCdbmK6w+Vv4uiQMe3RwLAG7p5q9M3HkOjECDBRh8aQahVIMQ1NDfhKZGhKF0sVayCNBmLgplFMHDy0NRADd2i3TyxdGg3EwE2jmDh4aGsgJ4uz1lbdY4wp1kCggeLi/v1oNSfA5RTKN+rZPnJ/UI9ubxjvfnc9UfSd8GgY71C0rGg60qQKIxzqLS6ZIvk3LC/ME/rD9O5PFb+3MI93F174IeobDY/qwBJ2/fG0oevxns/jCA/9ns7D3A3TEQaFcnmYRfTTn5xMFVxor0BvsrqywjTRsOh7Kr6kCdP1pqwwnZfr6VPFRdN4+Z7WXU/Xm5sqbV/CyOP53HW5cL0+UVk8rbueJ/ru+cLwaFgY537c0O95+tvNCXBRGsKnU15vlcg0D+l6S5ut8jx9Jjx7k9/59JYmGpdpXaL5ou+h7JnKkWk6ygr5R8se7PecANcrmY1SyEP6TPNkmjZTZXu6TMvPZUNlWpewTJc3DAtlTxUfpo36M0nv/DNJG+Xf3+85A65XMlcCu7Jw/YnyjqYhPpTD4z2f88EN04Xx7t+b67z2lm5v8c4H1ykM8/BU8np63FTxnpd454kf8vRhmmRM8m+Y3tOG8YPtz8nijEpQ0VxUEB48LPjguW1b8r4AYZWVPY9gW1pa9Cy/2J5o2bt26bXJ5mbL4/x27kzeReAqZHl5ebfuiW9vb9erkZnd8UU25MIdPXq0XYCPlt/NvMtDPPdgqZPXjagdO5IfCRJWVZW8e0E4t+ZISz1GjhxpXw7wng1RJnna2tr0E5nkzk9JSfKyjstL+SF/vlAgrrEx+WuWo0YlL0JlU+5ApM0JcF0JfREYxXp+gPjSSy/Jq6++KmvXrhXeKyqSvz1Fuu3bt1tDUA4NDZABztSpU+Xoo4824AFAaMmSJfL444/Lli1bLA/5aQTKAkBNTU12l5d3nokTJ8q0adPk+OOP7w4PZTOm+oeGffnll+X+++83UB111FFywgknmN/TRN3CwkJ54YUX7HnttdcsrZeLTJTDA4gIB7Qf+MAHTPYnn3zSdPGhD31Ixo0b162raBnRd/jRqZ966il55ZVXZNOmTVZnOjMd18tHh4CUMgn/6Ec/aiBHd3TkQw45xHRM+qFEOQFuqgbOppIoDMU+8MADBlrABzB5AKsrza2Q825o0B/X03jA8O9//1ve8573SF1dnQETS0Wc84EHgPUGw+8NiPx0lNWrV8uyZcvkkksuMSvl5Xp5pEO2O+64w8DHO/5JkyZJnZaLfFHCwv3+97838CCLy0E6/MjohEx01vPPP1/GjBkj9fX1wijhMmejZ9L++te/Nt14mYRRRkiMHIQh26mnnqrfDY6XRx991MokDFBjHIYa5QS4KKavRF4U+sQTT8izzz6rv9RYYo02b9482W+//boBAn/ivCxAhzXFmgA2lH/rrbfK+9//fhv64AnxHdvpp59u1pnhknDyFulnJV424ZQPcOkEjz32mBx66KHWmF4evLCcf/zjH80yuvWmcf/85z/Lxz/+8e6OQFqIsm+++WZ5+umnzdrX1NTY6DB79mxLixx0MMrgKS0ttXBGEPhCXg97yfAPvP7xj3+YXpB57NixMnfuXLPYWFHinS8WGMuMLJSLPDNmzDDAMoUYiqBFDTkBbob6TJkMhS1evNiGNJS6//77G9BoRLcEntGV7S7ABuDPPfec/P3vfzcgM4QvXLiwu2HgP2XKFGu8KBjgQyOSpra2Vn7zm9+Y1Xz++edtiCTOCQBQDlMQ0h988ME2bQDkW7dutdHiuOOOszDPw5QH0FKXCRMmyNve9jazaG714B+WAV8IOcNw5PQ6O++o63XB6m/evFkefPBBk6W6ulrOOussMwbw742Pl8n8/8gjj7S0dD4Pj5Y5mO852VXoTRnRyoVp8fM888wzNgSzOHnjG99olooFhTcgiuPhnYeGd1BjORcsWGDWAl6PPPKINZyDgPI9Tyo+Hoc194al8aONtWbNGpsWMMcF5HSYI444Qn+hUr9G0HIfeughm/sS7/ViNIAPfN/85jeb9WKqEcrvMuF6nfDDw8nT+Hsq1/OgN/RJfupx8cUXm7XHz+Nle1lYWPd7OeRFr3TWoUoDbnFRTkgoDQvBcMW8DvB6GnfD9Cg1Gk6DAIyf/vSn1mDMG0Pgkp935o/kB1y+g8A7DwsuBxUykB5QUxYu8z4WdPgPO+wwAy8Ne9ppp8mvfvUrC3/xxRdl8uTJtqCkjI0bN1o4c+Dp06fbMBzWJZU/WjfSuIyp0kfD0MWqVatMfiwn0ydkhnB54OflYFEdzIwi1M3TR3kPpfcBB2608igNwDiYUGpvhMJDxZMWHgyJ8CCexvOGIZ5OwW4Fc2gahfQsSgAnvAhjnguwsVhYcPL7w9SB+S/vs2bNsh0MePAOIOk0zCmZH7MLsLBrqkK9IOaKXi/y9CfBn3pQN+qC1ccPednuIpPXHxnnz58/LEBLXXICXFcEDLMlejxzQFavWEoAQVhvFC2P9CzQACyNxLAPPycakMUJlh3LSZyDFl4AF+sJn3e9611mTQEdcaRlSwmgM3y+/e1vN8tJWRDp2BJjLksa5GBbjQUO9QIYLCKRoa8ED2SJ1jsVP+rFiIEukRfZ6NAQMvsC1Xlhldm5QD/I6/VKxXsohfWOkAwldcVmmLw7GcoDLAyvWEO2t9iWYtGVKVE2jfGvf/3LLCvWFevrG/vw8UZnwYFlueeee+xwgnAWTTQacmBN2Q5ykAFogA7w8L/1rW+Vhx9+WNatW9cNBvi7RUMWtvWwuvBkb3jp0qU2ZWARx5wYPtmSgywTPXs96EBMbdgpoF7kRU4flZCBMOpKHsoAtJmUka38/ZE+J4szV2xfBMTCAig2wrFY//znP02JbiVQtj8hf28IAMqWk1trwAVwUwGEBjrggAPknHPOscaCL4sutnyY2zHHdosDf3iwi8CWEdtjpOFZsWKFrFy50qYGTA/wIwd5qA9hLJBISz14AC7DNpaddE5eD2QJKUwThuMnLlU8YYw2HBrQgSnrL3/5S4+9cYDKKMGDn3KRmQfal7Y0BgP0JycWd19lZWg99thj5d5779VfsdkgX/nKV+QNb3iDWUNfUFEGQ5krFoVjCQERVg7CygHMVI1qCfQP4KU8TqJuuOEGy/u73/1OTjzxRJvb0vDkp9F/8YtfGGjZs2WbDiBjkZlOICfpsPbe6MiENea58cYb5bOf/ay85S1vkdtvv91kveWWW2x0qaurs7zkj+7jIiflsIUXdj5GJKwoZdCR6AyA09PACwvL9IBdj3PPPdf2nNEfCzRGMfZz0SF54ON5fEcFMM+ZM8fyO1/X21BzBwS4KMgBF1UA4SiMhQFgYShmLoql45gUIj+EMp1X6GIlOXZ905veZA0CTx5vIMsc/AFobGNxrHrbbbfZjgJHnJxUXXTRRdb4LLaYtiATx8kM+/CkLLbC6CQQHcHlw4KxO8GeMmlxATmjCX6mQoCP6YPLDwBJCyGvy/zBD37QyrYI/YNeINICOvebJwinXgceeKDVj5NERiNkRi4e8nvZ5KV8yiQcADP68T7UaUCA6w2TThnEsz110EEH2fEpCx0sKdaM83kUibIBNC4PYcTRUAzj+OkATixQWCBhjb2hPQ6XMrFOTBuuu+46azQOEq666iq58MILbVjHumL5AGlo7SnfeYaNDIiZrx9zzDE2z2Vbii0xdh7oEHREphAA3HXC9ASCH/XDAiMT9aJMpkDkgTdEeVhOePj0BF7IhLzUmXh0MXPmTPn0pz9tdzYYBZiKRfOQlg4FuBl13CJbYfoHvi6rhw0Ft9d/A2LxktfksJP+jxTpv9DYvPTatPIyHPW1clHF8I6Vc0tEw3kav3CDIIT5kIk/BBDxPm8jD40cjScNRF4ATIPSaACERieMOjH8hlbV84T1dfmMof4BBCwCIQcpaSCGd89LGOVCyEdngygf+YkPeZGPMHSCjvz41jLpH3gR7p3KyyQefoRjVcPyATNTIeJIQ3n7SpSLLjOh2cdfJiv1Z7KuvuISueDsBZlksTQ5sbiuiIxLDRJG8/JOY7vSaWgnLHBIKDua3+MBPg8WrDfy8ny+CGgI87IAghMyERctM/oO0KOA9TShPPCjg0D4ifN6E0aeVHVwnSAjaVwuDyevk5frYA7LJw1Aps7DjXouZQdQ+rCBUhWLwl3pHk+eVPk8Xao4z9ub6/lJE/qjeXqLi6b1d/KEcoV1CPl5Otww3Pmkcj2du9E0qcJDWaLph9P7oAE3lVL3pjjypMtHg6SLS8W3vxswlCWdPypXmC6My6WsqcrIJf9Q7v705wS4Q6Hi3iCZyuLp+1O56XhnW3a26dOVmy68v/mnK3dfwnMyx81EAOaKzP1Y7LCKDe+cMv9iX5S5FosUtp6Y20HcEcBPuO9tomjC1q9fb8Mwq2lfzMCLPADY88CHeLa7iGde6bsVxBHGDgArfBY85CM/eSiDeORnBQ6xOPIjZQ47fCHCyp28Xi5y8pCfRRB1Z9eBeIhwttwgyiIOomyvN/lT5WFuirxe72geLvaQl7k2OyvEUzcOWwjnHaLe7PuiE+RCJubBvoPDIpPtPNL7CSJhnt+YDMKfnAAXRfRGNPrHPvYxYQMe8HFI8Le//c3AQD5WsmwhoVgUyPEtCqdRzjjjDPPD48477+zeFiIPhxaUvWjRIuOFn3BubNEJ4EU5dBj8CxcutHBW35xkEQ6RlnK4bwv4aBR4AUjKgCdg5c4CxJYTG/o0MgcDAANZ4U+Hoqy7777b0vIHQLCxDwDvuusuk5Uy4Ot7zyysqB/hpEceX6xxmhjKetJJJxmIKJtwyoaoNws2eFA+srBTwVEzaagb++OEe5uRh69H/Hs8+NAZOQAiDR2Ie8XIBB+unX7yk58k2aBSTrbD2JbaG6FgwIe1pZdzLIkyUQ5xKIeGIowNfsJoAC6Zo2jCUWaYhw110vBFASDAT1ryACrSclUPpRPPtUPisVbscRLvedg7BoxYJMLJT+ehDPx0qml64gYxOmCRkJ2OiEWCuIFGXh4OASDSUCbWHovFXjXxXm/2dl0+4iBkYu8WfUHwQn4IvZAHq1dXV2fhyAcBZMoiP8aBMrDyy5cvtzogJ/J6/UhHvelUdFLkgBcg5tiaeECMRcZPu5GGEY73dEScj0Lp0nh4X7fDBgy4LiiVQjkoAMW6AnDdH8Z5o5AfhYfkcaT3vMR7OH7PQ7yHUy55QqLBvVwPj+YhHw98vDzPE6Ylfxge5gnlIZxynVymVOGEeZmUzzvpCcMPhbzCclLV2/OF9fYw3Ggewnggl9NeUvwhXX8DNydThRSypw1CyaFSXenuhhnDtISjEMLcDRUY5nf+YR78YTjvIaWKi5ZPesoOy3UeqdIS53JF83h4qnLJlyo8VR4PS5fHw11nvIf+sBznhRuGk4cwj+d9sCknuwp9rUS2ivD07mZSrqd1N8xDA2ZLqfhky2Mg07u87lJ26Oe9L3og32DSoAJ3ICueqnGiDTiQ8vSlrFR1yCWfXPHvi0zZ5hkw4DJnYj7l8zMWGTw+l4oKTjjxgMufcA6XSsmEeR7n5+UyVKc62oRnyBc/PFLxd564LpPzJ09I8PG64Y/y83zIFB2WQz7udx7woS4hP/zRentYNB3vyA4/HvyE4XeZKNPr53HEDyXqqe1+koxKcyeUlTLbPqzq2V5ipcw22Jlnnmk7Cl4820lcgGbLipUwSmSFzd4rN6cgVvb8ngHXIRcuXGi8WPVy04tvxuALILgo/vOf/9xW9KyQiWMLCDlobD6w5FYYd2dZUPzyl7+0m2lcK/TV9F//+ldL8453vMO2l7gCyTVDQMdOCPUATFx/PPnkk23nhN9foL6k4SsL8nJlkLqwQ8F1Su7pckGJlT75qAc7GSEBHAB1/fXX26/nsN01TXc3uOcLP/jzmxBspZ1yyil2Uw59s1tw0003WbnsrLCjwqf7XP9k9+IHP/iBtQH6ZU/aOw87BvwgCtc62R6EPzIhNzsu7HCwReidMpR1QP0qUFp65oWViYLacxOlMy5Mm4YI3Q5L6LZL2kcrn3jve9+b0MomdBsnoQ2Z0AZhKZzQC93GO8xPgP4UkMXrRrql181/y/P1r3/d0it4EqrkhF7bs3cFQEL3OxMK+sSll16a0L3ahAIuoeC0cvVQI6HXExO65ZX40pe+ZHmQS69EJnSvM6EdycIUPFbuhz/8YXunbtpZEocffnhC79EmyPO9730voZv/Ce0ICQVhQoFieShX9z0T3/jGNxLa0RL6PVdCryea3JSjn/QYz5/85CeWnjTakRIK3ISCIqH70RYf6kIPLhLaGa0e2uFNVnSinSqhnxUlFMiJH//4x1bGV7/61YRuNyYUiAntkFbG5ZdfntD924QC1crQTpyAp161NL1QLnKgJ9pDQa3/WGWntYt2bmsv6kd7kecLX/iC6TaUMepHZ5nSrAX/nSicen7iupsfyDSLpRuwqYL3xmuuucYsDZZwpX7yoo1sPRorweM9WaWzLPzEERYPi80dVb5WgIjHSmDpnDwPYVhBLDYu35hxQsVdW/aCOeBgP7k3wkqzMY/FgV9YDn6uArIRjyVjn5S68E694I91Yj+Uw4lrr73WrBuHD9DVV19tIwkjBJZXwWUnifwaTkjogvu8yI1lxDozOnzrW9+yUQsrzOhEvbHMyOU6CPngJ9wfZL/vvvtMZn4shDr+7Gc/s8MGH13QLQctjBzUjX1dRgh+KYh2GmwakKlCWEmGVpTP8SnDHmBEMf4ZNUeVDG1OTAlQOGk5NmU4Tkc0nhON7p3g+9//vjUOU41vfvObloQGdwobGx4Ml0wb+A0vQBjyxe8A4OCFhykHDc2hAFMaGpbhVy2gfOQjH5ELLrjAhnXiqAdEvi9/+cv2iQ0HLnRophCAMyTqwLSGqRUd4xOf+ISo9bepFACEX1S+MH9YtzAcvcObaQxEx0D3tI9aUAuj0yMPZdApADhfBcOTvOl4W+Z+/pMTi5tJBVy5fOtFQ9bV1dmJDXcBdPi3T1w4FuY7MJTk6fkaged973ufWRfmXyjQ40P9IIeH43KjnzsRHJky/2N+TFlYSObZUCrZaRydTthpF5YpPA4lD7wBkg751sn4ipavJLBW+N/5zncaf0YTgAGQsaoAARB+8YtfNBfLy6c9dJArrrjCrHhozdADHRzAYsF1SmB602mX/QiJdz7q4PUIdYCsIXkawsI8nia02MiBnmgrThk5ndTpk51w0klDXp5/IN2cWFwacm8VcUXxISSNC/hQAAsmwAywaNQ6BXTYm3/0ox8ZUGh0hsjzzjvPhk8vz11k4HFiQcEHjgxx3FdgocEihp9o4uEsn6EQCvPxTt53v/vdBvjf/va3trCLngTxZQXD7EJdUGGRkIORAjDx2wv8ThjfmfEJElabX2ykA/zhD3+wfBwBMw3imJgpDQtNFkQcMfvwjyzogoUYx7nIDD86E4tK7h2QJ6x7tC7wcIrGeZt4fOgCYo7Amb5wx4K24t6Dt0+YdjD8OQGug2dvFUBx/P4sn227EsnL0MeD38OdF5+bE8ZwzGWaK6+80nYUGFZpYOaqbgF8hY81JYz5GfNDPhjkMgtTFL7c/drXvmYfLTpwvazQBWQ//OEPTV6mMv7bBKRBTjoZ37qxIxLuBPCrN8yPKYvymRJcdtllBlbi6LD8eiQdkfktuw1Mh7BsdCw6GtaNMgAtVo/Oyt0O5vfUkZ8DxWrDD6JTYSHhA5GPuTUE2KI6tYiuP+niKB8rz6jFvQeAjE4h/INNOQFuJpVAEVRYV+Q2JDKnohG5mgeQaPxQiaSHPvWpT1kjEo/1o1GxBMy9AB7Ds650bfvrO9/5jimXSyMMsTQyVom5JD/+htXCCjJ9gA9EOV4W78jo78xJARnlIivkcd4JsN7IDRCZq7I959aUurJ9BCABGRYanoCeBSMjCKDAynLJiG0xhuWQmDfDA4tNHB2fRRI31djagvwmF7pgBEO33/3ud62zY/2Rj3qFdfMyCEtHfJHMdAddUm/SIgPTNTrHYNKAAJdKszACMAyNKBcrRnidTg1QTpRIwxDlt6dQPpYHS8PQDADIx1QCwEI0GPNO9kSxDmeffbaBhOnJn/70J1M6c9HPfe5zthdKHl8k+tySd6wkDYOVZxXNPJyOwzvEfWH2Quk8/qs4ABdLzwjxmc98xuqG68Sn8J///OetA7BXzJwWYLMgApwLdcrx7W9/20YRt+AAhYUii0vKpoNDTIGoG/WiczJFYdeF/Ow0IAt70Fh+DAPXOHknH2WFRJvQYbDa3inRBUaBzk2n4td8iKPevjYIeQyGv99vhwE4Ko3iUQiN7Yr03u4NFSoAYJKHO6Teu1kJY/lcwfCGH4spwpk6AFjnCz/K9HLpLPBg+IQH+SnH+VAO77jIRBoegAwPpie803EoF4IX5cKDXQ+sKeTzVJcLMJHXCX6UxYiAS8f2vJ7GXXijC1zqxx1Z6kF6eBLOwyjAQxosv+8GkAY5SANAkcUJ4DuYyedEuMehX3QCb3QLD3ilIy8nXXwY3tdrjTmxuAgaNkoomIejLB4ajLkTSnFKlR9F85DWiXdvKMLwe0OgWOKjhKJpEMCBBeHdZcL1TkN+KMoD2Wg4yDsEgAlB5iAPrRZ8yAvfELReV2TiYe6MHP5YQZE/xIVyMRJ5evhByEYnYqSCvGPhJ43LG4KWOGQOAUsYRDgPRAeA/J2yB5tyAtxMK+KNFq10uvyZpPe87kbzeLiDLlp2Ju/Ow3n7ezRvGE5apzDcw5xXKtB4Gnc9rbthXZy3x6Xj5+mcp7vZhKdL67wG0s3JDBul8fRGrthUadLlzUZRziObPKlk6S2sN95efpif9OnypAsP87vf07rr4QPppqrfQJYfLSsnwEWh6ZTqFU4Xj0C9xUUFTveeCx7peGcSHi0/+u48PBy9uG48ri+u83C+feGRSZ7+5p+JDGGanADXlRcydv9Qq7DLNdhuLvSC3nPBZ7B10ZfyczLHZcWbLaHw3gAPP2+UaLp04Z4nmj4qW5g/lRxhfG95o3FePq6Dyt0wLPTvTVbSpiOX3eUlXViev6fLv7dw57svMu6tjL7GZ4+4FCWxYo8p1sBAaiAnU4WBFDguK9YAGoiBG+NgWGogBu6wbLZY6Bi4MQaGpQZ6BS4ne76yHJa1i4Ue8hrwcyuwlg31CtzRlWUybuIY6VSm/3yQLz73XMLIppA4bayBqAZ2tbbLy8vq9TMhvelXVChjRifvg0TTpXvv9XZYa5v+I8b/faXcdNsiyS8skFMWHiynnXCwnHDMPDlw7pR0POPwWANpNfCs/rsiDzz6ktx+95Ny7/2LGdLljUfPk3v/+CW9AZf5R5i9ApfSNzXslO9d9Re5/IqbpUD/ERO7jqcFzNhvnMydOUkuPOd4OfrQWVJd1fOeZ1rJ44j/URpobmlTkD4hjz69VG5QA9ii77vUIOo38NLR3CoXXXCSXHP5R7LWyV6B6xzXb9ou1950v9x65xOyZt0WqV+7WXuL/m93O/Nk9rypau5HydlnHCVzZ0yQ6spyvZI4Uqoq9IeBR5VJSXF8SOG6/E9ydzbukta2dtm2o0m2NOi/x9zYLE89t0Kee3G13P3AYtmsOMnDknI3oyBfyhUP+02ukSPeMFM+/1/vkOlTx2N0ic6KMgauc+3Y3Smr1mySR7QHPf7Mcnns6Vfl4Yeekzzus6pgHA/mlxSpN1+qdd5SVVEmFeWlMrKsWKZOrJGZ08brxeVSmVU3Xg6YPUXGj62MQe3KHaJue8duAaAvLV0r9RsaZPmqjfLvx1/We7odsllHZIC7fWez+hulrUXvWeuiKMHCiLvPmneejsinHH+gnKpTzZrqCgMr66d9oayBm6owrPHq+i2y6MlX5B5dxL3wyhr9GqBJdqvguxXo5lKZ5DZFkoX6rXLqFhQXyZjKkTJreq3Ujh8tUyeMkfk6h8aCMyWZMqnGrLtor8yn53Y/e96J0xjruUPxbD2V3vorLLkTlLyAg5+nUx/I/NYW+lOm2j7NLa2yZetOWbpig6xd36DtuFmad7XLs0tW6pcfbfL4E/rD1j73zE/qHiUndcxvjiUvyxdoHJfmCwtHyIIj58jRh82Sk46dL/PnTNGvQXJys6CHunIC3B4cu146Ojpl6cr1smL1Rp1aNEi9KmX9ph2yYdNW7aEd8sqKdbai3Lq9Sdp0mDHE2dzj9dxQdpEOMUWqlIpRpWbJS3QlWlZaLGPHVJhbrFORYlVQuVr2mupRasWL7L1QlV5erv8+r7Kt0s5BA47QrzAYBWhK8pTpCAGVKr9i5etEPHHFxar4ZLt7VLeLbAU60vRGAIROlY469EsILFrY4ZJhLZZLcaIWrUWBxsUkkYZtjbbD09TMVyT8+2htZvUaVJf5CqDNW3aau0WNR5vqeqcO31hG+G/b0SwbNm+TXS06vG/cmk4k2CZJ6z1Cp3qlqs8JtVUyWtthXE2FjK+p0tGyQiaOr5aJtaNl+pRx2hajNCz5jwymZ5ybmH4DbirxaGSGHSwtE3S3yDsbW7TX60++r1wnazdus56P1d66tVFW6LC0RUHP/MiIluN/XEgbigB/NY++EM9DNJaAVCHA3G9pSKQNlKcuFj0kgNBdVhgR+J1XENTDy6jTG9EnOiNpusO6xCGeMAh+6BIgQ/pTX9Yhu7+M0DgjdZNefe9Ka+/8SUZIQnmNGlOp07ZJ+mFmlUzR0a5UO+tBc6eqQSiSY4/Uf7NY0zIVLFIjQF0xBuwAoJvBogEF7r5UEiu9S4ewzQ3bZVV9gw1xLARW6+R/+44WadIhjxXsNrU6DHc0Jg2M29b1cSDWB8Lqtrcn/aRh3g51aKfqASBtl3YdOTzeEkX+0HQdKb51606mGCkIrHh3eOBhmC3S7cZuZGocnYhhFwJjjAz0KfUKow1UqHnoVIwgAIoFMOAFfIAaS1haUmjzysm6H4/BwFrOmDpOKtVyMmIBzuFIwwa4fVEuDc43WC0KeLU94kMrlp7hFWIEoFMAQDbFmeJ0kwa2trZZmu6wiEftsTQ26ZANgxSEZSzXxWgPVEbSsZBlmhICF2sGqAAqf8rKimw0oE7lui1JYFlJsY0mzCEBcXS0iBTzH/X6Hw3c/6iWiivTQwO9ryp6JI1fYg0MHQ3EwB06bRFLkoUGYuBmoaw46dDRQAzcodMWsSRZaCAGbhbKipMOHQ3EwB06bRFLkoUG/j/RfDCRxQw1NwAAAABJRU5ErkJggg==;" parent="675HwpJTXZrzleELEa9g-5" vertex="1">
          <mxGeometry x="19.72" y="301" width="80.56" height="50" as="geometry" />
        </mxCell>
        <mxCell id="675HwpJTXZrzleELEa9g-13" value="" style="shape=image;verticalLabelPosition=bottom;labelBackgroundColor=#ffffff;verticalAlign=top;aspect=fixed;imageAspect=0;image=data:image/png,iVBORw0KGgoAAAANSUhEUgAAALQAAABoCAYAAABYMdpmAAAMaWlDQ1BJQ0MgUHJvZmlsZQAASImVVwdYU8kWnluSkJDQAqFICb0J0quUEFoAAamCjZAEEkqMCUHFXhYVXLuIYEVXRRRdCyCLitjLotj7YkFFWRcLiqLyJiSg677yvfN9c+e/Z878p9yZe+8AoNnLlUjyUC0A8sUF0oSIEOaYtHQmqQMgQBtQgT6gcXkyCSs+PgZAGez/Lu9vQGsoV50UXP8c/6+iwxfIeAAg4yDO5Mt4+RA3A4Cv50mkBQAQFXrLKQUSBZ4Dsa4UBgjxagXOVuKdCpypxE0DNkkJbIgvA6BG5XKl2QBo3IN6ZiEvG/JofIbYRcwXiQHQHA5xIE/I5UOsiH14fv4kBS6H2A7aSyCG8QCfzO84s//GnznEz+VmD2FlXgOiFiqSSfK40/7P0vxvyc+TD/qwgY0qlEYmKPKHNbyVOylagakQd4kzY+MUtYa4V8RX1h0AlCKURyYr7VFjnowN6wcYELvwuaHREBtDHC7Oi41R6TOzROEciOFqQaeKCjhJEBtAvEggC0tU2WyWTkpQ+ULrsqRslkp/lisd8Kvw9UCem8xS8b8RCjgqfkyjSJiUCjEFYqtCUUosxBoQO8tyE6NVNiOLhOzYQRupPEERvxXECQJxRIiSHyvMkoYnqOxL8mWD+WKbhSJOrArvLxAmRSrrg53kcQfih7lglwViVvIgj0A2JmYwF74gNEyZO/ZcIE5OVPH0SgpCEpRzcYokL15lj1sI8iIUeguIPWSFiaq5eEoBXJxKfjxLUhCfpIwTL8rhRsUr48GXgxjABqGACeSwZYJJIAeIWrvqu+CdciQccIEUZAMBcFJpBmekDoyI4TURFIE/IRIA2dC8kIFRASiE+i9DWuXVCWQNjBYOzMgFTyHOB9EgD97LB2aJh7ylgCdQI/qHdy5sPBhvHmyK8X+vH9R+07CgJkalkQ96ZGoOWhLDiKHESGI40R43wgNxfzwGXoNhc8N9cN/BPL7ZE54S2giPCNcJ7YTbE0XzpD9EOQq0Q/5wVS0yv68FbgM5PfEQPACyQ2acgRsBJ9wD+mHhQdCzJ9SyVXErqsL8gftvGXz3NFR2ZBcyStYnB5Ptfpyp4aDhOcSiqPX39VHGmjlUb/bQyI/+2d9Vnw/76B8tsUXYAewMdhw7hzVh9YCJHcMasIvYEQUeWl1PBlbXoLeEgXhyIY/oH/64Kp+KSspcalw6XT4rxwoEUwsUG489STJNKsoWFjBZ8OsgYHLEPOfhTDcXN1cAFN8a5evrLWPgG4Iwzn/TzYd7PEDc39/f9E0X/QmAg+Zw+7d/09lega8J+J4+u4InlxYqdbjiQoBvCU240wyBKbAEdjAfN+AF/EEwCANRIA4kgTQwAVZZCNe5FEwBM8BcUAxKwXKwBlSATWAr2An2gP2gHjSB4+A0uAAug+vgLlw9HeAl6AbvQR+CICSEhtARQ8QMsUYcETfEBwlEwpAYJAFJQzKQbESMyJEZyHykFFmJVCBbkGrkV+Qwchw5h7Qht5GHSCfyBvmEYigV1UVNUBt0BOqDstBoNAkdj2ajk9EidAG6FC1Hq9DdaB16HL2AXkfb0ZdoDwYwdYyBmWNOmA/GxuKwdCwLk2KzsBKsDKvCarFG+JyvYu1YF/YRJ+J0nIk7wRUciSfjPHwyPgtfglfgO/E6/CR+FX+Id+NfCTSCMcGR4EfgEMYQsglTCMWEMsJ2wiHCKbiXOgjviUQig2hL9IZ7MY2YQ5xOXELcQNxLbCa2ER8Te0gkkiHJkRRAiiNxSQWkYtI60m7SMdIVUgepV01dzUzNTS1cLV1NrDZPrUxtl9pRtStqz9T6yFpka7IfOY7MJ08jLyNvIzeSL5E7yH0UbYotJYCSRMmhzKWUU2oppyj3KG/V1dUt1H3VR6uL1Oeol6vvUz+r/lD9I1WH6kBlU8dR5dSl1B3UZupt6lsajWZDC6al0wpoS2nVtBO0B7ReDbqGswZHg68xW6NSo07jisYrTbKmtSZLc4JmkWaZ5gHNS5pdWmQtGy22Fldrllal1mGtm1o92nRtV+047XztJdq7tM9pP9ch6djohOnwdRbobNU5ofOYjtEt6Ww6jz6fvo1+it6hS9S11eXo5uiW6u7RbdXt1tPR89BL0ZuqV6l3RK+dgTFsGBxGHmMZYz/jBuOTvok+S1+gv1i/Vv+K/geDYQbBBgKDEoO9BtcNPhkyDcMMcw1XGNYb3jfCjRyMRhtNMdpodMqoa5juMP9hvGElw/YPu2OMGjsYJxhPN95qfNG4x8TUJMJEYrLO5IRJlynDNNg0x3S16VHTTjO6WaCZyGy12TGzF0w9JouZxyxnnmR2mxubR5rLzbeYt5r3WdhaJFvMs9hrcd+SYuljmWW52rLFstvKzGqU1QyrGqs71mRrH2uh9VrrM9YfbGxtUm0W2tTbPLc1sOXYFtnW2N6zo9kF2U22q7K7Zk+097HPtd9gf9kBdfB0EDpUOlxyRB29HEWOGxzbhhOG+w4XD68aftOJ6sRyKnSqcXrozHCOcZ7nXO/8aoTViPQRK0acGfHVxdMlz2Wby11XHdco13muja5v3BzceG6Vbtfcae7h7rPdG9xfezh6CDw2etzypHuO8lzo2eL5xcvbS+pV69XpbeWd4b3e+6aPrk+8zxKfs74E3xDf2b5Nvh/9vPwK/Pb7/eXv5J/rv8v/+UjbkYKR20Y+DrAI4AZsCWgPZAZmBG4ObA8yD+IGVQU9CrYM5gdvD37GsmflsHazXoW4hEhDDoV8YPuxZ7KbQ7HQiNCS0NYwnbDksIqwB+EW4dnhNeHdEZ4R0yOaIwmR0ZErIm9yTDg8TjWnO8o7ambUyWhqdGJ0RfSjGIcYaUzjKHRU1KhVo+7FWseKY+vjQBwnblXc/Xjb+Mnxv40mjo4fXTn6aYJrwoyEM4n0xImJuxLfJ4UkLUu6m2yXLE9uSdFMGZdSnfIhNTR1ZWr7mBFjZo65kGaUJkprSCelp6RvT+8ZGzZ2zdiOcZ7jisfdGG87fur4cxOMJuRNODJRcyJ34oEMQkZqxq6Mz9w4bhW3J5OTuT6zm8fmreW95AfzV/M7BQGClYJnWQFZK7OeZwdkr8ruFAYJy4RdIraoQvQ6JzJnU86H3LjcHbn9eal5e/PV8jPyD4t1xLnik5NMJ02d1CZxlBRL2if7TV4zuVsaLd0uQ2TjZQ0FuvCn/qLcTv6T/GFhYGFlYe+UlCkHpmpPFU+9OM1h2uJpz4rCi36Zjk/nTW+ZYT5j7oyHM1kzt8xCZmXOapltOXvB7I45EXN2zqXMzZ37+zyXeSvnvZufOr9xgcmCOQse/xTxU02xRrG0+OZC/4WbFuGLRItaF7svXrf4awm/5HypS2lZ6eclvCXnf3b9ufzn/qVZS1uXeS3buJy4XLz8xoqgFTtXaq8sWvl41ahVdauZq0tWv1szcc25Mo+yTWspa+Vr28tjyhvWWa1bvu5zhbDiemVI5d71xusXr/+wgb/hysbgjbWbTDaVbvq0WbT51paILXVVNlVlW4lbC7c+3Zay7cwvPr9UbzfaXrr9yw7xjvadCTtPVntXV+8y3rWsBq2R13TuHrf78p7QPQ21TrVb9jL2lu4D++T7Xvya8euN/dH7Ww74HKg9aH1w/SH6oZI6pG5aXXe9sL69Ia2h7XDU4ZZG/8ZDvzn/tqPJvKnyiN6RZUcpRxcc7T9WdKynWdLcdTz7+OOWiS13T4w5ce3k6JOtp6JPnT0dfvrEGdaZY2cDzjad8zt3+LzP+foLXhfqLnpePPS75++HWr1a6y55X2q47Hu5sW1k29ErQVeOXw29evoa59qF67HX224k37h1c9zN9lv8W89v591+fafwTt/dOfcI90rua90ve2D8oOoP+z/2tnu1H3kY+vDio8RHdx/zHr98InvyuWPBU9rTsmdmz6qfuz1v6gzvvPxi7IuOl5KXfV3Ff2r/uf6V3auDfwX/dbF7THfHa+nr/jdL3hq+3fHO411LT3zPg/f57/s+lPQa9u786PPxzKfUT8/6pnwmfS7/Yv+l8Wv013v9+f39Eq6UO/ArgMGGZmUB8GYHALQ0AOjw3EYZqzwLDgiiPL8OIPCfsPK8OCBeANTCTvEbz24GYB9sNnMgN2yKX/ikYIC6uw81lciy3N2UXFR4EiL09ve/NQGA1AjAF2l/f9+G/v4v22CwtwFonqw8gyqECM8Mm4MV6LrBWBz8IMrz6Xc5/tgDRQQe4Mf+X55bjwFeCncVAAAAlmVYSWZNTQAqAAAACAAFARIAAwAAAAEAAQAAARoABQAAAAEAAABKARsABQAAAAEAAABSASgAAwAAAAEAAgAAh2kABAAAAAEAAABaAAAAAAAAAJAAAAABAAAAkAAAAAEAA5KGAAcAAAASAAAAhKACAAQAAAABAAAAtKADAAQAAAABAAAAaAAAAABBU0NJSQAAAFNjcmVlbnNob3QmGuGYAAAACXBIWXMAABYlAAAWJQFJUiTwAAAC22lUWHRYTUw6Y29tLmFkb2JlLnhtcAAAAAAAPHg6eG1wbWV0YSB4bWxuczp4PSJhZG9iZTpuczptZXRhLyIgeDp4bXB0az0iWE1QIENvcmUgNi4wLjAiPgogICA8cmRmOlJERiB4bWxuczpyZGY9Imh0dHA6Ly93d3cudzMub3JnLzE5OTkvMDIvMjItcmRmLXN5bnRheC1ucyMiPgogICAgICA8cmRmOkRlc2NyaXB0aW9uIHJkZjphYm91dD0iIgogICAgICAgICAgICB4bWxuczpleGlmPSJodHRwOi8vbnMuYWRvYmUuY29tL2V4aWYvMS4wLyIKICAgICAgICAgICAgeG1sbnM6dGlmZj0iaHR0cDovL25zLmFkb2JlLmNvbS90aWZmLzEuMC8iPgogICAgICAgICA8ZXhpZjpVc2VyQ29tbWVudD5TY3JlZW5zaG90PC9leGlmOlVzZXJDb21tZW50PgogICAgICAgICA8ZXhpZjpQaXhlbFhEaW1lbnNpb24+MTgwPC9leGlmOlBpeGVsWERpbWVuc2lvbj4KICAgICAgICAgPGV4aWY6UGl4ZWxZRGltZW5zaW9uPjEwNDwvZXhpZjpQaXhlbFlEaW1lbnNpb24+CiAgICAgICAgIDx0aWZmOlJlc29sdXRpb25Vbml0PjI8L3RpZmY6UmVzb2x1dGlvblVuaXQ+CiAgICAgICAgIDx0aWZmOlhSZXNvbHV0aW9uPjE0NC8xPC90aWZmOlhSZXNvbHV0aW9uPgogICAgICAgICA8dGlmZjpZUmVzb2x1dGlvbj4xNDQvMTwvdGlmZjpZUmVzb2x1dGlvbj4KICAgICAgICAgPHRpZmY6T3JpZW50YXRpb24+MTwvdGlmZjpPcmllbnRhdGlvbj4KICAgICAgPC9yZGY6RGVzY3JpcHRpb24+CiAgIDwvcmRmOlJERj4KPC94OnhtcG1ldGE+ClmbF9oAACOYSURBVHgB7V0HmFXVtV7TK9M7DAwDQwcFQXoRxYIVg8HEFhGNEn2fz5g8k6i8FH3x5b2Uz7w8zTMW1KhRo6gkCCI10iK9I2UK03tvDO//151zOXPn3mHuMMy9M54FZ845u5+1/7322nuvva/PWZBYZHGgj3DAt498h/UZFgeUAxagLSD0KQ5YgO5T1Wl9jAVoCwN9igMWoPtUdVofYwHawkCf4oB/n/qa83yMzk86zFLa3MwRbbOY7d3NYZw/22I69zNcfYwHN+8+Poxp5HAuFXVuk5aPtHdrE6BPv/RaQJ850yLVtfVSUVUnzc1npK6+Ec+10tDQJI1NzVJRWQe3BmlGuNq6RqlBWIYrK69GhfpIYUklKt5HmE5JeZU+1yNuFdKDN9JukHqkaaZauNHdGRFEDTX10tLY5Mzb5obGFBoTKS0OjcocIcDfT2Kiw8QcxM/XB2794HZW3aOjwoTh+B4fEyGBgf4SHRmqfqHBgRIWFix+fkgH4SLCQzRcv3CbWz99F4mLDpfgoACJjAiTIMQPDPAXX+TT28nHGxdWauuaZMPWg1JTVy+VANjRk3lSUlolmdnFkp1fIi0AIUFxprlFmgDSlhY8t+AZQG7Bne8NTXA/c8YOJBtAIOEMIWdzUBDY/jDoOX+n602MY8R3VvOtaTrzsrudT3wSU07C2CR0ayomfx8DhIabYvKclPb1t8msQH9fbbTaEJBMYGAAQO9jB7Kvr6/0Cw3WhpOWGifhaBRsDBmDk2VURn9hQxmBu7dTjwCa4Kii9ALQqmvqpLGxWbJyS+TIV7ly4NhpSNAG+XLvCdm757gAmVqhPn5Q743KYaWxwnDpDdLHFw+snIAA27MvwhtSxg+VQwAEBfnrPQKVExkeKgGBfpKYEK0Sa2D/WG0UTCNF3URCQwIlFpKLmI2KCBdKNTOxgiMjQp2CGrJTAWAO7+yZPQrL7ooa0UDzC8rEDlQEZMM9XVCi38LvKiiqUB4yTHZuMXqiJiksrlD/6uo6Ka+o0Yaej16IvRKJd9YDBQBzb0AdsHdqYsOHEGhG3bQ0N5sauK3xnoX7WfiTzqIcEfFRCvbxY9Okf1KMjBiSLCOG9pdhg5NQF/7geYCEBAVqr0HJ39N0UQBdAOYePp4rW/55VE7lFElVdb2cOFUgrKyTWQVSgQoB922AJbPIOzBbpRCAGRQWAuBFysCUOAkJDpD+ybES2S9UEuIiJCE2UsJCA7VLDQ8Lkgi4E5QhkCAMQ4YGBgSIP9Kh/9edbD2NDwRJvTShxyLgieiS0mqhilVRVQM1rVl7t0L0glXVtZJfWCnFpZWqguTklUL4FGsDyj1dLGeghmljM3oqCh7WHSU81KIYCISkuEhVdwYOiFew0+3qmWMlPjbioldHtwA6HwD9eM1O2bTtkLy3cqsCk4ykWoD/Nmp9oDtbfWr/OImNCpd5s8cpQKdNHIEWH40uLkklOSMZ3awh0Iz31hSt20XigK0R2BJntbH34X/yP7egVPYdzgboyyULAF+7eb+UlFXJsRN5DKAXewAlvBt1xk42FoAfOyJVrpo1Vm699nJJS403QnbbvUuArsEga/P2Q3LoWK68veIL2YFnfIntG9Bio2L6STxaaRSlanykDEZLvWRMGiRoiEyfNFwS4WdR3+IAB+IcfJ9AD0xVklJ949bDUtfQCHWoUk7nlUh1Za2chZpDFYb3mKRYufnaiXLbDVNUTx8IIXeh5Dag//LJVvnJc2+jdWJwhhE9C8Z7+oiBsvj2K+S6Ky6V8NAg6QfwhoZAJYDeadHXkwOU9NTVK1Wvr5a8gnJZvXGv7D6QKZ+u3SnowsUHercfLo5pHrzrKnns/uu1Vzd6ZXc55xagn/vDCnnyl++IL3RWjnrHjx4kC+ZPlkfuvcbdfK3wX3MOUJpTPf3vF1dKXmEZQI9pVUwOXHf1ZfLxqz/sMnc6Deg86EwjZz8mtRgU/Ojhm+UbAPK4kQO7nLEV0eKAwQGqKavW7ZGf/uZ9KYda8vrvlso3b5xqeLt17/TSdyPUiiqMfKkpn8wsgnJvgdktTluBXXIgfWCiLoDVYCaG+nUupi27Su5PFEK5+fN7GzAY3Cx3Lpwli26aCv0nTjLSksUfk/cWWRzoDAcI2mysRXAB7ZnffiDVFdXijzHXhZLbgKaiP3P6aNm4fo+8/s56eeO9jRKD5dfRwwbIAEy0T5k0TK6/Yrwq+RdaOCt+3+FASVm1bN99TGc+vsD6RD7WKriAVANzBU4JRgBDXDug+cKFkPuAxqzGuneflvVbDsqzz38gW788ppP2/0Ah2V289eFmeQQrSgkJUTrTcRUm1K+/coIkYvpuJFaUOHrlMivtE3jvC/YDF1IBvT0uBdwZrjKi7rkSzBVJzmys2bRXduw+rvjYgRXgszRD8MEKLuqdizABAK8/JhfGXzJEvole/gcP3ihTbnxSdu47eUEscRvQRm5zpo4SXkVYXdq+65h8hZXAL/eexLJsuew+mCmF+aVScLpFvjqUJS/8caWuBPpjCi8FiyfJWGpOScQFiZ6SGIXVvwiJioQhDeatOUedBPD7YyonBm4WeQcHjmdipRdA5eriV6fypRRGXlUwY8jFVFxefpnko95Ly2tkP8HL6TgOtriawlEXwB6Bek0flKgrh8OxXD4SdiFTJmRIakqs/QPNCzp2RzcfugxoI594LKJQApPUNgAtlB99Agzg/OPaTftkFdQTWrflwC0nq0hO5xTrx+oqEr7cF7YZbLF+2mrZcmmDIZDivpKKZW8ufyfChmDggDi1txgzPFWGpadAGrTIILjRqswi9zlAAHI1d9+hTLVGPAnjr1JYHh7GghmtE/cfyVGjLxp+NWJ5nIBjeEpg2oQoAPGuth4Asb4DxH6w4Zg1YwzsYUJlyvgMWXTzNAmDfkzbDlr4UTJfLLpgQJsLRkDyYqEnjB2sXpTiP//hIn2mKedRLJEeO5ErR/Ser+9VAH4NpgNpRUczUBorsfvivQBLrdSxSGz54JqNcXxWRxtDQ6JhRglDJUr5MNhwsOUzP9qD2CzHgqHXx2u6FBqpyTFogGda3VrUBsSWIGWKzbAJWbXS2Tb+hqv5rsZS6FU6Sw0dmZkiEdpXGITiKoAILD430qAIhWOep2F9yHIWt9pmUGpWQg+l5WEBVuhIOegti6Czkh80j82B9SLJWJY2JKndIIpqASVK650Ch0ZZFDD+eE5G7xoMaz0ahg1NS4JwSZIhkL5JcJ87bbSm7ak/na+BbighlX6aIvIyEyuqDNKiGQCrwDxkKazFKO1pNXYalUGJcBwqDUGg0h/zljkYIbPxFBRWSHVxudRBssDsBoZP5fjrI0f2n7JlwYohCvhH74Zz6wtvAIR5hM3KVMMme5s5K+FQlzrqEjkW4MqovQ3YsnH6l1nWwK7aVXrMn1NYZiIPuLxMv2YsJ6tUZAAjQySqDd7uBg/Dr7Vl2m50R2MAIENggchyDx6UIMFYKEvBuIcCgTYWFEpD0xLV8CsIYQlWGoFRaCQnxuhqsLl83vLco4B29dFs+XFQXUhJUC26QlRpOFdeVlGrqg5VHlYAdT9dekVDOYlnViDrOROqD7u+E9mFKumMujfy5kqWmbig1KZFmD312TGFdgGcOLQ2qnY+rZaHDu5swKSg1uktSumB6IkoqdmjEZg04I+G0Re/ncZebDRpqQk6ZqEqx40AnJHqq+QVgO4O5nJgSRoAnZs0feIwvXf2D3sEA5IcsRdjsEtpSOKdg13j3VmajE+rs9YozoLY3QhEmsG6So8gTHAw4KLaRHMD+l1MHdReyF760GcAfaH8N6SfpgNJyFkYM3HmxSLv54C1tOf9dWSV0A0OWIB2g1lWUO/ngAVo768jq4RucMACtBvMsoJ6PwcsQHt/HVkldIMDFqDdYJYV1Ps5YAHa++vIKqEbHLAA7QazrKDezwEL0N5fR1YJ3eCABWg3mGUF9X4OeHTp+8CBA/LKK6/osV7ez6qLV8IAHF324IMPyoABfddo6OJxr23KHgU0i0IDHVdGOm2L2vfebIZG/nLvvfdaYO6m6vU4oLvpO3plMoGBgQrm9PT0Xll+byy0BWgP1Qp3y9x4443iCOaGhgbJzsqWU5mZUo/zsRMSEyU1dYAkJibopmLH4paXl0t+foFkZWbBHrxREpNs4ePjE3QDhDl8Ts5pKSkpkdGjR+k2N7Of+bmoqEhycnJlxIjhEhLS9khhczhvfPY4oNnt8vo6Eb/3tttuk8svv7zNZ9P9d799XnJz8+w8oRslOUF47+J72oRf9/l62bhxkxQVFdvGITDf5ja24KAguXTCpbJw4a3YOnburIvly9+UzFOnZPr0aXL3PXe2Sct4qUMj+p/f/y+2vhXKQw99V8ZdMtbw6hV3jwO6V3CpGwvJ8cKcOXNk0qRJ7VJ97pf/JYWFhdh90iIPfHcJpGOIbN2yTfbu3Sd79uyVP774kroz4po1n8uKD1dg/2SYZAzLkLlz52AzcYjs3rNHdu3cjRNh/yl5aBiP/+AxBlfi5gOmeeDAQTkFYKelpbX6nLt98NcPpaKiEluygrUc53x6x5NHAU3pw8sgPjfjFPm4uDjp378/9vGFq4Rh98yuuKamBpKjABKpqHXnhu2EfiM+7wRDUlKShIbyN0fOpU2/nJwcTd8YhNKf0i85OdnlwJR5M9+Kigr85kq9SkL+fklXqKmpSaZOnSrXXXddu+i5ublSW1srERER8tj3H8XdtiVtyJB0uapgrqz9bJ0svO1Wjbdt23b56/t/lcjISJk9e6ZcN/9ae3pDM4bIrFkz5aWXXgZoM+WNN/4sd975bbs/H6iarFq1Wh54YEkbNaa4uFiOHj2mvHDkXZsEvPjFo4AmX8g4XraDSlpkyZIlMmjQIJUkPIjGTAQXQcVr+/btkFJrtELM4ZjWfffdp4A2xyUIOUV46NChNtOE0dHRsnjx4jZu5ngsF/MlCAi4Tz/9VHbu3NkufXMcZ88EM1UMqhrOCXsdUfaqqipteKNGjbQHS4Qe/e07btd3NuwtX2xV/sybd6VcedVcezjjISEhHoPNe1R12Ltnn5yYdhK6+mD1Jh+4r/LY0a8kJ/u0DByUakSTzZu3CHVy7j2kYOmN1BYxHvoCgoaDo1//+tcyatQo7UbNIDWKxcpgFxsbG6tS7plnntF3xjcaBeNTylHymi/GHT3atsWeYY3wlNbmcI7P7HqZJ4HPXoPgf+qpp/TdyNdIz9Wd4UaOHNkBmAWDvwQcqRalDfuPL/wfGt9rcvjwESkrK9PGZPCA+jIHgZTOEyddZji3uycnJ8nw4RkKzAP7D5r8fTDYG4FjDprkwxUr7O7l5ZWyZvUa5QX1de6R7I3kcUATBBy43H333W7z7+jRo6oOGCoE72PGjGnTjZoTHTJkiEo25kkyAGgO05lnSsyHHnpIpbqRlpGeY3xKdi6Y8Pso+VwRz7u46647Uf7ReubGzi93yh/+5wV55uf/oeDetWu3Rq2r5Y8u4XdO8K0EdUcUEoIfOALV1p07L66pqVFuvOkGxI1QKb0dujbptdeWa/mmT5/a2lu1Vdc0UC/443FAV1dXy9KlS1VfdodflDCbNm1qo++xYQwdOtRlMoZuzgAEorNewGVkB4+oqCh54oknVLc3vIyGZbwzD0r1hx9+WAdZhrure1x8nCy+7zvy9LKfyLXXXiORyMMPjeDI4aPyp5dewa+E7ZNAnJfBcjMvqkIdUXOz7TcTHb+TPcYNN8xX4K7+dLX8859f4jSr0ziLsJ/MnDWj10pn8sK1yOiIU93kR8amYaTNSnekyspK2bdvn3CgQslGNSI+Ph5zsqmqAhw8eFD1YY7aSdT5mBaB5opYsVRJjh07pqAgIMwS1ohHt5MnT9r1SaobzNeRmNewYcMw+DrVpmERbPw2+lOf70gyO6bJuGx41wNwvDhv/N57H8ihg4cgRV9XsJMXdXV1kom5asd5bCM9nlFSWFik38lBr5nweTJm7BhJWLsO6ZdigPmBNo5Ro0dC7YkxB+11zx4H9MCBzg9Of/vttxXQBhgIMj6zm6UOSHXDmGOlHwFNHdlRGjnWyLhx42TlypVagY4S1QjL9DZs2CC7d+/W9KhXz5w5E1LtBiOI/Z6SkqKAZhyD2FCoez/yyCOqaxvu57tvwRTd+PGXtJHmHC/cffcdsuypn+IMQPxUXXi4pKQk69Tby396VX7xzM+cJvv52s9RrkyVwpdf3n6KkOOCaVAvPv7ob2gctoPGFyy42WlavcnR4yoHK94ZUe8kgAk6gpSDOoKGo/AvvvhCSktL7VKR7tQrp0+f3iYpupuBRk9D2rIBOPqZIzNP5s871ZvNmzfr1J05DJ8pLR0bBnsNqhnMq7O0E3PH7737V/nVf/4aCyu5qsowX85qbN++A0egUW+28YEzHgRkTU2tPPvMczqOoERmeN7ffPMt+eSTv2mjXbr0QQz0ApwWY86c2RhTBGlvcjPAbPR2TgP3EkePSmjyiFNhzmj+/PnazRNItMojUVKSCCAzGFmRs2bNwuGBbSuOXTKB66hXX3rppUKV5XwV6JgH9X3zQIzlIOgZzrjodscddzhVo7TwLv4kJydi9iYGMxj58sv/+JV+e79+4ZKXl68rgWfPtsiddy3R2Jxjf/Rf/0Ve+r+XNfyTP1kmgwenQb8O1Kk4lpNhvrnoNhmcnqZx+IfHhYF7uM71JkvuXyyvvLwc/JvBIEo8N8+Rx4aft989KqEp/Qg6VzR27FhM/j8gzz33nBDgBC67czLbTATVnDlzzE76fOLECVlhmpoyAkyZMsWtCiNYqd446ud0Z4MxiO/333+/fXrQcO/MnXruD//t+7IIIKT05fTcKejmbPBJsM/4tyd+oMvfRlpxcbHy/ccflWuumafHEZ8+fVpOncxU3Xr48GHyxI9+IBMnTjCC6z06OhLz3JUA+7mf2kvDuOPJp37UOrNhC57SP1nnwzkT0tvIoxKawMzKylJdlVLTGRlzzwQ0r40bN2r3zxVDQw3hYNEsOZkOB2XZ2dmaPhdizKoNG8C0adNkx44dbSS9OX82HIKVeVCtuPrqqxVo5jB85uDVkM633nqrzjc7hunsO8s1fcY0vVhmgpm9iKuehD0SVwl5lZdXoME36hw9BYUzovohS9v7OPZs1153jfDqjeRRQJNhrKw333xT9U2uEJ6PqFpMnDhRV+xWr16tQOUsiWOlcxaAUouVyxkLLmwYxIZE6c8VP2dEfy5Pz5gxQwHNWQfHBmPEY6OhnnvzzTer2mO4X+idDdDcCM+XXlRUx3PS54vfV/ydN+Ue/jpKwhdffFHtNCjtzkfUDxcsWKAzD5TE1JEpSc3E6S6usjE9gs4xXTYCpuOMCGiqAJyS42KMKzDTpoT6/RVXXKES3FlallvPcsArAM1PpgHQ008/LcuXL8eS7+FOcWHevHk6KHNmuUb9mVKaQKakJvDNxPnWhISEdu7mMB09s7Fw6X327Nkw01zYUVDLrwc54FGVg2AzLkpFqg1UA7igQr1u8uTJ2pXTzxlRd6akNmY/zGHWrVunr9SFuZDCaT2zWkJVhGoIjZzcJTaU559/Hkb3ibBkc25X7G6aVvju4YBHAe3sEwheqiC8PvvsM5g5rlKTS0pBjv4diXquM3r00Udl//79apk3fPhwp/oo9fGtW7c6i253Y4NjoyCIOR22B/bGH330kTYGLpzQ31WDsydiPfQYB7wC0AQFiYMrY/WPIOGon9e2bdtUPXBmR+yKU1zU4OpeR8S82AtwOtCsg7M8HHAeP35cwUrpTrNO6sx85urgd77zHU3aAnNHHO55P68ANEFBO2FjxoPSmWQAnaB2NTC7UJY5m79mvtS7jxw5Yk+eZaQ7l6J//OMft2kA9kAX+EA9nztWHBuJny9+hQqzGI7Ta5zWY0Mzk59fAKYZ8RsrUNkc06FtR3h4mH0wbOTH+fXzzahwmjQ8LFzCEN+bySsATelIOwwydsKECapHc1GBc7H044wEJenFIGf6t7N8CGYOJL/3ve9dFDAzz1WrVsuHH6xQcJntkbHijZ9U85N5V18lNOpnz0IwvvPOu7rdinHNg16qSBkZQ+VqLLrQHJXEDbL/vuxnusng/gcWK9g/+2ytLrdTJfvXx/5Fpzg1sMOf1bCT/mjFJzISmw6++90l2ms6BPGaV48Dmrrp9ddf32YVjqDm1RViZZrVh66k4SwOJR5XATkQvVhkDFy5BJ6RkaHZcPCaX5Avx786IZ+tWQs9vkpuv32R9hb+fjaVjEveQ4ak68+68fu5+koAv/rKcll0+23YvzhRxwBc+WtqtpmUMvHmpmaV1tlY3NqyZatunnX8Ns7mbFi/SQfegeCBueE4hvWGd48CmsyhruuObtwR0yhFX3vtNdm1a5du46KuSyCyu6TE56zE448/3q4rdpUm0+NF4k4VZ2auruJ21Z35TZ02VSWxOY1Vf/8UW87WYuNrvk5xGioCAbzomwtl/ITx5uBY8v8Y+xA/l3f/8r4CGhqTS+IPa777znuQ3pPaqTWbNm7WFUtH9cVlYh728Pg8NM0huc/PHaIE4pKzI1HC0VKNzCeAadi0fv16ndemHy30eLlDBA6P6aIddU9RC0DqSFQhKK0did/KQa0jXXnlXNX32VtRWtuMkhxD2d6ZLkHNHd9mos79OY5KMBq12c9bn9tzqAdLSkZyEPTCCy/Is88+qwOxjrKnRH/33Xfl9ddfV/sKx7DcDGCYlbIiKZ15Zz6seDYCDvbORwzLi9KPvYexF/F88brLn2rY4UNH9Dp65Cga5Qbw6I9aHg7KnE1fOubdhAbMRszvD4JK0hFxlzzD8XgDnsdh0KuvLsePevqqHt5bQO1RlcNgHO95eXmybNky1emoP9LwnxVHYLGCufLHWQeCmkvWnGngM/1JZDgBaMyQqCP+0J9+vAhsqiQEOonvjMMwfDbC8Z0D0ltuuQXnXczVsD31h3lv2rRZ1q3boFnyHQXTrVgs6wMPLGlXFIKwuLhEv4XfwPnyDes3qsFSWtog1ftpvOSKxowdDR4IDLmydUf5LQtuArgPSRl6s9CwUElu3VDgKr43uXsFoFkJrDjDtoK7URyXvwk4ShFe7GIpfRxJK9/BkWkbRH9Xcc1h2FC4rM7LEzR69CjYkqTYsz5zphmDtm2qy7711jtYav8GGqCtIZMv6wFeY7MrI1EA8Du58/uhpQ/Y03H1wPl/nqS07Omf60lMtPjbvPkfSKcehmCXYTzifFeRq/Q86e4VgHZkAIFH4HZEzsDbUXizX0dxCebLLrtMl9zNcXrqmQ2Qg89rrr26TZZzcf7GT5f9XE9EmjlzhoLVCMCejFN5BCalM9OYMnWy3HrrLepuhHN15zdz9mbu3NkA8hd6ngfVM/ZknCU5dKhztjWu0u9Jd4/q0D35oZ3Ji4CgaSqPt/UknetTzpUiFHYunM5rwhYrGnIZRDDOhz00Dfp59h2BTak9fvylnQKzkQ4bwazZs3RsQjBTwt900w0KanMvZ4T31rsFaFPNcJPBXXfdZXLxzKOzHoRn21EP5kZZgtZMVD/Yow0enKaLLwQ5Zyy4/9Id4olLQ4cOUQnPE085f93byCtVjp5mIgeSaWlpcs8995xX1bmYZaO6TzBv27odZ3DstWdFaZmdnaNA5rEFnE8nYahru5tE+ty5c+QgBnQch/wdc9ff+tYiDcPQSsyklUyPhpN8Y+ECWDsekMsnXy7BIbYNzHYJfS6qPby3PXgU0AQSu09/f88Vg5XFYxE412wMSj1VSVE4ooE6MHdu2wHYWhjqyVOnTdEFlxAAjVKYGKUtRwxUETMtvu8e+f3zf5C//22VSllKXZoVlJaWybhx4fag3ITL/Mzz3sznew8/2EZHj8HiF3eYN2Nwer6xjT1xDz34oEI71e4yc4ok/bKHxBdzmk1Zf/ZQca1s+zIHJt/wE9m1/5T855N3yKNL5nfpUy0duktssyJ5KwcsQHtrzVjl6hIHLEB3iW1WJG/lgAVob60Zq1xd4oAF6C6xzYrkrRywAO2tNWOVq0scsADdJbZZkbyVAxagvbVmrHJ1iQMWoLvENiuSt3LAArS31oxVri5xwAJ0l9hmRfJWDnQa0GrxoSfAd8r0w1u/1yqXF3PAMJvtpHmR0y/pNKBDQ4MkJS1JfGA8vnLtThiAt9+Z7DQHy9HiwHk4UN/QJF+dypeSclpe+klinOtfMjtPUtJpazsC+KEf/0lee+tz8UGmc2eMkflXXCozJ4+U8WPSzpeP5W9xoB0H9h3Kki++PCYrPt0hqz/fzeOfYN46RLZ98gvslOl4C167xFodOg1ohi9FC/rNSyvl2efeEb+wYD3LIcDfV9JTE2RERn/51i3TZcak4RIXY/vhdVeZWu5fTw5QEn+85kvZsfu4vLXiH1JVXS+NOL2Jx56dqW+UhQtmyJ9//4h9A3BXuOQWoI0Mikqr5I33N8r7K7dLTn4pfoW0SI+hOtsMNQTKdvrwVEmIi5SF10+WIYMSJT42QmKjwyWiX4hE9guTkGDbMQJGeta9b3CguqYePz/XJJVVtUKMVFXXye6Dp2TPgSz5bNM+Kcgq0N6dZyb4YCtZaHiopKXGy4Sx6fLDpTfKKAhFjtBs+9m7xpMuAdrIii0rO7dYtu06Llt2HpPdMM7euH63biPC6YJ69+VP+WK/mx3Q+IjwsCBJTYqVIemJ0g/v6fiocSNxfkRchIQGd3woipG3dfcMB1jn1bUNsv9IthQUlcvxzALZArWhtq5BSgDi+oZmqayutT0jHCSdnD0DmEKdOItzRYZDpZg3a6xcd8Ul6MkjVeDFRHXfiaYXBGhnLC0orpC8gnLZvOOIrN6wW46cyJfikkpbt8KuBR92hrMlkOT20SyfW918A/wlHipLOiR7/+RYSUmMkjEjIPFjI2UwgM8WrTMuaMa+bOn269w7mzh8KAhsjctZQb8mbgaPyTPuQSSfW5SBWgW6lYuvrBdK1yLU3/HMQsnJK9GrDm57DuDn4uobsNfxsPgaui025uqsRCv/yXE/v9YfSYUfd54HYKw15bIMmTZpmFwzc5wMG5IiYZhcuJjU7YB2VlgC+OjxXMmCNM/OLZVcqCn5RRVSiBZOhh3DCLca+lR5Za00VFQThUhGa6BdcqyggH6hEgjgR0aESkxUOE7G9Jfw0GBVbUIg4YNxkZkR4cESi8YRjF9SDUFP4Ydeox/UHlJ0ZJhWrB8YH4n0kBvS9LMxHC9MI9h0hBb9mUYw1SW+OCGWjXl0RLoXkC3OBRFYlVV1bRqiulXWtAII+wjBq2YIB7KpvKJG9VB29wRVA/hJYJaCj9wNXgypSeCVldfi5NFmhK+WkjIbj6kasB4aoL+WFZS5KJEma/PDd/ujRw0Cv/unxEgU+EbVMpFXfASET4ykJEVL2oB4SUqIUnfXiV4cnx4BtLOis/KboHNTYtQ3YmBAyY1Kqq2tl8KSajmZlQ8JUSp5AP3BozmQ8lVyCrp6MRqFj3EIDWuU/7UBIBdUIB2MV33Ai/6jRIGvPwBHPPJukAFCpmOcSKTP9oRsIX0oeRzcjDSMu5GW8W6+M38CsSNi2cgHhjWIbi2M1+rIZ7qRGJa81F4P7/y1WEpgW8OBA56VWu8MiwDnnPhu+KEOwqL6yehhAyQlORrgjEEjDpRx6CFDQwJl1pRRmjZ5QCFCYcBpNgoPg2+2zDz312OAvpBPbsQUoq17LJdsgL6OEgYSLPt0iQ5EqiCtKKkoiXJyceYbKopAYmVyVE1qRCMisfLpRqwQFM0c2PIZd4LFTEyjycHN7K+AxZEDLgnY8XPxu9tGHIKFEtAAmbq3AsgIwykthiMs2fuQ/Fvd/AEyPwAsGL0JQT0AahtBngzVjW6J8ZEKVEbmbFRGWiJO9Q/BuCZEwgDa3k69EtBdYTqFEIFdh8ELRV1Vja1bJ8g5oCERsGwoJALecfGoEWA1GoQGavfHR2rQw7gi5hWO6c6OiJIulOdhEK2txBP8w/Aj8+qEP5SWDMf3cNVJ8QtiUJHYO1BaUh3zFolpfENP3b82gO4phlr5eJYD5xRJz5bDyt3iQLdwwAJ0t7DRSsRbOGAB2ltqwipHt3DAAnS3sNFKxFs4YAHaW2rCKke3cMACdLew0UrEWzjw/0Kphoq4cTgXAAAAAElFTkSuQmCC;" parent="675HwpJTXZrzleELEa9g-5" vertex="1">
          <mxGeometry x="16.729999999999997" y="355" width="86.54" height="50" as="geometry" />
        </mxCell>
        <mxCell id="675HwpJTXZrzleELEa9g-14" value="" style="rounded=0;whiteSpace=wrap;html=1;fontSize=11;fontColor=#0000FF;fillColor=none;strokeWidth=2;strokeColor=#8F8F8F;" parent="675HwpJTXZrzleELEa9g-5" vertex="1">
          <mxGeometry x="5.05" y="300" width="110.95" height="105" as="geometry" />
        </mxCell>
        <mxCell id="675HwpJTXZrzleELEa9g-159" value="LEGACY-1" style="rounded=1;whiteSpace=wrap;html=1;" parent="675HwpJTXZrzleELEa9g-5" vertex="1">
          <mxGeometry x="11.04" y="6.61" width="85.97" height="20" as="geometry" />
        </mxCell>
        <mxCell id="675HwpJTXZrzleELEa9g-162" value="LEGACY-4" style="rounded=1;whiteSpace=wrap;html=1;" parent="675HwpJTXZrzleELEa9g-5" vertex="1">
          <mxGeometry x="11.039999999999992" y="96.61000000000001" width="85.97" height="20" as="geometry" />
        </mxCell>
        <mxCell id="675HwpJTXZrzleELEa9g-161" value="LEGACY-3" style="rounded=1;whiteSpace=wrap;html=1;" parent="675HwpJTXZrzleELEa9g-5" vertex="1">
          <mxGeometry x="11.039999999999992" y="66.61000000000001" width="85.97" height="20" as="geometry" />
        </mxCell>
        <mxCell id="675HwpJTXZrzleELEa9g-160" value="LEGACY-2" style="rounded=1;whiteSpace=wrap;html=1;" parent="675HwpJTXZrzleELEa9g-5" vertex="1">
          <mxGeometry x="11.039999999999992" y="36.610000000000014" width="85.97" height="20" as="geometry" />
        </mxCell>
        <mxCell id="675HwpJTXZrzleELEa9g-16" value="" style="rounded=0;whiteSpace=wrap;html=1;fontSize=11;fontColor=#0000FF;fillColor=none;strokeWidth=2;strokeColor=#8F8F8F;" parent="675HwpJTXZrzleELEa9g-5" vertex="1">
          <mxGeometry x="4.530000000000001" width="110.95" height="133" as="geometry" />
        </mxCell>
        <mxCell id="92HVsU2Kanfxvoh4dXFT-12" value="" style="group" vertex="1" connectable="0" parent="675HwpJTXZrzleELEa9g-5">
          <mxGeometry x="8.049999999999898" y="156.60999999999999" width="102.98999999999998" height="110.38000000000002" as="geometry" />
        </mxCell>
        <mxCell id="92HVsU2Kanfxvoh4dXFT-8" value="Oracle Hyperion" style="rounded=0;whiteSpace=wrap;html=1;fontSize=11;fillColor=#ffcd28;strokeColor=#d79b00;gradientColor=#ffa500;" vertex="1" parent="92HVsU2Kanfxvoh4dXFT-12">
          <mxGeometry y="90" width="100" height="20.38" as="geometry" />
        </mxCell>
        <mxCell id="92HVsU2Kanfxvoh4dXFT-9" value="Microsoft Dynamics" style="rounded=0;whiteSpace=wrap;html=1;fontSize=11;fillColor=#fad7ac;strokeColor=#b46504;" vertex="1" parent="92HVsU2Kanfxvoh4dXFT-12">
          <mxGeometry x="1.9499999999999886" y="60" width="100" height="20.38" as="geometry" />
        </mxCell>
        <mxCell id="92HVsU2Kanfxvoh4dXFT-10" value="Workday" style="rounded=0;whiteSpace=wrap;html=1;fontSize=11;fillColor=#fad9d5;strokeColor=#ae4132;" vertex="1" parent="92HVsU2Kanfxvoh4dXFT-12">
          <mxGeometry x="2.9899999999999807" y="30" width="100" height="20.38" as="geometry" />
        </mxCell>
        <mxCell id="92HVsU2Kanfxvoh4dXFT-11" value="Salesforce" style="rounded=0;whiteSpace=wrap;html=1;fontSize=11;fillColor=#f8cecc;strokeColor=#b85450;gradientColor=#ea6b66;" vertex="1" parent="92HVsU2Kanfxvoh4dXFT-12">
          <mxGeometry x="1.9499999999999886" width="100" height="20.38" as="geometry" />
        </mxCell>
        <mxCell id="675HwpJTXZrzleELEa9g-17" value="" style="group" parent="1" vertex="1" connectable="0">
          <mxGeometry x="346.06" y="-192.72000000000003" width="318" height="466.72" as="geometry" />
        </mxCell>
        <mxCell id="675HwpJTXZrzleELEa9g-18" value="" style="rounded=0;whiteSpace=wrap;html=1;" parent="675HwpJTXZrzleELEa9g-17" vertex="1">
          <mxGeometry y="-30" width="120" height="370" as="geometry" />
        </mxCell>
        <mxCell id="675HwpJTXZrzleELEa9g-19" value="Source integration" style="text;html=1;strokeColor=#6c8ebf;fillColor=#dae8fc;align=center;verticalAlign=middle;whiteSpace=wrap;rounded=0;" parent="675HwpJTXZrzleELEa9g-17" vertex="1">
          <mxGeometry y="-70" width="120" height="40" as="geometry" />
        </mxCell>
        <mxCell id="675HwpJTXZrzleELEa9g-20" value="INFA PC" style="rounded=0;whiteSpace=wrap;html=1;" parent="675HwpJTXZrzleELEa9g-17" vertex="1">
          <mxGeometry x="50" y="271" width="60" height="20" as="geometry" />
        </mxCell>
        <mxCell id="675HwpJTXZrzleELEa9g-21" value="IDQ" style="rounded=0;whiteSpace=wrap;html=1;" parent="675HwpJTXZrzleELEa9g-17" vertex="1">
          <mxGeometry x="50" y="240" width="60" height="20" as="geometry" />
        </mxCell>
        <mxCell id="675HwpJTXZrzleELEa9g-22" value="DQ Servcie API" style="rounded=0;whiteSpace=wrap;html=1;fontSize=11;" parent="675HwpJTXZrzleELEa9g-17" vertex="1">
          <mxGeometry x="50" y="39" width="60" height="51" as="geometry" />
        </mxCell>
        <mxCell id="675HwpJTXZrzleELEa9g-24" value="Real time (Req/Res)&lt;br&gt;Data Load" style="rounded=0;whiteSpace=wrap;html=1;rotation=-90;" parent="675HwpJTXZrzleELEa9g-17" vertex="1">
          <mxGeometry x="-52.5" y="57.5" width="155" height="40" as="geometry" />
        </mxCell>
        <mxCell id="675HwpJTXZrzleELEa9g-25" value="INFA PC" style="rounded=0;whiteSpace=wrap;html=1;" parent="675HwpJTXZrzleELEa9g-17" vertex="1">
          <mxGeometry x="10" y="180" width="90" height="20" as="geometry" />
        </mxCell>
        <mxCell id="92HVsU2Kanfxvoh4dXFT-6" value="MuleSoft" style="rounded=0;whiteSpace=wrap;html=1;fontSize=11;fillColor=#e1d5e7;strokeColor=#9673a6;" vertex="1" parent="675HwpJTXZrzleELEa9g-17">
          <mxGeometry x="50" y="97.5" width="60" height="20.38" as="geometry" />
        </mxCell>
        <mxCell id="675HwpJTXZrzleELEa9g-27" value="Data Services Batch" style="rounded=0;whiteSpace=wrap;html=1;rotation=-90;" parent="1" vertex="1">
          <mxGeometry x="333.06" y="67.27999999999997" width="80" height="30" as="geometry" />
        </mxCell>
        <mxCell id="675HwpJTXZrzleELEa9g-28" value="" style="group" parent="1" vertex="1" connectable="0">
          <mxGeometry x="507.06" y="-192.72000000000003" width="120" height="360" as="geometry" />
        </mxCell>
        <mxCell id="675HwpJTXZrzleELEa9g-29" value="" style="rounded=0;whiteSpace=wrap;html=1;" parent="675HwpJTXZrzleELEa9g-28" vertex="1">
          <mxGeometry width="120" height="290" as="geometry" />
        </mxCell>
        <mxCell id="675HwpJTXZrzleELEa9g-30" value="DATA Quality (IDQ)" style="text;html=1;strokeColor=#6c8ebf;fillColor=#dae8fc;align=center;verticalAlign=middle;whiteSpace=wrap;rounded=0;" parent="675HwpJTXZrzleELEa9g-28" vertex="1">
          <mxGeometry width="120" height="30" as="geometry" />
        </mxCell>
        <mxCell id="675HwpJTXZrzleELEa9g-31" value="Transformation" style="rounded=0;whiteSpace=wrap;html=1;" parent="675HwpJTXZrzleELEa9g-28" vertex="1">
          <mxGeometry x="10" y="50" width="100" height="30" as="geometry" />
        </mxCell>
        <mxCell id="675HwpJTXZrzleELEa9g-32" value="Standardization/&lt;br&gt;D&amp;amp;B" style="rounded=0;whiteSpace=wrap;html=1;" parent="675HwpJTXZrzleELEa9g-28" vertex="1">
          <mxGeometry x="10" y="180" width="100" height="30" as="geometry" />
        </mxCell>
        <mxCell id="675HwpJTXZrzleELEa9g-33" value="Cleansing" style="rounded=0;whiteSpace=wrap;html=1;" parent="675HwpJTXZrzleELEa9g-28" vertex="1">
          <mxGeometry x="10" y="140" width="100" height="30" as="geometry" />
        </mxCell>
        <mxCell id="675HwpJTXZrzleELEa9g-34" value="Validation" style="rounded=0;whiteSpace=wrap;html=1;" parent="675HwpJTXZrzleELEa9g-28" vertex="1">
          <mxGeometry x="10" y="100" width="100" height="30" as="geometry" />
        </mxCell>
        <mxCell id="675HwpJTXZrzleELEa9g-35" value="GAAP / IFRS16 Validation" style="rounded=0;whiteSpace=wrap;html=1;" parent="675HwpJTXZrzleELEa9g-28" vertex="1">
          <mxGeometry x="10" y="226.11" width="100" height="50" as="geometry" />
        </mxCell>
        <mxCell id="675HwpJTXZrzleELEa9g-36" value="" style="html=1;shadow=0;dashed=0;align=center;verticalAlign=middle;shape=mxgraph.arrows2.twoWayArrow;dy=0.57;dx=19;sketch=0;strokeColor=#d6b656;direction=south;fillColor=#fff2cc;" parent="675HwpJTXZrzleELEa9g-28" vertex="1">
          <mxGeometry x="35" y="290" width="50" height="70" as="geometry" />
        </mxCell>
        <mxCell id="675HwpJTXZrzleELEa9g-37" value="" style="group;strokeColor=#36393d;fillColor=#cce5ff;container=0;" parent="1" vertex="1" connectable="0">
          <mxGeometry x="679.06" y="-192.72" width="310.94" height="340" as="geometry" />
        </mxCell>
        <mxCell id="675HwpJTXZrzleELEa9g-52" value="Hierarchy Management" style="rounded=0;whiteSpace=wrap;html=1;" parent="1" vertex="1">
          <mxGeometry x="690.39" y="8.279999999999973" width="140" height="30" as="geometry" />
        </mxCell>
        <mxCell id="675HwpJTXZrzleELEa9g-53" value="Trust Framework" style="rounded=0;whiteSpace=wrap;html=1;" parent="1" vertex="1">
          <mxGeometry x="840.39" y="8.279999999999973" width="140" height="30" as="geometry" />
        </mxCell>
        <mxCell id="675HwpJTXZrzleELEa9g-68" value="Data Lineage / DATA GOVERNANCE / META DATA (EDC/AXON)" style="rounded=0;whiteSpace=wrap;html=1;fillColor=#dae8fc;strokeColor=#6c8ebf;gradientColor=#7ea6e0;" parent="1" vertex="1">
          <mxGeometry x="343.06" y="167.27999999999997" width="1016.94" height="24" as="geometry" />
        </mxCell>
        <mxCell id="675HwpJTXZrzleELEa9g-69" value="Reference data (Reference 360)" style="rounded=0;whiteSpace=wrap;html=1;fillColor=#dae8fc;strokeColor=#6c8ebf;gradientColor=#7ea6e0;" parent="1" vertex="1">
          <mxGeometry x="341.09" y="261.39" width="1018.91" height="24" as="geometry" />
        </mxCell>
        <mxCell id="675HwpJTXZrzleELEa9g-70" value="Business. entity service" style="rounded=0;whiteSpace=wrap;html=1;rotation=-90;fontSize=14;" parent="1" vertex="1">
          <mxGeometry x="896.56" y="-15.220000000000027" width="285" height="30" as="geometry" />
        </mxCell>
        <mxCell id="675HwpJTXZrzleELEa9g-71" value="&lt;font color=&quot;#3333ff&quot; style=&quot;font-size: 14px&quot;&gt;2&lt;/font&gt;" style="html=1;shadow=0;dashed=0;align=center;verticalAlign=middle;shape=mxgraph.arrows2.arrow;dy=0.55;dx=29;notch=0;fillColor=#fff2cc;fontSize=14;strokeColor=#d6b656;" parent="1" vertex="1">
          <mxGeometry x="453.06" y="-27.720000000000027" width="50" height="40" as="geometry" />
        </mxCell>
        <mxCell id="675HwpJTXZrzleELEa9g-72" value="3" style="html=1;shadow=0;dashed=0;align=center;verticalAlign=middle;shape=mxgraph.arrows2.arrow;dy=0.55;dx=29;notch=0;fillColor=#fff2cc;fontSize=14;strokeColor=#d6b656;" parent="1" vertex="1">
          <mxGeometry x="623.06" y="-27.720000000000027" width="50" height="40" as="geometry" />
        </mxCell>
        <mxCell id="675HwpJTXZrzleELEa9g-73" value="4" style="html=1;shadow=0;dashed=0;align=center;verticalAlign=middle;shape=mxgraph.arrows2.arrow;dy=0.55;dx=29;notch=0;fillColor=#fff2cc;fontSize=14;strokeColor=#d6b656;" parent="1" vertex="1">
          <mxGeometry x="980.06" y="-27.720000000000027" width="50" height="40" as="geometry" />
        </mxCell>
        <mxCell id="675HwpJTXZrzleELEa9g-74" value="" style="edgeStyle=elbowEdgeStyle;elbow=horizontal;endArrow=classic;html=1;fontSize=11;entryX=0.5;entryY=0;entryDx=0;entryDy=0;fontColor=#0000FF;horizontal=1;fillColor=#fff2cc;strokeColor=#d6b656;strokeWidth=2;exitX=1;exitY=0.113;exitDx=0;exitDy=0;exitPerimeter=0;" parent="1" source="675HwpJTXZrzleELEa9g-6" target="675HwpJTXZrzleELEa9g-24" edge="1">
          <mxGeometry width="50" height="50" relative="1" as="geometry">
            <mxPoint x="320" y="-210" as="sourcePoint" />
            <mxPoint x="393.06" y="-242.72000000000003" as="targetPoint" />
            <Array as="points">
              <mxPoint x="333.06" y="-92.72000000000003" />
            </Array>
          </mxGeometry>
        </mxCell>
        <mxCell id="675HwpJTXZrzleELEa9g-75" value="&lt;font style=&quot;font-size: 14px&quot;&gt;1.1&lt;/font&gt;" style="edgeLabel;html=1;align=center;verticalAlign=middle;resizable=0;points=[];fontSize=11;fontColor=#0000FF;" parent="675HwpJTXZrzleELEa9g-74" vertex="1" connectable="0">
          <mxGeometry x="-0.0008" y="-1" relative="1" as="geometry">
            <mxPoint as="offset" />
          </mxGeometry>
        </mxCell>
        <mxCell id="675HwpJTXZrzleELEa9g-76" value="" style="edgeStyle=elbowEdgeStyle;elbow=horizontal;endArrow=classic;html=1;fontSize=11;exitX=1;exitY=0.5;exitDx=0;exitDy=0;fontColor=#0000FF;horizontal=1;fillColor=#e1d5e7;strokeColor=#9673a6;strokeWidth=2;entryX=0;entryY=0.5;entryDx=0;entryDy=0;" parent="1" source="675HwpJTXZrzleELEa9g-14" target="675HwpJTXZrzleELEa9g-25" edge="1">
          <mxGeometry width="50" height="50" relative="1" as="geometry">
            <mxPoint x="296.0650000000001" y="-25.756000000000085" as="sourcePoint" />
            <mxPoint x="403.06" y="-27.720000000000027" as="targetPoint" />
            <Array as="points" />
          </mxGeometry>
        </mxCell>
        <mxCell id="675HwpJTXZrzleELEa9g-77" value="&lt;font style=&quot;font-size: 13px&quot;&gt;1.2&lt;/font&gt;" style="edgeLabel;html=1;align=center;verticalAlign=middle;resizable=0;points=[];fontSize=11;fontColor=#0000FF;" parent="675HwpJTXZrzleELEa9g-76" vertex="1" connectable="0">
          <mxGeometry x="-0.2145" y="-1" relative="1" as="geometry">
            <mxPoint as="offset" />
          </mxGeometry>
        </mxCell>
        <mxCell id="675HwpJTXZrzleELEa9g-78" value="" style="edgeStyle=elbowEdgeStyle;elbow=horizontal;endArrow=classic;html=1;fontSize=11;exitX=1.008;exitY=0.442;exitDx=0;exitDy=0;fontColor=#0000FF;horizontal=1;fillColor=#f8cecc;strokeColor=#b85450;dashed=1;strokeWidth=2;dashPattern=1 1;entryX=0.575;entryY=0.033;entryDx=0;entryDy=0;entryPerimeter=0;exitPerimeter=0;" parent="1" source="675HwpJTXZrzleELEa9g-6" target="675HwpJTXZrzleELEa9g-27" edge="1">
          <mxGeometry width="50" height="50" relative="1" as="geometry">
            <mxPoint x="284.3600000000001" y="-186.61000000000013" as="sourcePoint" />
            <mxPoint x="363.06" y="27.279999999999973" as="targetPoint" />
            <Array as="points" />
          </mxGeometry>
        </mxCell>
        <mxCell id="675HwpJTXZrzleELEa9g-79" value="&lt;font style=&quot;font-size: 13px&quot;&gt;1.3&lt;/font&gt;" style="edgeLabel;html=1;align=center;verticalAlign=middle;resizable=0;points=[];fontSize=11;fontColor=#0000FF;" parent="675HwpJTXZrzleELEa9g-78" vertex="1" connectable="0">
          <mxGeometry x="-0.7368" y="-2" relative="1" as="geometry">
            <mxPoint x="12" y="1.01" as="offset" />
          </mxGeometry>
        </mxCell>
        <mxCell id="675HwpJTXZrzleELEa9g-80" value="" style="group" parent="1" vertex="1" connectable="0">
          <mxGeometry x="1081.06" y="-122.72000000000003" width="126.61" height="330" as="geometry" />
        </mxCell>
        <mxCell id="675HwpJTXZrzleELEa9g-81" value="" style="rounded=0;whiteSpace=wrap;html=1;" parent="675HwpJTXZrzleELEa9g-80" vertex="1">
          <mxGeometry x="0.5" y="29.12" width="120" height="170.88" as="geometry" />
        </mxCell>
        <mxCell id="675HwpJTXZrzleELEa9g-82" value="Data Distribution" style="text;html=1;strokeColor=#6c8ebf;fillColor=#dae8fc;align=center;verticalAlign=middle;whiteSpace=wrap;rounded=0;" parent="675HwpJTXZrzleELEa9g-80" vertex="1">
          <mxGeometry width="120" height="29.117647058823525" as="geometry" />
        </mxCell>
        <mxCell id="675HwpJTXZrzleELEa9g-83" value="REST" style="rounded=0;whiteSpace=wrap;html=1;fontSize=11;" parent="675HwpJTXZrzleELEa9g-80" vertex="1">
          <mxGeometry x="30" y="65.00151260504201" width="60" height="20.38235294117647" as="geometry" />
        </mxCell>
        <mxCell id="675HwpJTXZrzleELEa9g-84" value="Search Service" style="rounded=0;whiteSpace=wrap;html=1;fontSize=11;" parent="675HwpJTXZrzleELEa9g-80" vertex="1">
          <mxGeometry x="15" y="88.23680672268908" width="95" height="20.38235294117647" as="geometry" />
        </mxCell>
        <mxCell id="675HwpJTXZrzleELEa9g-85" value="Match Service" style="rounded=0;whiteSpace=wrap;html=1;fontSize=11;" parent="675HwpJTXZrzleELEa9g-80" vertex="1">
          <mxGeometry x="15" y="108.61915966386553" width="95" height="20.38235294117647" as="geometry" />
        </mxCell>
        <mxCell id="675HwpJTXZrzleELEa9g-86" value="Read Service" style="rounded=0;whiteSpace=wrap;html=1;fontSize=11;" parent="675HwpJTXZrzleELEa9g-80" vertex="1">
          <mxGeometry x="15" y="134.32907563025205" width="95" height="20.38235294117647" as="geometry" />
        </mxCell>
        <mxCell id="675HwpJTXZrzleELEa9g-87" value="Retrieve Service" style="rounded=0;whiteSpace=wrap;html=1;fontSize=11;" parent="675HwpJTXZrzleELEa9g-80" vertex="1">
          <mxGeometry x="15" y="154.71142857142857" width="95" height="20.38235294117647" as="geometry" />
        </mxCell>
        <mxCell id="675HwpJTXZrzleELEa9g-88" value="Publish Service" style="rounded=0;whiteSpace=wrap;html=1;fontSize=11;" parent="675HwpJTXZrzleELEa9g-80" vertex="1">
          <mxGeometry x="15" y="175.09378151260503" width="95" height="20.38235294117647" as="geometry" />
        </mxCell>
        <mxCell id="675HwpJTXZrzleELEa9g-89" value="" style="rounded=0;whiteSpace=wrap;html=1;fontSize=11;fontStyle=1;strokeColor=none;" parent="675HwpJTXZrzleELEa9g-80" vertex="1">
          <mxGeometry x="10" y="33" width="100" height="30" as="geometry" />
        </mxCell>
        <mxCell id="675HwpJTXZrzleELEa9g-90" value="INFA PC" style="rounded=0;whiteSpace=wrap;html=1;" parent="675HwpJTXZrzleELEa9g-80" vertex="1">
          <mxGeometry x="15" y="234.11" width="90" height="20" as="geometry" />
        </mxCell>
        <mxCell id="92HVsU2Kanfxvoh4dXFT-5" value="MuleSoft" style="rounded=0;whiteSpace=wrap;html=1;fontSize=11;fillColor=#e1d5e7;strokeColor=#9673a6;" vertex="1" parent="675HwpJTXZrzleELEa9g-80">
          <mxGeometry x="10" y="37.81" width="100" height="20.38" as="geometry" />
        </mxCell>
        <mxCell id="675HwpJTXZrzleELEa9g-91" value="5" style="html=1;shadow=0;dashed=0;align=center;verticalAlign=middle;shape=mxgraph.arrows2.arrow;dy=0.55;dx=29;notch=0;fillColor=#fff2cc;fontSize=14;strokeColor=#d6b656;" parent="1" vertex="1">
          <mxGeometry x="1053.06" y="-25.220000000000027" width="50" height="40" as="geometry" />
        </mxCell>
        <mxCell id="675HwpJTXZrzleELEa9g-92" value="6" style="html=1;shadow=0;dashed=0;align=center;verticalAlign=middle;shape=mxgraph.arrows2.arrow;dy=0.55;dx=29;notch=0;fillColor=#fff2cc;fontSize=14;strokeColor=#d6b656;" parent="1" vertex="1">
          <mxGeometry x="1193.06" y="-31.720000000000027" width="50" height="40" as="geometry" />
        </mxCell>
        <mxCell id="675HwpJTXZrzleELEa9g-164" value="" style="edgeStyle=orthogonalEdgeStyle;rounded=0;orthogonalLoop=1;jettySize=auto;html=1;" parent="1" source="675HwpJTXZrzleELEa9g-93" target="675HwpJTXZrzleELEa9g-16" edge="1">
          <mxGeometry relative="1" as="geometry" />
        </mxCell>
        <mxCell id="675HwpJTXZrzleELEa9g-93" value="Source System" style="text;html=1;strokeColor=#6c8ebf;fillColor=#dae8fc;align=center;verticalAlign=middle;whiteSpace=wrap;rounded=0;" parent="1" vertex="1">
          <mxGeometry x="193.59" y="-256.61" width="120" height="40" as="geometry" />
        </mxCell>
        <mxCell id="675HwpJTXZrzleELEa9g-95" value="&lt;span lang=&quot;EN-US&quot; style=&quot;font-size: 9pt ; line-height: 12.84000015258789px ; font-family: &amp;#34;verdana&amp;#34; , sans-serif&quot;&gt;IFRS16&lt;/span&gt;&lt;span style=&quot;font-size: medium&quot;&gt;&lt;/span&gt;" style="ellipse;shape=cloud;whiteSpace=wrap;html=1;shadow=0;sketch=1;" parent="1" vertex="1">
          <mxGeometry x="741.11" y="-281.61" width="83" height="38" as="geometry" />
        </mxCell>
        <mxCell id="675HwpJTXZrzleELEa9g-96" value="" style="html=1;shadow=0;dashed=0;align=center;verticalAlign=middle;shape=mxgraph.arrows2.twoWayArrow;dy=0.57;dx=19;sketch=0;direction=south;strokeColor=#d6b656;fillColor=#fff2cc;" parent="1" vertex="1">
          <mxGeometry x="804.06" y="-243.61" width="60" height="60" as="geometry" />
        </mxCell>
        <mxCell id="675HwpJTXZrzleELEa9g-97" value="" style="html=1;shadow=0;dashed=0;align=center;verticalAlign=middle;shape=mxgraph.arrows2.twoWayArrow;dy=0.57;dx=19;sketch=0;strokeColor=#d6b656;direction=south;fillColor=#fff2cc;" parent="1" vertex="1">
          <mxGeometry x="550" y="-256.61" width="60" height="60" as="geometry" />
        </mxCell>
        <mxCell id="675HwpJTXZrzleELEa9g-102" style="edgeStyle=orthogonalEdgeStyle;rounded=0;orthogonalLoop=1;jettySize=auto;html=1;exitX=0.25;exitY=0;exitDx=0;exitDy=0;entryX=0.25;entryY=1;entryDx=0;entryDy=0;strokeColor=#3333FF;" parent="1" target="675HwpJTXZrzleELEa9g-14" edge="1">
          <mxGeometry relative="1" as="geometry">
            <mxPoint x="226.82499999999982" y="221.27999999999975" as="sourcePoint" />
          </mxGeometry>
        </mxCell>
        <mxCell id="675HwpJTXZrzleELEa9g-104" value="" style="edgeStyle=orthogonalEdgeStyle;rounded=0;orthogonalLoop=1;jettySize=auto;html=1;strokeColor=#3333FF;" parent="1" source="675HwpJTXZrzleELEa9g-105" target="675HwpJTXZrzleELEa9g-107" edge="1">
          <mxGeometry relative="1" as="geometry" />
        </mxCell>
        <mxCell id="675HwpJTXZrzleELEa9g-105" value="Auto discover the source systems" style="rounded=0;whiteSpace=wrap;html=1;shadow=0;sketch=0;strokeColor=#660066;fillColor=none;gradientColor=none;" parent="1" vertex="1">
          <mxGeometry x="353.05999999999995" y="196.39" width="120" height="60" as="geometry" />
        </mxCell>
        <mxCell id="675HwpJTXZrzleELEa9g-106" style="edgeStyle=orthogonalEdgeStyle;rounded=0;orthogonalLoop=1;jettySize=auto;html=1;strokeColor=#3333FF;entryX=0;entryY=0.5;entryDx=0;entryDy=0;" parent="1" source="675HwpJTXZrzleELEa9g-107" target="675HwpJTXZrzleELEa9g-112" edge="1">
          <mxGeometry relative="1" as="geometry">
            <mxPoint x="710" y="226.39" as="targetPoint" />
          </mxGeometry>
        </mxCell>
        <mxCell id="675HwpJTXZrzleELEa9g-107" value="Lineage and Impact" style="whiteSpace=wrap;html=1;rounded=0;shadow=0;strokeColor=#660066;fillColor=none;sketch=0;" parent="1" vertex="1">
          <mxGeometry x="509.99999999999994" y="196.39" width="120" height="60" as="geometry" />
        </mxCell>
        <mxCell id="675HwpJTXZrzleELEa9g-108" value="" style="edgeStyle=orthogonalEdgeStyle;rounded=0;orthogonalLoop=1;jettySize=auto;html=1;" parent="1" source="675HwpJTXZrzleELEa9g-14" edge="1">
          <mxGeometry relative="1" as="geometry">
            <mxPoint x="253.69999999999982" y="221.27999999999975" as="targetPoint" />
          </mxGeometry>
        </mxCell>
        <mxCell id="675HwpJTXZrzleELEa9g-109" style="edgeStyle=orthogonalEdgeStyle;rounded=0;orthogonalLoop=1;jettySize=auto;html=1;exitX=1;exitY=0.75;exitDx=0;exitDy=0;entryX=0;entryY=0.5;entryDx=0;entryDy=0;" parent="1" source="675HwpJTXZrzleELEa9g-38" target="675HwpJTXZrzleELEa9g-90" edge="1">
          <mxGeometry relative="1" as="geometry">
            <mxPoint x="1090" y="121.38999999999999" as="targetPoint" />
            <Array as="points">
              <mxPoint x="1010" y="62.389999999999986" />
              <mxPoint x="1010" y="121.38999999999999" />
            </Array>
          </mxGeometry>
        </mxCell>
        <mxCell id="675HwpJTXZrzleELEa9g-110" style="edgeStyle=orthogonalEdgeStyle;rounded=0;orthogonalLoop=1;jettySize=auto;html=1;exitX=1;exitY=0.25;exitDx=0;exitDy=0;entryX=0.008;entryY=0.956;entryDx=0;entryDy=0;entryPerimeter=0;" parent="1" source="675HwpJTXZrzleELEa9g-90" target="675HwpJTXZrzleELEa9g-55" edge="1">
          <mxGeometry relative="1" as="geometry" />
        </mxCell>
        <mxCell id="675HwpJTXZrzleELEa9g-111" value="" style="edgeStyle=orthogonalEdgeStyle;rounded=0;orthogonalLoop=1;jettySize=auto;html=1;strokeColor=#3333FF;" parent="1" source="675HwpJTXZrzleELEa9g-112" target="675HwpJTXZrzleELEa9g-114" edge="1">
          <mxGeometry relative="1" as="geometry" />
        </mxCell>
        <mxCell id="675HwpJTXZrzleELEa9g-112" value="DB -&amp;gt; Data -&amp;gt; Table-&amp;gt; Column Relationship" style="whiteSpace=wrap;html=1;rounded=0;shadow=0;strokeColor=#660066;fillColor=none;sketch=0;" parent="1" vertex="1">
          <mxGeometry x="655" y="196.39" width="120" height="60" as="geometry" />
        </mxCell>
        <mxCell id="675HwpJTXZrzleELEa9g-113" value="" style="edgeStyle=orthogonalEdgeStyle;rounded=0;orthogonalLoop=1;jettySize=auto;html=1;strokeColor=#3333FF;" parent="1" source="675HwpJTXZrzleELEa9g-114" target="675HwpJTXZrzleELEa9g-116" edge="1">
          <mxGeometry relative="1" as="geometry" />
        </mxCell>
        <mxCell id="675HwpJTXZrzleELEa9g-114" value="Data Profiling" style="whiteSpace=wrap;html=1;rounded=0;shadow=0;strokeColor=#660066;fillColor=none;sketch=0;" parent="1" vertex="1">
          <mxGeometry x="800" y="196.39" width="115.89" height="60" as="geometry" />
        </mxCell>
        <mxCell id="675HwpJTXZrzleELEa9g-115" value="" style="edgeStyle=orthogonalEdgeStyle;rounded=0;orthogonalLoop=1;jettySize=auto;html=1;strokeColor=#3333FF;" parent="1" source="675HwpJTXZrzleELEa9g-116" target="675HwpJTXZrzleELEa9g-118" edge="1">
          <mxGeometry relative="1" as="geometry" />
        </mxCell>
        <mxCell id="675HwpJTXZrzleELEa9g-116" value="Data Quality" style="whiteSpace=wrap;html=1;rounded=0;shadow=0;strokeColor=#660066;fillColor=none;sketch=0;" parent="1" vertex="1">
          <mxGeometry x="950" y="196.39" width="120" height="60" as="geometry" />
        </mxCell>
        <mxCell id="675HwpJTXZrzleELEa9g-117" value="" style="edgeStyle=orthogonalEdgeStyle;rounded=0;orthogonalLoop=1;jettySize=auto;html=1;strokeColor=#3333FF;" parent="1" source="675HwpJTXZrzleELEa9g-118" target="675HwpJTXZrzleELEa9g-119" edge="1">
          <mxGeometry relative="1" as="geometry" />
        </mxCell>
        <mxCell id="675HwpJTXZrzleELEa9g-118" value="AXON (Surface information)" style="whiteSpace=wrap;html=1;rounded=0;shadow=0;strokeColor=#660066;fillColor=none;sketch=0;" parent="1" vertex="1">
          <mxGeometry x="1090" y="196.39" width="120" height="60" as="geometry" />
        </mxCell>
        <mxCell id="675HwpJTXZrzleELEa9g-119" value="Physical Fields&lt;br&gt;Policy&lt;br&gt;Attributes" style="whiteSpace=wrap;html=1;rounded=0;shadow=0;strokeColor=#660066;fillColor=none;sketch=0;" parent="1" vertex="1">
          <mxGeometry x="1240" y="196.39" width="120" height="60" as="geometry" />
        </mxCell>
        <mxCell id="675HwpJTXZrzleELEa9g-120" value="" style="endArrow=none;html=1;strokeColor=#3333FF;" parent="1" edge="1">
          <mxGeometry width="50" height="50" relative="1" as="geometry">
            <mxPoint x="1390" y="281.39" as="sourcePoint" />
            <mxPoint x="1390" y="-338.61" as="targetPoint" />
          </mxGeometry>
        </mxCell>
        <mxCell id="675HwpJTXZrzleELEa9g-121" value="" style="html=1;shadow=0;dashed=0;align=center;verticalAlign=middle;shape=mxgraph.arrows2.twoWayArrow;dy=0.52;dx=12;sketch=0;strokeColor=#d6b656;direction=south;fillColor=#fff2cc;" parent="1" vertex="1">
          <mxGeometry x="809.06" y="133.39" width="50" height="38" as="geometry" />
        </mxCell>
        <mxCell id="675HwpJTXZrzleELEa9g-122" value="&lt;font color=&quot;#000000&quot;&gt;Customer&lt;/font&gt;" style="pointerEvents=1;shadow=0;dashed=0;html=1;strokeColor=#6D1F00;labelPosition=center;verticalLabelPosition=bottom;verticalAlign=top;align=center;shape=mxgraph.mscae.intune.user_group;rounded=1;glass=0;sketch=0;fontSize=16;opacity=30;fillColor=#a0522d;fontColor=#ffffff;" parent="1" vertex="1">
          <mxGeometry x="363.06" y="301.39" width="50" height="37" as="geometry" />
        </mxCell>
        <mxCell id="675HwpJTXZrzleELEa9g-123" value="&lt;font color=&quot;#000000&quot;&gt;Subsidieries&lt;/font&gt;" style="pointerEvents=1;shadow=0;dashed=0;html=1;strokeColor=#B09500;labelPosition=center;verticalLabelPosition=bottom;verticalAlign=top;align=center;shape=mxgraph.mscae.intune.user_group;rounded=1;glass=0;sketch=0;fontSize=16;opacity=30;fillColor=#e3c800;fontColor=#ffffff;" parent="1" vertex="1">
          <mxGeometry x="453.06" y="301.39" width="50" height="37" as="geometry" />
        </mxCell>
        <mxCell id="675HwpJTXZrzleELEa9g-124" value="&lt;font color=&quot;#000000&quot;&gt;Sales Ops&lt;/font&gt;" style="pointerEvents=1;shadow=0;dashed=0;html=1;strokeColor=#C73500;labelPosition=center;verticalLabelPosition=bottom;verticalAlign=top;align=center;shape=mxgraph.mscae.intune.user_group;rounded=1;glass=0;sketch=0;fontSize=16;opacity=30;fillColor=#fa6800;fontColor=#ffffff;" parent="1" vertex="1">
          <mxGeometry x="550" y="301.39" width="50" height="37" as="geometry" />
        </mxCell>
        <mxCell id="675HwpJTXZrzleELEa9g-125" value="&lt;font color=&quot;#000000&quot;&gt;Partner Ops&lt;/font&gt;" style="pointerEvents=1;shadow=0;dashed=0;html=1;strokeColor=#B20000;labelPosition=center;verticalLabelPosition=bottom;verticalAlign=top;align=center;shape=mxgraph.mscae.intune.user_group;rounded=1;glass=0;sketch=0;fontSize=16;opacity=30;fillColor=#e51400;fontColor=#ffffff;" parent="1" vertex="1">
          <mxGeometry x="649.4699999999999" y="301.39" width="50" height="37" as="geometry" />
        </mxCell>
        <mxCell id="675HwpJTXZrzleELEa9g-126" value="&lt;font color=&quot;#000000&quot;&gt;Order Ops&lt;/font&gt;" style="pointerEvents=1;shadow=0;dashed=0;html=1;strokeColor=#005700;labelPosition=center;verticalLabelPosition=bottom;verticalAlign=top;align=center;shape=mxgraph.mscae.intune.user_group;rounded=1;glass=0;sketch=0;fontSize=16;opacity=30;fillColor=#008a00;fontColor=#ffffff;" parent="1" vertex="1">
          <mxGeometry x="741.11" y="301.39" width="50" height="37" as="geometry" />
        </mxCell>
        <mxCell id="675HwpJTXZrzleELEa9g-127" value="&lt;font color=&quot;#000000&quot;&gt;Fin Ops&lt;/font&gt;" style="pointerEvents=1;shadow=0;dashed=0;html=1;strokeColor=#006EAF;labelPosition=center;verticalLabelPosition=bottom;verticalAlign=top;align=center;shape=mxgraph.mscae.intune.user_group;rounded=1;glass=0;sketch=0;fontSize=16;opacity=30;fillColor=#1ba1e2;fontColor=#ffffff;" parent="1" vertex="1">
          <mxGeometry x="825" y="301.39" width="50" height="37" as="geometry" />
        </mxCell>
        <mxCell id="675HwpJTXZrzleELEa9g-128" value="&lt;font color=&quot;#000000&quot;&gt;Renewal Ops&lt;/font&gt;" style="pointerEvents=1;shadow=0;dashed=0;html=1;strokeColor=#001DBC;labelPosition=center;verticalLabelPosition=bottom;verticalAlign=top;align=center;shape=mxgraph.mscae.intune.user_group;rounded=1;glass=0;sketch=0;fontSize=16;opacity=30;fillColor=#0050ef;fontColor=#ffffff;" parent="1" vertex="1">
          <mxGeometry x="914.5899999999999" y="301.39" width="50" height="37" as="geometry" />
        </mxCell>
        <mxCell id="675HwpJTXZrzleELEa9g-129" value="&lt;font color=&quot;#000000&quot;&gt;Sales / Marketing&lt;/font&gt;" style="pointerEvents=1;shadow=0;dashed=0;html=1;strokeColor=#3700CC;labelPosition=center;verticalLabelPosition=bottom;verticalAlign=top;align=center;shape=mxgraph.mscae.intune.user_group;rounded=1;glass=0;sketch=0;fontSize=16;opacity=30;fillColor=#6a00ff;fontColor=#ffffff;" parent="1" vertex="1">
          <mxGeometry x="1050" y="301.39" width="50" height="37" as="geometry" />
        </mxCell>
        <mxCell id="675HwpJTXZrzleELEa9g-130" value="&lt;font color=&quot;#000000&quot;&gt;CS&lt;/font&gt;" style="pointerEvents=1;shadow=0;dashed=0;html=1;strokeColor=#A50040;labelPosition=center;verticalLabelPosition=bottom;verticalAlign=top;align=center;shape=mxgraph.mscae.intune.user_group;rounded=1;glass=0;sketch=0;fontSize=16;opacity=30;fillColor=#d80073;fontColor=#ffffff;" parent="1" vertex="1">
          <mxGeometry x="1174.51" y="301.39" width="50" height="37" as="geometry" />
        </mxCell>
        <mxCell id="675HwpJTXZrzleELEa9g-131" style="edgeStyle=orthogonalEdgeStyle;rounded=0;orthogonalLoop=1;jettySize=auto;html=1;exitX=0.5;exitY=1;exitDx=0;exitDy=0;exitPerimeter=0;strokeColor=#3333FF;fontSize=16;" parent="1" source="675HwpJTXZrzleELEa9g-124" target="675HwpJTXZrzleELEa9g-124" edge="1">
          <mxGeometry relative="1" as="geometry" />
        </mxCell>
        <mxCell id="675HwpJTXZrzleELEa9g-132" value="&lt;font color=&quot;#000000&quot; style=&quot;font-size: 11px&quot;&gt;Customer&lt;/font&gt;" style="pointerEvents=1;shadow=0;dashed=0;html=1;strokeColor=#6D1F00;labelPosition=center;verticalLabelPosition=bottom;verticalAlign=top;align=center;shape=mxgraph.mscae.intune.user_group;rounded=1;glass=0;sketch=0;fontSize=16;opacity=30;fillColor=#a0522d;fontColor=#ffffff;" parent="1" vertex="1">
          <mxGeometry x="150" y="-250" width="20" height="23.5" as="geometry" />
        </mxCell>
        <mxCell id="675HwpJTXZrzleELEa9g-133" value="&lt;font color=&quot;#000000&quot; style=&quot;font-size: 12px&quot;&gt;Subsidieries&lt;/font&gt;" style="pointerEvents=1;shadow=0;dashed=0;html=1;strokeColor=#B09500;labelPosition=center;verticalLabelPosition=bottom;verticalAlign=top;align=center;shape=mxgraph.mscae.intune.user_group;rounded=1;glass=0;sketch=0;fontSize=16;opacity=30;fillColor=#e3c800;fontColor=#ffffff;" parent="1" vertex="1">
          <mxGeometry x="150" y="-197.72000000000003" width="20" height="30" as="geometry" />
        </mxCell>
        <mxCell id="675HwpJTXZrzleELEa9g-134" value="&lt;font color=&quot;#000000&quot; style=&quot;font-size: 12px&quot;&gt;Sales Ops&lt;/font&gt;" style="pointerEvents=1;shadow=0;dashed=0;html=1;strokeColor=#C73500;labelPosition=center;verticalLabelPosition=bottom;verticalAlign=top;align=center;shape=mxgraph.mscae.intune.user_group;rounded=1;glass=0;sketch=0;fontSize=16;opacity=30;fillColor=#fa6800;fontColor=#ffffff;" parent="1" vertex="1">
          <mxGeometry x="145" y="-126.10000000000002" width="25" height="17.49" as="geometry" />
        </mxCell>
        <mxCell id="675HwpJTXZrzleELEa9g-135" value="&lt;font color=&quot;#000000&quot; style=&quot;font-size: 12px&quot;&gt;Partner Ops&lt;/font&gt;" style="pointerEvents=1;shadow=0;dashed=0;html=1;strokeColor=#B20000;labelPosition=center;verticalLabelPosition=bottom;verticalAlign=top;align=center;shape=mxgraph.mscae.intune.user_group;rounded=1;glass=0;sketch=0;fontSize=16;opacity=30;fillColor=#e51400;fontColor=#ffffff;" parent="1" vertex="1">
          <mxGeometry x="146.25" y="-73.08000000000004" width="27.5" height="26.98" as="geometry" />
        </mxCell>
        <mxCell id="675HwpJTXZrzleELEa9g-136" value="&lt;font color=&quot;#000000&quot; style=&quot;font-size: 12px;&quot;&gt;Order Ops&lt;/font&gt;" style="pointerEvents=1;shadow=0;dashed=0;html=1;strokeColor=#005700;labelPosition=center;verticalLabelPosition=bottom;verticalAlign=top;align=center;shape=mxgraph.mscae.intune.user_group;rounded=1;glass=0;sketch=0;fontSize=12;opacity=30;fillColor=#008a00;fontColor=#ffffff;" parent="1" vertex="1">
          <mxGeometry x="147.5" y="-5.220000000000027" width="25" height="20" as="geometry" />
        </mxCell>
        <mxCell id="675HwpJTXZrzleELEa9g-137" value="&lt;font color=&quot;#000000&quot; style=&quot;font-size: 12px;&quot;&gt;Fin Ops&lt;/font&gt;" style="pointerEvents=1;shadow=0;dashed=0;html=1;strokeColor=#006EAF;labelPosition=center;verticalLabelPosition=bottom;verticalAlign=top;align=center;shape=mxgraph.mscae.intune.user_group;rounded=1;glass=0;sketch=0;fontSize=12;opacity=30;fillColor=#1ba1e2;fontColor=#ffffff;" parent="1" vertex="1">
          <mxGeometry x="140" y="67.27999999999997" width="30" height="20" as="geometry" />
        </mxCell>
        <mxCell id="675HwpJTXZrzleELEa9g-138" value="&lt;font color=&quot;#000000&quot; style=&quot;font-size: 12px;&quot;&gt;Renewal Ops&lt;/font&gt;" style="pointerEvents=1;shadow=0;dashed=0;html=1;strokeColor=#001DBC;labelPosition=center;verticalLabelPosition=bottom;verticalAlign=top;align=center;shape=mxgraph.mscae.intune.user_group;rounded=1;glass=0;sketch=0;fontSize=12;opacity=30;fillColor=#0050ef;fontColor=#ffffff;" parent="1" vertex="1">
          <mxGeometry x="142.5" y="116.88999999999999" width="27.5" height="24.5" as="geometry" />
        </mxCell>
        <mxCell id="675HwpJTXZrzleELEa9g-139" value="&lt;font color=&quot;#000000&quot; style=&quot;font-size: 12px;&quot;&gt;Sales / Marketing&lt;/font&gt;" style="pointerEvents=1;shadow=0;dashed=0;html=1;strokeColor=#3700CC;labelPosition=center;verticalLabelPosition=bottom;verticalAlign=top;align=center;shape=mxgraph.mscae.intune.user_group;rounded=1;glass=0;sketch=0;fontSize=12;opacity=30;fillColor=#6a00ff;fontColor=#ffffff;" parent="1" vertex="1">
          <mxGeometry x="141.25" y="171.39" width="27.5" height="27.42" as="geometry" />
        </mxCell>
        <mxCell id="675HwpJTXZrzleELEa9g-140" value="&lt;font color=&quot;#000000&quot; style=&quot;font-size: 12px;&quot;&gt;CS&lt;/font&gt;" style="pointerEvents=1;shadow=0;dashed=0;html=1;strokeColor=#A50040;labelPosition=center;verticalLabelPosition=bottom;verticalAlign=top;align=center;shape=mxgraph.mscae.intune.user_group;rounded=1;glass=0;sketch=0;fontSize=12;opacity=30;fillColor=#d80073;fontColor=#ffffff;" parent="1" vertex="1">
          <mxGeometry x="140" y="240.49" width="25" height="15.9" as="geometry" />
        </mxCell>
        <mxCell id="675HwpJTXZrzleELEa9g-141" value="" style="group" parent="1" vertex="1" connectable="0">
          <mxGeometry x="989.06" y="-230" width="190.94" height="80" as="geometry" />
        </mxCell>
        <mxCell id="675HwpJTXZrzleELEa9g-142" value="&lt;font style=&quot;font-size: 15px;&quot;&gt;One interface to capture global and local master data&amp;nbsp;&lt;/font&gt;" style="rounded=1;whiteSpace=wrap;html=1;shadow=1;glass=0;sketch=0;fontSize=15;strokeWidth=1;fillColor=#fff2cc;strokeColor=#0D0D0D;" parent="675HwpJTXZrzleELEa9g-141" vertex="1">
          <mxGeometry x="14.950962264150965" y="13.505454545454574" width="175.98903773584905" height="66.49454545454542" as="geometry" />
        </mxCell>
        <mxCell id="675HwpJTXZrzleELEa9g-143" value="" style="shape=image;html=1;verticalAlign=top;verticalLabelPosition=bottom;labelBackgroundColor=#ffffff;imageAspect=0;aspect=fixed;image=https://cdn4.iconfinder.com/data/icons/gradient-ui-1/512/success-128.png;rounded=1;shadow=0;glass=0;sketch=0;strokeColor=#0066CC;strokeWidth=3;fillColor=none;gradientColor=none;fontSize=12;" parent="675HwpJTXZrzleELEa9g-141" vertex="1">
          <mxGeometry width="31.999999999999982" height="31.999999999999982" as="geometry" />
        </mxCell>
        <mxCell id="675HwpJTXZrzleELEa9g-144" value="" style="group" parent="1" vertex="1" connectable="0">
          <mxGeometry x="430" y="-360" width="212" height="110.00000000000006" as="geometry" />
        </mxCell>
        <mxCell id="675HwpJTXZrzleELEa9g-145" value="&lt;font style=&quot;font-size: 19px&quot;&gt;&amp;nbsp; Data quality at various check points of data flow&lt;/font&gt;" style="rounded=1;whiteSpace=wrap;html=1;shadow=1;glass=0;sketch=0;fontSize=12;strokeWidth=1;fillColor=#fff2cc;strokeColor=#0D0D0D;" parent="675HwpJTXZrzleELEa9g-144" vertex="1">
          <mxGeometry x="16.600000000000023" y="18.57000000000005" width="195.4" height="91.43" as="geometry" />
        </mxCell>
        <mxCell id="675HwpJTXZrzleELEa9g-146" value="" style="shape=image;html=1;verticalAlign=top;verticalLabelPosition=bottom;labelBackgroundColor=#ffffff;imageAspect=0;aspect=fixed;image=https://cdn4.iconfinder.com/data/icons/gradient-ui-1/512/success-128.png;rounded=1;shadow=0;glass=0;sketch=0;strokeColor=#0066CC;strokeWidth=3;fillColor=none;gradientColor=none;fontSize=12;" parent="675HwpJTXZrzleELEa9g-144" vertex="1">
          <mxGeometry width="44" height="44" as="geometry" />
        </mxCell>
        <mxCell id="675HwpJTXZrzleELEa9g-147" value="" style="group" parent="1" vertex="1" connectable="0">
          <mxGeometry x="1224.51" y="241.39" width="155.49" height="78.61" as="geometry" />
        </mxCell>
        <mxCell id="675HwpJTXZrzleELEa9g-148" value="&lt;font style=&quot;font-size: 14px;&quot;&gt;&amp;nbsp; &amp;nbsp; &amp;nbsp;Real time &amp;nbsp; &amp;nbsp;interfaces minimise or reduce the Delay&lt;/font&gt;" style="rounded=1;whiteSpace=wrap;html=1;shadow=1;glass=0;sketch=0;fontSize=14;strokeWidth=1;fillColor=#fff2cc;strokeColor=#0D0D0D;" parent="675HwpJTXZrzleELEa9g-147" vertex="1">
          <mxGeometry x="12.175160377358509" y="13.270797272727302" width="143.31483962264153" height="65.3392027272727" as="geometry" />
        </mxCell>
        <mxCell id="675HwpJTXZrzleELEa9g-149" value="" style="shape=image;html=1;verticalAlign=top;verticalLabelPosition=bottom;labelBackgroundColor=#ffffff;imageAspect=0;aspect=fixed;image=https://cdn4.iconfinder.com/data/icons/gradient-ui-1/512/success-128.png;rounded=1;shadow=0;glass=0;sketch=0;strokeColor=#0066CC;strokeWidth=3;fillColor=none;gradientColor=none;fontSize=12;" parent="675HwpJTXZrzleELEa9g-147" vertex="1">
          <mxGeometry width="31.443999999999985" height="31.443999999999985" as="geometry" />
        </mxCell>
        <mxCell id="675HwpJTXZrzleELEa9g-150" value="" style="group" parent="1" vertex="1" connectable="0">
          <mxGeometry x="990" y="-348.61" width="212" height="110.00000000000006" as="geometry" />
        </mxCell>
        <mxCell id="675HwpJTXZrzleELEa9g-151" value="&lt;font style=&quot;font-size: 16px&quot;&gt;&amp;nbsp; &amp;nbsp; Golden record creation with merge and match and survivorship is out of the box in INFA MDM&lt;/font&gt;" style="rounded=1;whiteSpace=wrap;html=1;shadow=1;glass=0;sketch=0;fontSize=12;strokeWidth=1;fillColor=#fff2cc;strokeColor=#0D0D0D;" parent="675HwpJTXZrzleELEa9g-150" vertex="1">
          <mxGeometry x="16.600000000000023" y="18.57000000000005" width="195.4" height="91.43" as="geometry" />
        </mxCell>
        <mxCell id="675HwpJTXZrzleELEa9g-152" value="" style="shape=image;html=1;verticalAlign=top;verticalLabelPosition=bottom;labelBackgroundColor=#ffffff;imageAspect=0;aspect=fixed;image=https://cdn4.iconfinder.com/data/icons/gradient-ui-1/512/success-128.png;rounded=1;shadow=0;glass=0;sketch=0;strokeColor=#0066CC;strokeWidth=3;fillColor=none;gradientColor=none;fontSize=12;" parent="675HwpJTXZrzleELEa9g-150" vertex="1">
          <mxGeometry width="40" height="40" as="geometry" />
        </mxCell>
        <mxCell id="675HwpJTXZrzleELEa9g-153" value="M&amp;amp;A Systems" style="rounded=0;whiteSpace=wrap;html=1;" parent="1" vertex="1">
          <mxGeometry x="198" y="225" width="112" height="35" as="geometry" />
        </mxCell>
        <mxCell id="675HwpJTXZrzleELEa9g-165" value="&lt;span lang=&quot;EN-US&quot; style=&quot;font-size: 9pt ; line-height: 12.84000015258789px ; font-family: &amp;#34;verdana&amp;#34; , sans-serif&quot;&gt;GAAP&lt;/span&gt;&lt;span style=&quot;font-size: medium&quot;&gt;&lt;/span&gt;" style="ellipse;shape=cloud;whiteSpace=wrap;html=1;shadow=0;sketch=1;" parent="1" vertex="1">
          <mxGeometry x="649.47" y="-281.61" width="83" height="38" as="geometry" />
        </mxCell>
        <mxCell id="675HwpJTXZrzleELEa9g-39" value="Master Data Hub (INFA Multidomain MDM)" style="text;html=1;strokeColor=#6c8ebf;fillColor=#dae8fc;align=center;verticalAlign=middle;whiteSpace=wrap;rounded=0;" parent="1" vertex="1">
          <mxGeometry x="679.06" y="-192.72000000000003" width="310" height="30" as="geometry" />
        </mxCell>
        <mxCell id="675HwpJTXZrzleELEa9g-40" value="Data Stewardship User Interface (E-360)" style="rounded=0;whiteSpace=wrap;html=1;" parent="1" vertex="1">
          <mxGeometry x="707.06" y="-156.72000000000003" width="258.33" height="24" as="geometry" />
        </mxCell>
        <mxCell id="675HwpJTXZrzleELEa9g-41" value="Workflow Management" style="rounded=0;whiteSpace=wrap;html=1;" parent="1" vertex="1">
          <mxGeometry x="707.06" y="-128.72000000000003" width="258.33" height="26" as="geometry" />
        </mxCell>
        <mxCell id="675HwpJTXZrzleELEa9g-42" value="MDM Data Model (Customer, Vendor, Product)" style="rounded=0;whiteSpace=wrap;html=1;" parent="1" vertex="1">
          <mxGeometry x="689.06" y="-97.72000000000003" width="290" height="30" as="geometry" />
        </mxCell>
        <mxCell id="675HwpJTXZrzleELEa9g-43" value="Match/Merge" style="rounded=0;whiteSpace=wrap;html=1;" parent="1" vertex="1">
          <mxGeometry x="689.39" y="-62.72000000000003" width="140" height="30" as="geometry" />
        </mxCell>
        <mxCell id="675HwpJTXZrzleELEa9g-44" value="Consolidation/Survivorship" style="rounded=0;whiteSpace=wrap;html=1;fontSize=11;" parent="1" vertex="1">
          <mxGeometry x="839.39" y="-62.72000000000003" width="140" height="30" as="geometry" />
        </mxCell>
        <mxCell id="675HwpJTXZrzleELEa9g-45" value="Unique Customer" style="rounded=0;whiteSpace=wrap;html=1;fontSize=11;" parent="1" vertex="1">
          <mxGeometry x="689.39" y="-26.720000000000027" width="140" height="30" as="geometry" />
        </mxCell>
        <mxCell id="675HwpJTXZrzleELEa9g-46" value="Security / Entitlement" style="rounded=0;whiteSpace=wrap;html=1;" parent="1" vertex="1">
          <mxGeometry x="839.39" y="-26.720000000000027" width="140" height="30" as="geometry" />
        </mxCell>
        <mxCell id="675HwpJTXZrzleELEa9g-47" value="Cross Reference" style="rounded=0;whiteSpace=wrap;html=1;" parent="1" vertex="1">
          <mxGeometry x="687.73" y="42.27999999999997" width="140" height="30" as="geometry" />
        </mxCell>
        <mxCell id="675HwpJTXZrzleELEa9g-48" value="Standard Accounting" style="rounded=0;whiteSpace=wrap;html=1;" parent="1" vertex="1">
          <mxGeometry x="837.73" y="42.27999999999997" width="140" height="30" as="geometry" />
        </mxCell>
        <mxCell id="675HwpJTXZrzleELEa9g-49" value="History/Lineage" style="rounded=0;whiteSpace=wrap;html=1;" parent="1" vertex="1">
          <mxGeometry x="687.73" y="78.27999999999997" width="140" height="30" as="geometry" />
        </mxCell>
        <mxCell id="675HwpJTXZrzleELEa9g-50" value="Standard Financial Reporting" style="rounded=0;whiteSpace=wrap;html=1;" parent="1" vertex="1">
          <mxGeometry x="837.73" y="78.27999999999997" width="140" height="30" as="geometry" />
        </mxCell>
        <mxCell id="675HwpJTXZrzleELEa9g-51" value="Real Time Webservices / SIF" style="rounded=0;whiteSpace=wrap;html=1;" parent="1" vertex="1">
          <mxGeometry x="687.7299999999999" y="113.27999999999997" width="291.33" height="30" as="geometry" />
        </mxCell>
        <mxCell id="rX7Igm-Nb92PmGejd0jr-6" value="&lt;span style=&quot;color: rgba(0, 0, 0, 0); font-family: monospace; font-size: 0px; font-style: normal; font-weight: normal; letter-spacing: normal; text-indent: 0px; text-transform: none; word-spacing: 0px; background-color: rgb(248, 249, 250); text-decoration: none; display: inline; float: none;&quot;&gt;%3CmxGraphModel%3E%3Croot%3E%3CmxCell%20id%3D%220%22%2F%3E%3CmxCell%20id%3D%221%22%20parent%3D%220%22%2F%3E" style="text;whiteSpace=wrap;html=1;fontSize=15;" vertex="1" parent="1">
          <mxGeometry x="830" y="-350" width="30" height="40" as="geometry" />
        </mxCell>
        <mxCell id="675HwpJTXZrzleELEa9g-55" value="" style="rounded=0;whiteSpace=wrap;html=1;" parent="1" vertex="1">
          <mxGeometry x="1236" y="-213.83000000000004" width="120" height="370" as="geometry" />
        </mxCell>
        <mxCell id="675HwpJTXZrzleELEa9g-56" value="Target System" style="text;html=1;strokeColor=#6c8ebf;fillColor=#dae8fc;align=center;verticalAlign=middle;whiteSpace=wrap;rounded=0;" parent="1" vertex="1">
          <mxGeometry x="1236" y="-213.83000000000004" width="120" height="30" as="geometry" />
        </mxCell>
        <mxCell id="675HwpJTXZrzleELEa9g-57" value="Data Lake" style="rounded=1;whiteSpace=wrap;html=1;fillColor=#ffe6cc;strokeColor=#d79b00;labelBackgroundColor=default;" parent="1" vertex="1">
          <mxGeometry x="1247.03" y="-180.83000000000004" width="95.94" height="20" as="geometry" />
        </mxCell>
        <mxCell id="675HwpJTXZrzleELEa9g-58" value="LEGACY Systems" style="rounded=1;whiteSpace=wrap;html=1;fillColor=#f5f5f5;strokeColor=#666666;fontColor=#333333;" parent="1" vertex="1">
          <mxGeometry x="1247.03" y="-158.83" width="95.94" height="38.83" as="geometry" />
        </mxCell>
        <mxCell id="92HVsU2Kanfxvoh4dXFT-1" value="" style="shape=image;verticalLabelPosition=bottom;labelBackgroundColor=#ffffff;verticalAlign=top;aspect=fixed;imageAspect=0;image=data:image/png,iVBORw0KGgoAAAANSUhEUgAAAK4AAABsCAYAAADzLIlRAAAMaWlDQ1BJQ0MgUHJvZmlsZQAASImVVwdYU8kWnluSkJDQAqFICb0J0quUEFoAAamCjZAEEkqMCUHFXhYVXLuIYEVXRRRdCyCLitjLotj7YkFFWRcLiqLyJiSg677yvfN9c+e/Z878p9yZe+8AoNnLlUjyUC0A8sUF0oSIEOaYtHQmqQMgQBtQgT6gcXkyCSs+PgZAGez/Lu9vQGsoV50UXP8c/6+iwxfIeAAg4yDO5Mt4+RA3A4Cv50mkBQAQFXrLKQUSBZ4Dsa4UBgjxagXOVuKdCpypxE0DNkkJbIgvA6BG5XKl2QBo3IN6ZiEvG/JofIbYRcwXiQHQHA5xIE/I5UOsiH14fv4kBS6H2A7aSyCG8QCfzO84s//GnznEz+VmD2FlXgOiFiqSSfK40/7P0vxvyc+TD/qwgY0qlEYmKPKHNbyVOylagakQd4kzY+MUtYa4V8RX1h0AlCKURyYr7VFjnowN6wcYELvwuaHREBtDHC7Oi41R6TOzROEciOFqQaeKCjhJEBtAvEggC0tU2WyWTkpQ+ULrsqRslkp/lisd8Kvw9UCem8xS8b8RCjgqfkyjSJiUCjEFYqtCUUosxBoQO8tyE6NVNiOLhOzYQRupPEERvxXECQJxRIiSHyvMkoYnqOxL8mWD+WKbhSJOrArvLxAmRSrrg53kcQfih7lglwViVvIgj0A2JmYwF74gNEyZO/ZcIE5OVPH0SgpCEpRzcYokL15lj1sI8iIUeguIPWSFiaq5eEoBXJxKfjxLUhCfpIwTL8rhRsUr48GXgxjABqGACeSwZYJJIAeIWrvqu+CdciQccIEUZAMBcFJpBmekDoyI4TURFIE/IRIA2dC8kIFRASiE+i9DWuXVCWQNjBYOzMgFTyHOB9EgD97LB2aJh7ylgCdQI/qHdy5sPBhvHmyK8X+vH9R+07CgJkalkQ96ZGoOWhLDiKHESGI40R43wgNxfzwGXoNhc8N9cN/BPL7ZE54S2giPCNcJ7YTbE0XzpD9EOQq0Q/5wVS0yv68FbgM5PfEQPACyQ2acgRsBJ9wD+mHhQdCzJ9SyVXErqsL8gftvGXz3NFR2ZBcyStYnB5Ptfpyp4aDhOcSiqPX39VHGmjlUb/bQyI/+2d9Vnw/76B8tsUXYAewMdhw7hzVh9YCJHcMasIvYEQUeWl1PBlbXoLeEgXhyIY/oH/64Kp+KSspcalw6XT4rxwoEUwsUG489STJNKsoWFjBZ8OsgYHLEPOfhTDcXN1cAFN8a5evrLWPgG4Iwzn/TzYd7PEDc39/f9E0X/QmAg+Zw+7d/09lega8J+J4+u4InlxYqdbjiQoBvCU240wyBKbAEdjAfN+AF/EEwCANRIA4kgTQwAVZZCNe5FEwBM8BcUAxKwXKwBlSATWAr2An2gP2gHjSB4+A0uAAug+vgLlw9HeAl6AbvQR+CICSEhtARQ8QMsUYcETfEBwlEwpAYJAFJQzKQbESMyJEZyHykFFmJVCBbkGrkV+Qwchw5h7Qht5GHSCfyBvmEYigV1UVNUBt0BOqDstBoNAkdj2ajk9EidAG6FC1Hq9DdaB16HL2AXkfb0ZdoDwYwdYyBmWNOmA/GxuKwdCwLk2KzsBKsDKvCarFG+JyvYu1YF/YRJ+J0nIk7wRUciSfjPHwyPgtfglfgO/E6/CR+FX+Id+NfCTSCMcGR4EfgEMYQsglTCMWEMsJ2wiHCKbiXOgjviUQig2hL9IZ7MY2YQ5xOXELcQNxLbCa2ER8Te0gkkiHJkRRAiiNxSQWkYtI60m7SMdIVUgepV01dzUzNTS1cLV1NrDZPrUxtl9pRtStqz9T6yFpka7IfOY7MJ08jLyNvIzeSL5E7yH0UbYotJYCSRMmhzKWUU2oppyj3KG/V1dUt1H3VR6uL1Oeol6vvUz+r/lD9I1WH6kBlU8dR5dSl1B3UZupt6lsajWZDC6al0wpoS2nVtBO0B7ReDbqGswZHg68xW6NSo07jisYrTbKmtSZLc4JmkWaZ5gHNS5pdWmQtGy22Fldrllal1mGtm1o92nRtV+047XztJdq7tM9pP9ch6djohOnwdRbobNU5ofOYjtEt6Ww6jz6fvo1+it6hS9S11eXo5uiW6u7RbdXt1tPR89BL0ZuqV6l3RK+dgTFsGBxGHmMZYz/jBuOTvok+S1+gv1i/Vv+K/geDYQbBBgKDEoO9BtcNPhkyDcMMcw1XGNYb3jfCjRyMRhtNMdpodMqoa5juMP9hvGElw/YPu2OMGjsYJxhPN95qfNG4x8TUJMJEYrLO5IRJlynDNNg0x3S16VHTTjO6WaCZyGy12TGzF0w9JouZxyxnnmR2mxubR5rLzbeYt5r3WdhaJFvMs9hrcd+SYuljmWW52rLFstvKzGqU1QyrGqs71mRrH2uh9VrrM9YfbGxtUm0W2tTbPLc1sOXYFtnW2N6zo9kF2U22q7K7Zk+097HPtd9gf9kBdfB0EDpUOlxyRB29HEWOGxzbhhOG+w4XD68aftOJ6sRyKnSqcXrozHCOcZ7nXO/8aoTViPQRK0acGfHVxdMlz2Wby11XHdco13muja5v3BzceG6Vbtfcae7h7rPdG9xfezh6CDw2etzypHuO8lzo2eL5xcvbS+pV69XpbeWd4b3e+6aPrk+8zxKfs74E3xDf2b5Nvh/9vPwK/Pb7/eXv5J/rv8v/+UjbkYKR20Y+DrAI4AZsCWgPZAZmBG4ObA8yD+IGVQU9CrYM5gdvD37GsmflsHazXoW4hEhDDoV8YPuxZ7KbQ7HQiNCS0NYwnbDksIqwB+EW4dnhNeHdEZ4R0yOaIwmR0ZErIm9yTDg8TjWnO8o7ambUyWhqdGJ0RfSjGIcYaUzjKHRU1KhVo+7FWseKY+vjQBwnblXc/Xjb+Mnxv40mjo4fXTn6aYJrwoyEM4n0xImJuxLfJ4UkLUu6m2yXLE9uSdFMGZdSnfIhNTR1ZWr7mBFjZo65kGaUJkprSCelp6RvT+8ZGzZ2zdiOcZ7jisfdGG87fur4cxOMJuRNODJRcyJ34oEMQkZqxq6Mz9w4bhW3J5OTuT6zm8fmreW95AfzV/M7BQGClYJnWQFZK7OeZwdkr8ruFAYJy4RdIraoQvQ6JzJnU86H3LjcHbn9eal5e/PV8jPyD4t1xLnik5NMJ02d1CZxlBRL2if7TV4zuVsaLd0uQ2TjZQ0FuvCn/qLcTv6T/GFhYGFlYe+UlCkHpmpPFU+9OM1h2uJpz4rCi36Zjk/nTW+ZYT5j7oyHM1kzt8xCZmXOapltOXvB7I45EXN2zqXMzZ37+zyXeSvnvZufOr9xgcmCOQse/xTxU02xRrG0+OZC/4WbFuGLRItaF7svXrf4awm/5HypS2lZ6eclvCXnf3b9ufzn/qVZS1uXeS3buJy4XLz8xoqgFTtXaq8sWvl41ahVdauZq0tWv1szcc25Mo+yTWspa+Vr28tjyhvWWa1bvu5zhbDiemVI5d71xusXr/+wgb/hysbgjbWbTDaVbvq0WbT51paILXVVNlVlW4lbC7c+3Zay7cwvPr9UbzfaXrr9yw7xjvadCTtPVntXV+8y3rWsBq2R13TuHrf78p7QPQ21TrVb9jL2lu4D++T7Xvya8euN/dH7Ww74HKg9aH1w/SH6oZI6pG5aXXe9sL69Ia2h7XDU4ZZG/8ZDvzn/tqPJvKnyiN6RZUcpRxcc7T9WdKynWdLcdTz7+OOWiS13T4w5ce3k6JOtp6JPnT0dfvrEGdaZY2cDzjad8zt3+LzP+foLXhfqLnpePPS75++HWr1a6y55X2q47Hu5sW1k29ErQVeOXw29evoa59qF67HX224k37h1c9zN9lv8W89v591+fafwTt/dOfcI90rua90ve2D8oOoP+z/2tnu1H3kY+vDio8RHdx/zHr98InvyuWPBU9rTsmdmz6qfuz1v6gzvvPxi7IuOl5KXfV3Ff2r/uf6V3auDfwX/dbF7THfHa+nr/jdL3hq+3fHO411LT3zPg/f57/s+lPQa9u786PPxzKfUT8/6pnwmfS7/Yv+l8Wv013v9+f39Eq6UO/ArgMGGZmUB8GYHALQ0AOjw3EYZqzwLDgiiPL8OIPCfsPK8OCBeANTCTvEbz24GYB9sNnMgN2yKX/ikYIC6uw81lciy3N2UXFR4EiL09ve/NQGA1AjAF2l/f9+G/v4v22CwtwFonqw8gyqECM8Mm4MV6LrBWBz8IMrz6Xc5/tgDRQQe4Mf+X55bjwFeCncVAAAAlmVYSWZNTQAqAAAACAAFARIAAwAAAAEAAQAAARoABQAAAAEAAABKARsABQAAAAEAAABSASgAAwAAAAEAAgAAh2kABAAAAAEAAABaAAAAAAAAAJAAAAABAAAAkAAAAAEAA5KGAAcAAAASAAAAhKACAAQAAAABAAAArqADAAQAAAABAAAAbAAAAABBU0NJSQAAAFNjcmVlbnNob3TntIyUAAAACXBIWXMAABYlAAAWJQFJUiTwAAAC22lUWHRYTUw6Y29tLmFkb2JlLnhtcAAAAAAAPHg6eG1wbWV0YSB4bWxuczp4PSJhZG9iZTpuczptZXRhLyIgeDp4bXB0az0iWE1QIENvcmUgNi4wLjAiPgogICA8cmRmOlJERiB4bWxuczpyZGY9Imh0dHA6Ly93d3cudzMub3JnLzE5OTkvMDIvMjItcmRmLXN5bnRheC1ucyMiPgogICAgICA8cmRmOkRlc2NyaXB0aW9uIHJkZjphYm91dD0iIgogICAgICAgICAgICB4bWxuczpleGlmPSJodHRwOi8vbnMuYWRvYmUuY29tL2V4aWYvMS4wLyIKICAgICAgICAgICAgeG1sbnM6dGlmZj0iaHR0cDovL25zLmFkb2JlLmNvbS90aWZmLzEuMC8iPgogICAgICAgICA8ZXhpZjpVc2VyQ29tbWVudD5TY3JlZW5zaG90PC9leGlmOlVzZXJDb21tZW50PgogICAgICAgICA8ZXhpZjpQaXhlbFhEaW1lbnNpb24+MTc0PC9leGlmOlBpeGVsWERpbWVuc2lvbj4KICAgICAgICAgPGV4aWY6UGl4ZWxZRGltZW5zaW9uPjEwODwvZXhpZjpQaXhlbFlEaW1lbnNpb24+CiAgICAgICAgIDx0aWZmOlJlc29sdXRpb25Vbml0PjI8L3RpZmY6UmVzb2x1dGlvblVuaXQ+CiAgICAgICAgIDx0aWZmOlhSZXNvbHV0aW9uPjE0NC8xPC90aWZmOlhSZXNvbHV0aW9uPgogICAgICAgICA8dGlmZjpZUmVzb2x1dGlvbj4xNDQvMTwvdGlmZjpZUmVzb2x1dGlvbj4KICAgICAgICAgPHRpZmY6T3JpZW50YXRpb24+MTwvdGlmZjpPcmllbnRhdGlvbj4KICAgICAgPC9yZGY6RGVzY3JpcHRpb24+CiAgIDwvcmRmOlJERj4KPC94OnhtcG1ldGE+CvEWK4gAACxmSURBVHgB7Z0HnF1V9e/XzGRqJjOTySSZVCY9hADSQQhEkGoDBBGlPJ8V9Y9/1Kcfe/d9LDysiA0UVEABAVFBBGmGXkIJLY2USZ+0KZmSuW9915012XO4d3Lv5E7zfxac2fvssvbaa//22vXc5CWUJKZYA8NMA/nDTN5Y3FgDpoEYuDEQhqUGYuAOy2aLhY6BG2NgWGogBu6wbLZY6Bi4MQaGpQZi4A7LZouFjoEbY2BYaiAG7rBstljoGLgxBoalBkYMS6mzENrOsyOn2smwkEny1Pv14WGa1P5kztRxHprnnmxczdQz3563vD3eLo558vqwbAobfmmHFXA7OjqlqWWXbN/ZIu3tHbKrtV39zbJrV5u0d+yW7TtapLmlVXZ3dkpj0y5p0fC2tg4Nb5aE/rdpy05t4DxLu3V7o/nJu1PTQrityjOkJg1ramkLg7r98GptbJZOlSUtaacpq66UzkjnCdMXFY6Q0VVlEiYZMSJfRleWa5hKrr2jenS5jCjIl87OhIyvqZSiohFSNapUayUysqxYykqLpbCwQMNGSgXhmmlUeamMGFEg5SNLhIQ11aOkWPNVVoyUkuJCS58/TBGfN1Qu2TS3tMt9D78gjc27DEAvL6uXrduaZMWqjbJ2Q4Ps3t1pjbFbwdumIO1UcNKIAJg4gNHWruG7dycx0dXg1mJuFkGAkjld/jA+5X0j0nn+JOeef7v59Azu8bY3cGBBU6ShY3RT4M/L7wr3MHvdY3XzRyTtUZGCFh6F2gmoQrGCNV/z0lEK8vMFPpUK7irtIHVTxhrgAfmc6RNk3qxJUqrp58yc1C3CUPL0G3ABFRYMMOxsTFrIlWs2C4B84dW1giVb/MJKWfz00iSSVMF5quAkqZ/GoWEIVye/oMCUPkJdLAsNkK/Kt0YoUH9esiGwKDRWZXmZjNJGKCkplLE1FTrs5snkidUG8GJtuNqxVQbg8pHF2nAjzT9m9CizXt0NpK1dVQmf0u6g0IMVr9CG3xsxQvRm2Xa1tcvGzTusns6rXTvhuo0NVhfqs27DVmHEod6vrd1sI8vmhuQIskNHlB068rTq6LJx605Nl+y8uAk6d1dnbmvVTq4dHt64uzWus6NjT0fu6oQJjSMflFAeVeOqpaKiVObPnSJTJ9XIXAU2gJ49rdbaoqioUEpLiqwt0P9AUM6AW6+KfWX5Oln0xMuyur7BhuflqzbosNwpy1aul50NO7Q+AFEdVQwmAFDTKHlqGYrKSqR2fJVMnVhjYJsyYYwNdbXjKqXGAFVilqNMh8UKHQ6LFLwMd5WjyrqGPR36FPgMm//TCaNBxzeDwfSqqcX0vlmnSoB7+84mnV612wi1acsOHeVatGNsly0KejrG6votsqp+s02z6tdukc7WtqQhAcu0nxoM0J6nboW2TbVOQSaMrZSqijLZb8o4mTd7svlPXnCgjB1T0S/N0Wfgrl2/Ve6452m5f9ELcsudj9nQAxAZsvX/JHV5CKcH01vH6fzsxAUHmBU78pCZCtQxMmO/8TbskwkgJ11zut+Tb/Hf/tIAbeSEl9GE/2mPNes2y3MvrZGNW7bLitc2yv2PLLERAoOkCexJtppywBB1taH2ARk3plIt9WQ5/cRD5K0nHSr7Ta7xYvbJzRi4DPsPPvqiLNFh/sbbH5anHnsp2fOQVRcNo7Vn1eiQXKUWsHZclUyfPFYOmDdVqnUYPvbwOf3W8/ap9nHmfdJAm64vGptadR2ywXBRr2uR+x9+0RbFWPI16xqkcUeTjrDaDVij6EhbM2msnH36EfLOM46U/dUyT66t7pMMGQH3ulsekq/9vz/JaoYNFRYhcOfOnyYXv+sEOW3hwTJSV7Xl5SW2us1k3tcnaeNMQ14DWG52e5imbNveJGvWN8g/HnhWnnl+pdytIzRTmDxdPBboOmPa1LHysYtPlY//r1NslO4y1BnVca/A/cJ3bpDv/uQ2KdBJd5lOwA8/cLqcpb3lkotOzqiAOFGsAdcAW5Q33L5Irvjl32STLkZ36Ny7Q7cjzz3zOLn+p//lyTJyewXuUp3DHHrq53T7qUO+eOlZctZpR8gBc6ZkxDhOFGugNw2Arb+qBf76FTfrDkmb3Hr1p+TUEw7uLUuPON9/6hHoL03NrdKscxQm6/W6GItB65qJ3X3VwMy6WmlWfLXo7sZuNYzMibOhjDfdfvHbu+RX198r7ztvoZzzlqNkiu4QzNLCC3RhFlOsgUw0wHx3le7lsyvxzR/8WVqbmqWgVE/1+kAZAZdJ85G6M/DoIy/K1b+/R6658T6p0V2E+bOnyATdQVhwzP5y8nEH5myrow/1iLMMQQ1s2Lxdnli8TE9El8ijTy2V9frOQUqLLtwYxseMr7Yj9ubmrtPOLOqQEXA59Vl0+zfk7geflf/741tVmBV6UtMiD+iWGFsc19/6kJ7A7JbxKginUCced4CcceKhMql2tMyoG2+nRpxyFeiKEpdN7piGrwbYq+eQo/vYXduenYS77ntGsbHcwProk69qBdkITp5oclhRqKNzgZ58HnHYbDn/zGPl0v99msw54TJZsTJ5VyQbjWQEXGd48oKDhIee9Jge1b6yYp1uc7ymR5Nb5fmXV8t6PYpcv2aTvPT8Crnyqju0UyWkUPd1JyqAJ4wbLRP1ZGxi7Rhzx+ppC0esbKFxaYQj2BG6TTJaj1hjGhoa4ICBk7ZWPZJeunKDbNIj5ia9S8IpKWuejYoDjp2XPLt8z3aWAtRIDVqVtjlbXvvPmiKzp4+3E7U3Hj7bsOA1ZP3UF8oKuF4AQHvbyYfZa4fu6XLRhQqyUuTW1X2Llsid/1os6zZtkw0K5tV62rJm9SY9sOg6VVELzt2DZA/MtxtM3GJiSsLlD07TykqLdDpSadMP7hPM192MmXUT7LweZXC8GFP2GmjQi0u79e7Csy+usvsO3HtgYfTysnXSqPcduEdidxgSeplJ7zZgfLCwtC838OyETUGZdDkl1aNfbbt8PYI/UY94K/SOCOA87+1H6020IruNVqLbqNxsyyX1CbihAAg0oqDILlkcftB0i8Iqf+uz7zY/pyuvLl+v9xjqzUK/smy9vKqWmpM4riAy5DTrXl6LrjBREGEb9ASGUQZiKmKnj5pOtdQVyBFyp5QrsJl6jK4aKdxhmDyhWuhI++nCkUMQ7i1M1ZMaymB6Mqm2ShstefTMMMddh+4Or57k5R1XcMJuUyULTP2XKVShbqRnQkyOuEzTGyWvVCanUfwFKFyGwd/KwY/KSJlr1m0xNlzM4UYcdw/YI8UycnUTMK1Vq7hh4zbT6XY9CKh/bYPl8eNYjIiO48k7CObtMipdxiVPDQvGgUtNGJMJ40fbbTHqy6J81oxama73EqbqCemhehCFoRlIykzr+yARt7cOmDPZnpANANuqCu3QrRDuy5pfw/Cv1qPCtq7hCWvOvdplqvh6XZWyi1G/fpu0NGyXRru4I7Jj8zZlnScvPbciWQSmm8bgj7ke3PWCoyAYoRd7ujuDBtkdVbUeEI1fruA3y2Ihr/+DLNyKUlZ7JYpkmPW+F80AoABfIK7NGwEvce27WvfI6gVquHVsmFmY/vE4LWhPWYRr5y0ukhK96TZCb9NN0/sh1JfFNesSOnupgo97I4CVW16AtVD1QYeeoOuX8iF0ganfgRttIH/HUjPPhZj/9oXW61SEq3tbtjbamTm30VD0std0yqIdYGfjLr0UssGsLVZ3lQ6LgG2FTluwXMk23gMVQMLjxEjQA/ke0e06SroDMvDsKa9n4uRNuZ5hOnVSeaESOpkSoxIggwt1mlY3Tm/IJS+POxC1anbLbpLesMNajqkul/2H6L1aq1Qf/gwacPsg6+uysKCDJmsDQcceMdvcTP902D3VJJC4jM61Ph9KcTdox/D3VDwBuX1JkSoyEgbgWBuk6whY9vF6NVCdbmK6w+Vv4uiQMe3RwLAG7p5q9M3HkOjECDBRh8aQahVIMQ1NDfhKZGhKF0sVayCNBmLgplFMHDy0NRADd2i3TyxdGg3EwE2jmDh4aGsgJ4uz1lbdY4wp1kCggeLi/v1oNSfA5RTKN+rZPnJ/UI9ubxjvfnc9UfSd8GgY71C0rGg60qQKIxzqLS6ZIvk3LC/ME/rD9O5PFb+3MI93F174IeobDY/qwBJ2/fG0oevxns/jCA/9ns7D3A3TEQaFcnmYRfTTn5xMFVxor0BvsrqywjTRsOh7Kr6kCdP1pqwwnZfr6VPFRdN4+Z7WXU/Xm5sqbV/CyOP53HW5cL0+UVk8rbueJ/ru+cLwaFgY537c0O95+tvNCXBRGsKnU15vlcg0D+l6S5ut8jx9Jjx7k9/59JYmGpdpXaL5ou+h7JnKkWk6ygr5R8se7PecANcrmY1SyEP6TPNkmjZTZXu6TMvPZUNlWpewTJc3DAtlTxUfpo36M0nv/DNJG+Xf3+85A65XMlcCu7Jw/YnyjqYhPpTD4z2f88EN04Xx7t+b67z2lm5v8c4H1ykM8/BU8np63FTxnpd454kf8vRhmmRM8m+Y3tOG8YPtz8nijEpQ0VxUEB48LPjguW1b8r4AYZWVPY9gW1pa9Cy/2J5o2bt26bXJ5mbL4/x27kzeReAqZHl5ebfuiW9vb9erkZnd8UU25MIdPXq0XYCPlt/NvMtDPPdgqZPXjagdO5IfCRJWVZW8e0E4t+ZISz1GjhxpXw7wng1RJnna2tr0E5nkzk9JSfKyjstL+SF/vlAgrrEx+WuWo0YlL0JlU+5ApM0JcF0JfREYxXp+gPjSSy/Jq6++KmvXrhXeKyqSvz1Fuu3bt1tDUA4NDZABztSpU+Xoo4824AFAaMmSJfL444/Lli1bLA/5aQTKAkBNTU12l5d3nokTJ8q0adPk+OOP7w4PZTOm+oeGffnll+X+++83UB111FFywgknmN/TRN3CwkJ54YUX7HnttdcsrZeLTJTDA4gIB7Qf+MAHTPYnn3zSdPGhD31Ixo0b162raBnRd/jRqZ966il55ZVXZNOmTVZnOjMd18tHh4CUMgn/6Ec/aiBHd3TkQw45xHRM+qFEOQFuqgbOppIoDMU+8MADBlrABzB5AKsrza2Q825o0B/X03jA8O9//1ve8573SF1dnQETS0Wc84EHgPUGw+8NiPx0lNWrV8uyZcvkkksuMSvl5Xp5pEO2O+64w8DHO/5JkyZJnZaLfFHCwv3+97838CCLy0E6/MjohEx01vPPP1/GjBkj9fX1wijhMmejZ9L++te/Nt14mYRRRkiMHIQh26mnnqrfDY6XRx991MokDFBjHIYa5QS4KKavRF4U+sQTT8izzz6rv9RYYo02b9482W+//boBAn/ivCxAhzXFmgA2lH/rrbfK+9//fhv64AnxHdvpp59u1pnhknDyFulnJV424ZQPcOkEjz32mBx66KHWmF4evLCcf/zjH80yuvWmcf/85z/Lxz/+8e6OQFqIsm+++WZ5+umnzdrX1NTY6DB79mxLixx0MMrgKS0ttXBGEPhCXg97yfAPvP7xj3+YXpB57NixMnfuXLPYWFHinS8WGMuMLJSLPDNmzDDAMoUYiqBFDTkBbob6TJkMhS1evNiGNJS6//77G9BoRLcEntGV7S7ABuDPPfec/P3vfzcgM4QvXLiwu2HgP2XKFGu8KBjgQyOSpra2Vn7zm9+Y1Xz++edtiCTOCQBQDlMQ0h988ME2bQDkW7dutdHiuOOOszDPw5QH0FKXCRMmyNve9jazaG714B+WAV8IOcNw5PQ6O++o63XB6m/evFkefPBBk6W6ulrOOussMwbw742Pl8n8/8gjj7S0dD4Pj5Y5mO852VXoTRnRyoVp8fM888wzNgSzOHnjG99olooFhTcgiuPhnYeGd1BjORcsWGDWAl6PPPKINZyDgPI9Tyo+Hoc194al8aONtWbNGpsWMMcF5HSYI444Qn+hUr9G0HIfeughm/sS7/ViNIAPfN/85jeb9WKqEcrvMuF6nfDDw8nT+Hsq1/OgN/RJfupx8cUXm7XHz+Nle1lYWPd7OeRFr3TWoUoDbnFRTkgoDQvBcMW8DvB6GnfD9Cg1Gk6DAIyf/vSn1mDMG0Pgkp935o/kB1y+g8A7DwsuBxUykB5QUxYu8z4WdPgPO+wwAy8Ne9ppp8mvfvUrC3/xxRdl8uTJtqCkjI0bN1o4c+Dp06fbMBzWJZU/WjfSuIyp0kfD0MWqVatMfiwn0ydkhnB54OflYFEdzIwi1M3TR3kPpfcBB2608igNwDiYUGpvhMJDxZMWHgyJ8CCexvOGIZ5OwW4Fc2gahfQsSgAnvAhjnguwsVhYcPL7w9SB+S/vs2bNsh0MePAOIOk0zCmZH7MLsLBrqkK9IOaKXi/y9CfBn3pQN+qC1ccPednuIpPXHxnnz58/LEBLXXICXFcEDLMlejxzQFavWEoAQVhvFC2P9CzQACyNxLAPPycakMUJlh3LSZyDFl4AF+sJn3e9611mTQEdcaRlSwmgM3y+/e1vN8tJWRDp2BJjLksa5GBbjQUO9QIYLCKRoa8ED2SJ1jsVP+rFiIEukRfZ6NAQMvsC1Xlhldm5QD/I6/VKxXsohfWOkAwldcVmmLw7GcoDLAyvWEO2t9iWYtGVKVE2jfGvf/3LLCvWFevrG/vw8UZnwYFlueeee+xwgnAWTTQacmBN2Q5ykAFogA7w8L/1rW+Vhx9+WNatW9cNBvi7RUMWtvWwuvBkb3jp0qU2ZWARx5wYPtmSgywTPXs96EBMbdgpoF7kRU4flZCBMOpKHsoAtJmUka38/ZE+J4szV2xfBMTCAig2wrFY//znP02JbiVQtj8hf28IAMqWk1trwAVwUwGEBjrggAPknHPOscaCL4sutnyY2zHHdosDf3iwi8CWEdtjpOFZsWKFrFy50qYGTA/wIwd5qA9hLJBISz14AC7DNpaddE5eD2QJKUwThuMnLlU8YYw2HBrQgSnrL3/5S4+9cYDKKMGDn3KRmQfal7Y0BgP0JycWd19lZWg99thj5d5779VfsdkgX/nKV+QNb3iDWUNfUFEGQ5krFoVjCQERVg7CygHMVI1qCfQP4KU8TqJuuOEGy/u73/1OTjzxRJvb0vDkp9F/8YtfGGjZs2WbDiBjkZlOICfpsPbe6MiENea58cYb5bOf/ay85S1vkdtvv91kveWWW2x0qaurs7zkj+7jIiflsIUXdj5GJKwoZdCR6AyA09PACwvL9IBdj3PPPdf2nNEfCzRGMfZz0SF54ON5fEcFMM+ZM8fyO1/X21BzBwS4KMgBF1UA4SiMhQFgYShmLoql45gUIj+EMp1X6GIlOXZ905veZA0CTx5vIMsc/AFobGNxrHrbbbfZjgJHnJxUXXTRRdb4LLaYtiATx8kM+/CkLLbC6CQQHcHlw4KxO8GeMmlxATmjCX6mQoCP6YPLDwBJCyGvy/zBD37QyrYI/YNeINICOvebJwinXgceeKDVj5NERiNkRi4e8nvZ5KV8yiQcADP68T7UaUCA6w2TThnEsz110EEH2fEpCx0sKdaM83kUibIBNC4PYcTRUAzj+OkATixQWCBhjb2hPQ6XMrFOTBuuu+46azQOEq666iq58MILbVjHumL5AGlo7SnfeYaNDIiZrx9zzDE2z2Vbii0xdh7oEHREphAA3HXC9ASCH/XDAiMT9aJMpkDkgTdEeVhOePj0BF7IhLzUmXh0MXPmTPn0pz9tdzYYBZiKRfOQlg4FuBl13CJbYfoHvi6rhw0Ft9d/A2LxktfksJP+jxTpv9DYvPTatPIyHPW1clHF8I6Vc0tEw3kav3CDIIT5kIk/BBDxPm8jD40cjScNRF4ATIPSaACERieMOjH8hlbV84T1dfmMof4BBCwCIQcpaSCGd89LGOVCyEdngygf+YkPeZGPMHSCjvz41jLpH3gR7p3KyyQefoRjVcPyATNTIeJIQ3n7SpSLLjOh2cdfJiv1Z7KuvuISueDsBZlksTQ5sbiuiIxLDRJG8/JOY7vSaWgnLHBIKDua3+MBPg8WrDfy8ny+CGgI87IAghMyERctM/oO0KOA9TShPPCjg0D4ifN6E0aeVHVwnSAjaVwuDyevk5frYA7LJw1Aps7DjXouZQdQ+rCBUhWLwl3pHk+eVPk8Xao4z9ub6/lJE/qjeXqLi6b1d/KEcoV1CPl5Otww3Pmkcj2du9E0qcJDWaLph9P7oAE3lVL3pjjypMtHg6SLS8W3vxswlCWdPypXmC6My6WsqcrIJf9Q7v705wS4Q6Hi3iCZyuLp+1O56XhnW3a26dOVmy68v/mnK3dfwnMyx81EAOaKzP1Y7LCKDe+cMv9iX5S5FosUtp6Y20HcEcBPuO9tomjC1q9fb8Mwq2lfzMCLPADY88CHeLa7iGde6bsVxBHGDgArfBY85CM/eSiDeORnBQ6xOPIjZQ47fCHCyp28Xi5y8pCfRRB1Z9eBeIhwttwgyiIOomyvN/lT5WFuirxe72geLvaQl7k2OyvEUzcOWwjnHaLe7PuiE+RCJubBvoPDIpPtPNL7CSJhnt+YDMKfnAAXRfRGNPrHPvYxYQMe8HFI8Le//c3AQD5WsmwhoVgUyPEtCqdRzjjjDPPD48477+zeFiIPhxaUvWjRIuOFn3BubNEJ4EU5dBj8CxcutHBW35xkEQ6RlnK4bwv4aBR4AUjKgCdg5c4CxJYTG/o0MgcDAANZ4U+Hoqy7777b0vIHQLCxDwDvuusuk5Uy4Ot7zyysqB/hpEceX6xxmhjKetJJJxmIKJtwyoaoNws2eFA+srBTwVEzaagb++OEe5uRh69H/Hs8+NAZOQAiDR2Ie8XIBB+unX7yk58k2aBSTrbD2JbaG6FgwIe1pZdzLIkyUQ5xKIeGIowNfsJoAC6Zo2jCUWaYhw110vBFASDAT1ryACrSclUPpRPPtUPisVbscRLvedg7BoxYJMLJT+ehDPx0qml64gYxOmCRkJ2OiEWCuIFGXh4OASDSUCbWHovFXjXxXm/2dl0+4iBkYu8WfUHwQn4IvZAHq1dXV2fhyAcBZMoiP8aBMrDyy5cvtzogJ/J6/UhHvelUdFLkgBcg5tiaeECMRcZPu5GGEY73dEScj0Lp0nh4X7fDBgy4LiiVQjkoAMW6AnDdH8Z5o5AfhYfkcaT3vMR7OH7PQ7yHUy55QqLBvVwPj+YhHw98vDzPE6Ylfxge5gnlIZxynVymVOGEeZmUzzvpCcMPhbzCclLV2/OF9fYw3Ggewnggl9NeUvwhXX8DNydThRSypw1CyaFSXenuhhnDtISjEMLcDRUY5nf+YR78YTjvIaWKi5ZPesoOy3UeqdIS53JF83h4qnLJlyo8VR4PS5fHw11nvIf+sBznhRuGk4cwj+d9sCknuwp9rUS2ivD07mZSrqd1N8xDA2ZLqfhky2Mg07u87lJ26Oe9L3og32DSoAJ3ICueqnGiDTiQ8vSlrFR1yCWfXPHvi0zZ5hkw4DJnYj7l8zMWGTw+l4oKTjjxgMufcA6XSsmEeR7n5+UyVKc62oRnyBc/PFLxd564LpPzJ09I8PG64Y/y83zIFB2WQz7udx7woS4hP/zRentYNB3vyA4/HvyE4XeZKNPr53HEDyXqqe1+koxKcyeUlTLbPqzq2V5ipcw22Jlnnmk7Cl4820lcgGbLipUwSmSFzd4rN6cgVvb8ngHXIRcuXGi8WPVy04tvxuALILgo/vOf/9xW9KyQiWMLCDlobD6w5FYYd2dZUPzyl7+0m2lcK/TV9F//+ldL8453vMO2l7gCyTVDQMdOCPUATFx/PPnkk23nhN9foL6k4SsL8nJlkLqwQ8F1Su7pckGJlT75qAc7GSEBHAB1/fXX26/nsN01TXc3uOcLP/jzmxBspZ1yyil2Uw59s1tw0003WbnsrLCjwqf7XP9k9+IHP/iBtQH6ZU/aOw87BvwgCtc62R6EPzIhNzsu7HCwReidMpR1QP0qUFp65oWViYLacxOlMy5Mm4YI3Q5L6LZL2kcrn3jve9+b0MomdBsnoQ2Z0AZhKZzQC93GO8xPgP4UkMXrRrql181/y/P1r3/d0it4EqrkhF7bs3cFQEL3OxMK+sSll16a0L3ahAIuoeC0cvVQI6HXExO65ZX40pe+ZHmQS69EJnSvM6EdycIUPFbuhz/8YXunbtpZEocffnhC79EmyPO9730voZv/Ce0ICQVhQoFieShX9z0T3/jGNxLa0RL6PVdCryea3JSjn/QYz5/85CeWnjTakRIK3ISCIqH70RYf6kIPLhLaGa0e2uFNVnSinSqhnxUlFMiJH//4x1bGV7/61YRuNyYUiAntkFbG5ZdfntD924QC1crQTpyAp161NL1QLnKgJ9pDQa3/WGWntYt2bmsv6kd7kecLX/iC6TaUMepHZ5nSrAX/nSicen7iupsfyDSLpRuwqYL3xmuuucYsDZZwpX7yoo1sPRorweM9WaWzLPzEERYPi80dVb5WgIjHSmDpnDwPYVhBLDYu35hxQsVdW/aCOeBgP7k3wkqzMY/FgV9YDn6uArIRjyVjn5S68E694I91Yj+Uw4lrr73WrBuHD9DVV19tIwkjBJZXwWUnifwaTkjogvu8yI1lxDozOnzrW9+yUQsrzOhEvbHMyOU6CPngJ9wfZL/vvvtMZn4shDr+7Gc/s8MGH13QLQctjBzUjX1dRgh+KYh2GmwakKlCWEmGVpTP8SnDHmBEMf4ZNUeVDG1OTAlQOGk5NmU4Tkc0nhON7p3g+9//vjUOU41vfvObloQGdwobGx4Ml0wb+A0vQBjyxe8A4OCFhykHDc2hAFMaGpbhVy2gfOQjH5ELLrjAhnXiqAdEvi9/+cv2iQ0HLnRophCAMyTqwLSGqRUd4xOf+ISo9bepFACEX1S+MH9YtzAcvcObaQxEx0D3tI9aUAuj0yMPZdApADhfBcOTvOl4W+Z+/pMTi5tJBVy5fOtFQ9bV1dmJDXcBdPi3T1w4FuY7MJTk6fkaged973ufWRfmXyjQ40P9IIeH43KjnzsRHJky/2N+TFlYSObZUCrZaRydTthpF5YpPA4lD7wBkg751sn4ipavJLBW+N/5zncaf0YTgAGQsaoAARB+8YtfNBfLy6c9dJArrrjCrHhozdADHRzAYsF1SmB602mX/QiJdz7q4PUIdYCsIXkawsI8nia02MiBnmgrThk5ndTpk51w0klDXp5/IN2cWFwacm8VcUXxISSNC/hQAAsmwAywaNQ6BXTYm3/0ox8ZUGh0hsjzzjvPhk8vz11k4HFiQcEHjgxx3FdgocEihp9o4uEsn6EQCvPxTt53v/vdBvjf/va3trCLngTxZQXD7EJdUGGRkIORAjDx2wv8ThjfmfEJElabX2ykA/zhD3+wfBwBMw3imJgpDQtNFkQcMfvwjyzogoUYx7nIDD86E4tK7h2QJ6x7tC7wcIrGeZt4fOgCYo7Amb5wx4K24t6Dt0+YdjD8OQGug2dvFUBx/P4sn227EsnL0MeD38OdF5+bE8ZwzGWaK6+80nYUGFZpYOaqbgF8hY81JYz5GfNDPhjkMgtTFL7c/drXvmYfLTpwvazQBWQ//OEPTV6mMv7bBKRBTjoZ37qxIxLuBPCrN8yPKYvymRJcdtllBlbi6LD8eiQdkfktuw1Mh7BsdCw6GtaNMgAtVo/Oyt0O5vfUkZ8DxWrDD6JTYSHhA5GPuTUE2KI6tYiuP+niKB8rz6jFvQeAjE4h/INNOQFuJpVAEVRYV+Q2JDKnohG5mgeQaPxQiaSHPvWpT1kjEo/1o1GxBMy9AB7Ds650bfvrO9/5jimXSyMMsTQyVom5JD/+htXCCjJ9gA9EOV4W78jo78xJARnlIivkcd4JsN7IDRCZq7I959aUurJ9BCABGRYanoCeBSMjCKDAynLJiG0xhuWQmDfDA4tNHB2fRRI31djagvwmF7pgBEO33/3ud62zY/2Rj3qFdfMyCEtHfJHMdAddUm/SIgPTNTrHYNKAAJdKszACMAyNKBcrRnidTg1QTpRIwxDlt6dQPpYHS8PQDADIx1QCwEI0GPNO9kSxDmeffbaBhOnJn/70J1M6c9HPfe5zthdKHl8k+tySd6wkDYOVZxXNPJyOwzvEfWH2Quk8/qs4ABdLzwjxmc98xuqG68Sn8J///OetA7BXzJwWYLMgApwLdcrx7W9/20YRt+AAhYUii0vKpoNDTIGoG/WiczJFYdeF/Ow0IAt70Fh+DAPXOHknH2WFRJvQYbDa3inRBUaBzk2n4td8iKPevjYIeQyGv99vhwE4Ko3iUQiN7Yr03u4NFSoAYJKHO6Teu1kJY/lcwfCGH4spwpk6AFjnCz/K9HLpLPBg+IQH+SnH+VAO77jIRBoegAwPpie803EoF4IX5cKDXQ+sKeTzVJcLMJHXCX6UxYiAS8f2vJ7GXXijC1zqxx1Z6kF6eBLOwyjAQxosv+8GkAY5SANAkcUJ4DuYyedEuMehX3QCb3QLD3ilIy8nXXwY3tdrjTmxuAgaNkoomIejLB4ajLkTSnFKlR9F85DWiXdvKMLwe0OgWOKjhKJpEMCBBeHdZcL1TkN+KMoD2Wg4yDsEgAlB5iAPrRZ8yAvfELReV2TiYe6MHP5YQZE/xIVyMRJ5evhByEYnYqSCvGPhJ43LG4KWOGQOAUsYRDgPRAeA/J2yB5tyAtxMK+KNFq10uvyZpPe87kbzeLiDLlp2Ju/Ow3n7ezRvGE5apzDcw5xXKtB4Gnc9rbthXZy3x6Xj5+mcp7vZhKdL67wG0s3JDBul8fRGrthUadLlzUZRziObPKlk6S2sN95efpif9OnypAsP87vf07rr4QPppqrfQJYfLSsnwEWh6ZTqFU4Xj0C9xUUFTveeCx7peGcSHi0/+u48PBy9uG48ri+u83C+feGRSZ7+5p+JDGGanADXlRcydv9Qq7DLNdhuLvSC3nPBZ7B10ZfyczLHZcWbLaHw3gAPP2+UaLp04Z4nmj4qW5g/lRxhfG95o3FePq6Dyt0wLPTvTVbSpiOX3eUlXViev6fLv7dw57svMu6tjL7GZ4+4FCWxYo8p1sBAaiAnU4WBFDguK9YAGoiBG+NgWGogBu6wbLZY6Bi4MQaGpQZ6BS4ne76yHJa1i4Ue8hrwcyuwlg31CtzRlWUybuIY6VSm/3yQLz73XMLIppA4bayBqAZ2tbbLy8vq9TMhvelXVChjRifvg0TTpXvv9XZYa5v+I8b/faXcdNsiyS8skFMWHiynnXCwnHDMPDlw7pR0POPwWANpNfCs/rsiDzz6ktx+95Ny7/2LGdLljUfPk3v/+CW9AZf5R5i9ApfSNzXslO9d9Re5/IqbpUD/ERO7jqcFzNhvnMydOUkuPOd4OfrQWVJd1fOeZ1rJ44j/URpobmlTkD4hjz69VG5QA9ii77vUIOo38NLR3CoXXXCSXHP5R7LWyV6B6xzXb9ou1950v9x65xOyZt0WqV+7WXuL/m93O/Nk9rypau5HydlnHCVzZ0yQ6spyvZI4Uqoq9IeBR5VJSXF8SOG6/E9ydzbukta2dtm2o0m2NOi/x9zYLE89t0Kee3G13P3AYtmsOMnDknI3oyBfyhUP+02ukSPeMFM+/1/vkOlTx2N0ic6KMgauc+3Y3Smr1mySR7QHPf7Mcnns6Vfl4Yeekzzus6pgHA/mlxSpN1+qdd5SVVEmFeWlMrKsWKZOrJGZ08brxeVSmVU3Xg6YPUXGj62MQe3KHaJue8duAaAvLV0r9RsaZPmqjfLvx1/We7odsllHZIC7fWez+hulrUXvWeuiKMHCiLvPmneejsinHH+gnKpTzZrqCgMr66d9oayBm6owrPHq+i2y6MlX5B5dxL3wyhr9GqBJdqvguxXo5lKZ5DZFkoX6rXLqFhQXyZjKkTJreq3Ujh8tUyeMkfk6h8aCMyWZMqnGrLtor8yn53Y/e96J0xjruUPxbD2V3vorLLkTlLyAg5+nUx/I/NYW+lOm2j7NLa2yZetOWbpig6xd36DtuFmad7XLs0tW6pcfbfL4E/rD1j73zE/qHiUndcxvjiUvyxdoHJfmCwtHyIIj58jRh82Sk46dL/PnTNGvQXJys6CHunIC3B4cu146Ojpl6cr1smL1Rp1aNEi9KmX9ph2yYdNW7aEd8sqKdbai3Lq9Sdp0mDHE2dzj9dxQdpEOMUWqlIpRpWbJS3QlWlZaLGPHVJhbrFORYlVQuVr2mupRasWL7L1QlV5erv8+r7Kt0s5BA47QrzAYBWhK8pTpCAGVKr9i5etEPHHFxar4ZLt7VLeLbAU60vRGAIROlY469EsILFrY4ZJhLZZLcaIWrUWBxsUkkYZtjbbD09TMVyT8+2htZvUaVJf5CqDNW3aau0WNR5vqeqcO31hG+G/b0SwbNm+TXS06vG/cmk4k2CZJ6z1Cp3qlqs8JtVUyWtthXE2FjK+p0tGyQiaOr5aJtaNl+pRx2hajNCz5jwymZ5ybmH4DbirxaGSGHSwtE3S3yDsbW7TX60++r1wnazdus56P1d66tVFW6LC0RUHP/MiIluN/XEgbigB/NY++EM9DNJaAVCHA3G9pSKQNlKcuFj0kgNBdVhgR+J1XENTDy6jTG9EnOiNpusO6xCGeMAh+6BIgQ/pTX9Yhu7+M0DgjdZNefe9Ka+/8SUZIQnmNGlOp07ZJ+mFmlUzR0a5UO+tBc6eqQSiSY4/Uf7NY0zIVLFIjQF0xBuwAoJvBogEF7r5UEiu9S4ewzQ3bZVV9gw1xLARW6+R/+44WadIhjxXsNrU6DHc0Jg2M29b1cSDWB8Lqtrcn/aRh3g51aKfqASBtl3YdOTzeEkX+0HQdKb51606mGCkIrHh3eOBhmC3S7cZuZGocnYhhFwJjjAz0KfUKow1UqHnoVIwgAIoFMOAFfIAaS1haUmjzysm6H4/BwFrOmDpOKtVyMmIBzuFIwwa4fVEuDc43WC0KeLU94kMrlp7hFWIEoFMAQDbFmeJ0kwa2trZZmu6wiEftsTQ26ZANgxSEZSzXxWgPVEbSsZBlmhICF2sGqAAqf8rKimw0oE7lui1JYFlJsY0mzCEBcXS0iBTzH/X6Hw3c/6iWiivTQwO9ryp6JI1fYg0MHQ3EwB06bRFLkoUGYuBmoaw46dDRQAzcodMWsSRZaCAGbhbKipMOHQ3EwB06bRFLkoUG/j/RfDCRxQw1NwAAAABJRU5ErkJggg==;" vertex="1" parent="1">
          <mxGeometry x="1254.72" y="47.27999999999997" width="80.56" height="50" as="geometry" />
        </mxCell>
        <mxCell id="92HVsU2Kanfxvoh4dXFT-2" value="" style="shape=image;verticalLabelPosition=bottom;labelBackgroundColor=#ffffff;verticalAlign=top;aspect=fixed;imageAspect=0;image=data:image/png,iVBORw0KGgoAAAANSUhEUgAAALQAAABoCAYAAABYMdpmAAAMaWlDQ1BJQ0MgUHJvZmlsZQAASImVVwdYU8kWnluSkJDQAqFICb0J0quUEFoAAamCjZAEEkqMCUHFXhYVXLuIYEVXRRRdCyCLitjLotj7YkFFWRcLiqLyJiSg677yvfN9c+e/Z878p9yZe+8AoNnLlUjyUC0A8sUF0oSIEOaYtHQmqQMgQBtQgT6gcXkyCSs+PgZAGez/Lu9vQGsoV50UXP8c/6+iwxfIeAAg4yDO5Mt4+RA3A4Cv50mkBQAQFXrLKQUSBZ4Dsa4UBgjxagXOVuKdCpypxE0DNkkJbIgvA6BG5XKl2QBo3IN6ZiEvG/JofIbYRcwXiQHQHA5xIE/I5UOsiH14fv4kBS6H2A7aSyCG8QCfzO84s//GnznEz+VmD2FlXgOiFiqSSfK40/7P0vxvyc+TD/qwgY0qlEYmKPKHNbyVOylagakQd4kzY+MUtYa4V8RX1h0AlCKURyYr7VFjnowN6wcYELvwuaHREBtDHC7Oi41R6TOzROEciOFqQaeKCjhJEBtAvEggC0tU2WyWTkpQ+ULrsqRslkp/lisd8Kvw9UCem8xS8b8RCjgqfkyjSJiUCjEFYqtCUUosxBoQO8tyE6NVNiOLhOzYQRupPEERvxXECQJxRIiSHyvMkoYnqOxL8mWD+WKbhSJOrArvLxAmRSrrg53kcQfih7lglwViVvIgj0A2JmYwF74gNEyZO/ZcIE5OVPH0SgpCEpRzcYokL15lj1sI8iIUeguIPWSFiaq5eEoBXJxKfjxLUhCfpIwTL8rhRsUr48GXgxjABqGACeSwZYJJIAeIWrvqu+CdciQccIEUZAMBcFJpBmekDoyI4TURFIE/IRIA2dC8kIFRASiE+i9DWuXVCWQNjBYOzMgFTyHOB9EgD97LB2aJh7ylgCdQI/qHdy5sPBhvHmyK8X+vH9R+07CgJkalkQ96ZGoOWhLDiKHESGI40R43wgNxfzwGXoNhc8N9cN/BPL7ZE54S2giPCNcJ7YTbE0XzpD9EOQq0Q/5wVS0yv68FbgM5PfEQPACyQ2acgRsBJ9wD+mHhQdCzJ9SyVXErqsL8gftvGXz3NFR2ZBcyStYnB5Ptfpyp4aDhOcSiqPX39VHGmjlUb/bQyI/+2d9Vnw/76B8tsUXYAewMdhw7hzVh9YCJHcMasIvYEQUeWl1PBlbXoLeEgXhyIY/oH/64Kp+KSspcalw6XT4rxwoEUwsUG489STJNKsoWFjBZ8OsgYHLEPOfhTDcXN1cAFN8a5evrLWPgG4Iwzn/TzYd7PEDc39/f9E0X/QmAg+Zw+7d/09lega8J+J4+u4InlxYqdbjiQoBvCU240wyBKbAEdjAfN+AF/EEwCANRIA4kgTQwAVZZCNe5FEwBM8BcUAxKwXKwBlSATWAr2An2gP2gHjSB4+A0uAAug+vgLlw9HeAl6AbvQR+CICSEhtARQ8QMsUYcETfEBwlEwpAYJAFJQzKQbESMyJEZyHykFFmJVCBbkGrkV+Qwchw5h7Qht5GHSCfyBvmEYigV1UVNUBt0BOqDstBoNAkdj2ajk9EidAG6FC1Hq9DdaB16HL2AXkfb0ZdoDwYwdYyBmWNOmA/GxuKwdCwLk2KzsBKsDKvCarFG+JyvYu1YF/YRJ+J0nIk7wRUciSfjPHwyPgtfglfgO/E6/CR+FX+Id+NfCTSCMcGR4EfgEMYQsglTCMWEMsJ2wiHCKbiXOgjviUQig2hL9IZ7MY2YQ5xOXELcQNxLbCa2ER8Te0gkkiHJkRRAiiNxSQWkYtI60m7SMdIVUgepV01dzUzNTS1cLV1NrDZPrUxtl9pRtStqz9T6yFpka7IfOY7MJ08jLyNvIzeSL5E7yH0UbYotJYCSRMmhzKWUU2oppyj3KG/V1dUt1H3VR6uL1Oeol6vvUz+r/lD9I1WH6kBlU8dR5dSl1B3UZupt6lsajWZDC6al0wpoS2nVtBO0B7ReDbqGswZHg68xW6NSo07jisYrTbKmtSZLc4JmkWaZ5gHNS5pdWmQtGy22Fldrllal1mGtm1o92nRtV+047XztJdq7tM9pP9ch6djohOnwdRbobNU5ofOYjtEt6Ww6jz6fvo1+it6hS9S11eXo5uiW6u7RbdXt1tPR89BL0ZuqV6l3RK+dgTFsGBxGHmMZYz/jBuOTvok+S1+gv1i/Vv+K/geDYQbBBgKDEoO9BtcNPhkyDcMMcw1XGNYb3jfCjRyMRhtNMdpodMqoa5juMP9hvGElw/YPu2OMGjsYJxhPN95qfNG4x8TUJMJEYrLO5IRJlynDNNg0x3S16VHTTjO6WaCZyGy12TGzF0w9JouZxyxnnmR2mxubR5rLzbeYt5r3WdhaJFvMs9hrcd+SYuljmWW52rLFstvKzGqU1QyrGqs71mRrH2uh9VrrM9YfbGxtUm0W2tTbPLc1sOXYFtnW2N6zo9kF2U22q7K7Zk+097HPtd9gf9kBdfB0EDpUOlxyRB29HEWOGxzbhhOG+w4XD68aftOJ6sRyKnSqcXrozHCOcZ7nXO/8aoTViPQRK0acGfHVxdMlz2Wby11XHdco13muja5v3BzceG6Vbtfcae7h7rPdG9xfezh6CDw2etzypHuO8lzo2eL5xcvbS+pV69XpbeWd4b3e+6aPrk+8zxKfs74E3xDf2b5Nvh/9vPwK/Pb7/eXv5J/rv8v/+UjbkYKR20Y+DrAI4AZsCWgPZAZmBG4ObA8yD+IGVQU9CrYM5gdvD37GsmflsHazXoW4hEhDDoV8YPuxZ7KbQ7HQiNCS0NYwnbDksIqwB+EW4dnhNeHdEZ4R0yOaIwmR0ZErIm9yTDg8TjWnO8o7ambUyWhqdGJ0RfSjGIcYaUzjKHRU1KhVo+7FWseKY+vjQBwnblXc/Xjb+Mnxv40mjo4fXTn6aYJrwoyEM4n0xImJuxLfJ4UkLUu6m2yXLE9uSdFMGZdSnfIhNTR1ZWr7mBFjZo65kGaUJkprSCelp6RvT+8ZGzZ2zdiOcZ7jisfdGG87fur4cxOMJuRNODJRcyJ34oEMQkZqxq6Mz9w4bhW3J5OTuT6zm8fmreW95AfzV/M7BQGClYJnWQFZK7OeZwdkr8ruFAYJy4RdIraoQvQ6JzJnU86H3LjcHbn9eal5e/PV8jPyD4t1xLnik5NMJ02d1CZxlBRL2if7TV4zuVsaLd0uQ2TjZQ0FuvCn/qLcTv6T/GFhYGFlYe+UlCkHpmpPFU+9OM1h2uJpz4rCi36Zjk/nTW+ZYT5j7oyHM1kzt8xCZmXOapltOXvB7I45EXN2zqXMzZ37+zyXeSvnvZufOr9xgcmCOQse/xTxU02xRrG0+OZC/4WbFuGLRItaF7svXrf4awm/5HypS2lZ6eclvCXnf3b9ufzn/qVZS1uXeS3buJy4XLz8xoqgFTtXaq8sWvl41ahVdauZq0tWv1szcc25Mo+yTWspa+Vr28tjyhvWWa1bvu5zhbDiemVI5d71xusXr/+wgb/hysbgjbWbTDaVbvq0WbT51paILXVVNlVlW4lbC7c+3Zay7cwvPr9UbzfaXrr9yw7xjvadCTtPVntXV+8y3rWsBq2R13TuHrf78p7QPQ21TrVb9jL2lu4D++T7Xvya8euN/dH7Ww74HKg9aH1w/SH6oZI6pG5aXXe9sL69Ia2h7XDU4ZZG/8ZDvzn/tqPJvKnyiN6RZUcpRxcc7T9WdKynWdLcdTz7+OOWiS13T4w5ce3k6JOtp6JPnT0dfvrEGdaZY2cDzjad8zt3+LzP+foLXhfqLnpePPS75++HWr1a6y55X2q47Hu5sW1k29ErQVeOXw29evoa59qF67HX224k37h1c9zN9lv8W89v591+fafwTt/dOfcI90rua90ve2D8oOoP+z/2tnu1H3kY+vDio8RHdx/zHr98InvyuWPBU9rTsmdmz6qfuz1v6gzvvPxi7IuOl5KXfV3Ff2r/uf6V3auDfwX/dbF7THfHa+nr/jdL3hq+3fHO411LT3zPg/f57/s+lPQa9u786PPxzKfUT8/6pnwmfS7/Yv+l8Wv013v9+f39Eq6UO/ArgMGGZmUB8GYHALQ0AOjw3EYZqzwLDgiiPL8OIPCfsPK8OCBeANTCTvEbz24GYB9sNnMgN2yKX/ikYIC6uw81lciy3N2UXFR4EiL09ve/NQGA1AjAF2l/f9+G/v4v22CwtwFonqw8gyqECM8Mm4MV6LrBWBz8IMrz6Xc5/tgDRQQe4Mf+X55bjwFeCncVAAAAlmVYSWZNTQAqAAAACAAFARIAAwAAAAEAAQAAARoABQAAAAEAAABKARsABQAAAAEAAABSASgAAwAAAAEAAgAAh2kABAAAAAEAAABaAAAAAAAAAJAAAAABAAAAkAAAAAEAA5KGAAcAAAASAAAAhKACAAQAAAABAAAAtKADAAQAAAABAAAAaAAAAABBU0NJSQAAAFNjcmVlbnNob3QmGuGYAAAACXBIWXMAABYlAAAWJQFJUiTwAAAC22lUWHRYTUw6Y29tLmFkb2JlLnhtcAAAAAAAPHg6eG1wbWV0YSB4bWxuczp4PSJhZG9iZTpuczptZXRhLyIgeDp4bXB0az0iWE1QIENvcmUgNi4wLjAiPgogICA8cmRmOlJERiB4bWxuczpyZGY9Imh0dHA6Ly93d3cudzMub3JnLzE5OTkvMDIvMjItcmRmLXN5bnRheC1ucyMiPgogICAgICA8cmRmOkRlc2NyaXB0aW9uIHJkZjphYm91dD0iIgogICAgICAgICAgICB4bWxuczpleGlmPSJodHRwOi8vbnMuYWRvYmUuY29tL2V4aWYvMS4wLyIKICAgICAgICAgICAgeG1sbnM6dGlmZj0iaHR0cDovL25zLmFkb2JlLmNvbS90aWZmLzEuMC8iPgogICAgICAgICA8ZXhpZjpVc2VyQ29tbWVudD5TY3JlZW5zaG90PC9leGlmOlVzZXJDb21tZW50PgogICAgICAgICA8ZXhpZjpQaXhlbFhEaW1lbnNpb24+MTgwPC9leGlmOlBpeGVsWERpbWVuc2lvbj4KICAgICAgICAgPGV4aWY6UGl4ZWxZRGltZW5zaW9uPjEwNDwvZXhpZjpQaXhlbFlEaW1lbnNpb24+CiAgICAgICAgIDx0aWZmOlJlc29sdXRpb25Vbml0PjI8L3RpZmY6UmVzb2x1dGlvblVuaXQ+CiAgICAgICAgIDx0aWZmOlhSZXNvbHV0aW9uPjE0NC8xPC90aWZmOlhSZXNvbHV0aW9uPgogICAgICAgICA8dGlmZjpZUmVzb2x1dGlvbj4xNDQvMTwvdGlmZjpZUmVzb2x1dGlvbj4KICAgICAgICAgPHRpZmY6T3JpZW50YXRpb24+MTwvdGlmZjpPcmllbnRhdGlvbj4KICAgICAgPC9yZGY6RGVzY3JpcHRpb24+CiAgIDwvcmRmOlJERj4KPC94OnhtcG1ldGE+ClmbF9oAACOYSURBVHgB7V0HmFXVtV7TK9M7DAwDQwcFQXoRxYIVg8HEFhGNEn2fz5g8k6i8FH3x5b2Uz7w8zTMW1KhRo6gkCCI10iK9I2UK03tvDO//151zOXPn3mHuMMy9M54FZ845u5+1/7322nuvva/PWZBYZHGgj3DAt498h/UZFgeUAxagLSD0KQ5YgO5T1Wl9jAVoCwN9igMWoPtUdVofYwHawkCf4oB/n/qa83yMzk86zFLa3MwRbbOY7d3NYZw/22I69zNcfYwHN+8+Poxp5HAuFXVuk5aPtHdrE6BPv/RaQJ850yLVtfVSUVUnzc1npK6+Ec+10tDQJI1NzVJRWQe3BmlGuNq6RqlBWIYrK69GhfpIYUklKt5HmE5JeZU+1yNuFdKDN9JukHqkaaZauNHdGRFEDTX10tLY5Mzb5obGFBoTKS0OjcocIcDfT2Kiw8QcxM/XB2794HZW3aOjwoTh+B4fEyGBgf4SHRmqfqHBgRIWFix+fkgH4SLCQzRcv3CbWz99F4mLDpfgoACJjAiTIMQPDPAXX+TT28nHGxdWauuaZMPWg1JTVy+VANjRk3lSUlolmdnFkp1fIi0AIUFxprlFmgDSlhY8t+AZQG7Bne8NTXA/c8YOJBtAIOEMIWdzUBDY/jDoOX+n602MY8R3VvOtaTrzsrudT3wSU07C2CR0ayomfx8DhIabYvKclPb1t8msQH9fbbTaEJBMYGAAQO9jB7Kvr6/0Cw3WhpOWGifhaBRsDBmDk2VURn9hQxmBu7dTjwCa4Kii9ALQqmvqpLGxWbJyS+TIV7ly4NhpSNAG+XLvCdm757gAmVqhPn5Q743KYaWxwnDpDdLHFw+snIAA27MvwhtSxg+VQwAEBfnrPQKVExkeKgGBfpKYEK0Sa2D/WG0UTCNF3URCQwIlFpKLmI2KCBdKNTOxgiMjQp2CGrJTAWAO7+yZPQrL7ooa0UDzC8rEDlQEZMM9XVCi38LvKiiqUB4yTHZuMXqiJiksrlD/6uo6Ka+o0Yaej16IvRKJd9YDBQBzb0AdsHdqYsOHEGhG3bQ0N5sauK3xnoX7WfiTzqIcEfFRCvbxY9Okf1KMjBiSLCOG9pdhg5NQF/7geYCEBAVqr0HJ39N0UQBdAOYePp4rW/55VE7lFElVdb2cOFUgrKyTWQVSgQoB922AJbPIOzBbpRCAGRQWAuBFysCUOAkJDpD+ybES2S9UEuIiJCE2UsJCA7VLDQ8Lkgi4E5QhkCAMQ4YGBgSIP9Kh/9edbD2NDwRJvTShxyLgieiS0mqhilVRVQM1rVl7t0L0glXVtZJfWCnFpZWqguTklUL4FGsDyj1dLGeghmljM3oqCh7WHSU81KIYCISkuEhVdwYOiFew0+3qmWMlPjbioldHtwA6HwD9eM1O2bTtkLy3cqsCk4ykWoD/Nmp9oDtbfWr/OImNCpd5s8cpQKdNHIEWH40uLkklOSMZ3awh0Iz31hSt20XigK0R2BJntbH34X/yP7egVPYdzgboyyULAF+7eb+UlFXJsRN5DKAXewAlvBt1xk42FoAfOyJVrpo1Vm699nJJS403QnbbvUuArsEga/P2Q3LoWK68veIL2YFnfIntG9Bio2L6STxaaRSlanykDEZLvWRMGiRoiEyfNFwS4WdR3+IAB+IcfJ9AD0xVklJ949bDUtfQCHWoUk7nlUh1Za2chZpDFYb3mKRYufnaiXLbDVNUTx8IIXeh5Dag//LJVvnJc2+jdWJwhhE9C8Z7+oiBsvj2K+S6Ky6V8NAg6QfwhoZAJYDeadHXkwOU9NTVK1Wvr5a8gnJZvXGv7D6QKZ+u3SnowsUHercfLo5pHrzrKnns/uu1Vzd6ZXc55xagn/vDCnnyl++IL3RWjnrHjx4kC+ZPlkfuvcbdfK3wX3MOUJpTPf3vF1dKXmEZQI9pVUwOXHf1ZfLxqz/sMnc6Deg86EwjZz8mtRgU/Ojhm+UbAPK4kQO7nLEV0eKAwQGqKavW7ZGf/uZ9KYda8vrvlso3b5xqeLt17/TSdyPUiiqMfKkpn8wsgnJvgdktTluBXXIgfWCiLoDVYCaG+nUupi27Su5PFEK5+fN7GzAY3Cx3Lpwli26aCv0nTjLSksUfk/cWWRzoDAcI2mysRXAB7ZnffiDVFdXijzHXhZLbgKaiP3P6aNm4fo+8/s56eeO9jRKD5dfRwwbIAEy0T5k0TK6/Yrwq+RdaOCt+3+FASVm1bN99TGc+vsD6RD7WKriAVANzBU4JRgBDXDug+cKFkPuAxqzGuneflvVbDsqzz38gW788ppP2/0Ah2V289eFmeQQrSgkJUTrTcRUm1K+/coIkYvpuJFaUOHrlMivtE3jvC/YDF1IBvT0uBdwZrjKi7rkSzBVJzmys2bRXduw+rvjYgRXgszRD8MEKLuqdizABAK8/JhfGXzJEvole/gcP3ihTbnxSdu47eUEscRvQRm5zpo4SXkVYXdq+65h8hZXAL/eexLJsuew+mCmF+aVScLpFvjqUJS/8caWuBPpjCi8FiyfJWGpOScQFiZ6SGIXVvwiJioQhDeatOUedBPD7YyonBm4WeQcHjmdipRdA5eriV6fypRRGXlUwY8jFVFxefpnko95Ly2tkP8HL6TgOtriawlEXwB6Bek0flKgrh8OxXD4SdiFTJmRIakqs/QPNCzp2RzcfugxoI594LKJQApPUNgAtlB99Agzg/OPaTftkFdQTWrflwC0nq0hO5xTrx+oqEr7cF7YZbLF+2mrZcmmDIZDivpKKZW8ufyfChmDggDi1txgzPFWGpadAGrTIILjRqswi9zlAAHI1d9+hTLVGPAnjr1JYHh7GghmtE/cfyVGjLxp+NWJ5nIBjeEpg2oQoAPGuth4Asb4DxH6w4Zg1YwzsYUJlyvgMWXTzNAmDfkzbDlr4UTJfLLpgQJsLRkDyYqEnjB2sXpTiP//hIn2mKedRLJEeO5ErR/Ser+9VAH4NpgNpRUczUBorsfvivQBLrdSxSGz54JqNcXxWRxtDQ6JhRglDJUr5MNhwsOUzP9qD2CzHgqHXx2u6FBqpyTFogGda3VrUBsSWIGWKzbAJWbXS2Tb+hqv5rsZS6FU6Sw0dmZkiEdpXGITiKoAILD430qAIhWOep2F9yHIWt9pmUGpWQg+l5WEBVuhIOegti6Czkh80j82B9SLJWJY2JKndIIpqASVK650Ch0ZZFDD+eE5G7xoMaz0ahg1NS4JwSZIhkL5JcJ87bbSm7ak/na+BbighlX6aIvIyEyuqDNKiGQCrwDxkKazFKO1pNXYalUGJcBwqDUGg0h/zljkYIbPxFBRWSHVxudRBssDsBoZP5fjrI0f2n7JlwYohCvhH74Zz6wtvAIR5hM3KVMMme5s5K+FQlzrqEjkW4MqovQ3YsnH6l1nWwK7aVXrMn1NYZiIPuLxMv2YsJ6tUZAAjQySqDd7uBg/Dr7Vl2m50R2MAIENggchyDx6UIMFYKEvBuIcCgTYWFEpD0xLV8CsIYQlWGoFRaCQnxuhqsLl83vLco4B29dFs+XFQXUhJUC26QlRpOFdeVlGrqg5VHlYAdT9dekVDOYlnViDrOROqD7u+E9mFKumMujfy5kqWmbig1KZFmD312TGFdgGcOLQ2qnY+rZaHDu5swKSg1uktSumB6IkoqdmjEZg04I+G0Re/ncZebDRpqQk6ZqEqx40AnJHqq+QVgO4O5nJgSRoAnZs0feIwvXf2D3sEA5IcsRdjsEtpSOKdg13j3VmajE+rs9YozoLY3QhEmsG6So8gTHAw4KLaRHMD+l1MHdReyF760GcAfaH8N6SfpgNJyFkYM3HmxSLv54C1tOf9dWSV0A0OWIB2g1lWUO/ngAVo768jq4RucMACtBvMsoJ6PwcsQHt/HVkldIMDFqDdYJYV1Ps5YAHa++vIKqEbHLAA7QazrKDezwEL0N5fR1YJ3eCABWg3mGUF9X4OeHTp+8CBA/LKK6/osV7ez6qLV8IAHF324IMPyoABfddo6OJxr23KHgU0i0IDHVdGOm2L2vfebIZG/nLvvfdaYO6m6vU4oLvpO3plMoGBgQrm9PT0Xll+byy0BWgP1Qp3y9x4443iCOaGhgbJzsqWU5mZUo/zsRMSEyU1dYAkJibopmLH4paXl0t+foFkZWbBHrxREpNs4ePjE3QDhDl8Ts5pKSkpkdGjR+k2N7Of+bmoqEhycnJlxIjhEhLS9khhczhvfPY4oNnt8vo6Eb/3tttuk8svv7zNZ9P9d799XnJz8+w8oRslOUF47+J72oRf9/l62bhxkxQVFdvGITDf5ja24KAguXTCpbJw4a3YOnburIvly9+UzFOnZPr0aXL3PXe2Sct4qUMj+p/f/y+2vhXKQw99V8ZdMtbw6hV3jwO6V3CpGwvJ8cKcOXNk0qRJ7VJ97pf/JYWFhdh90iIPfHcJpGOIbN2yTfbu3Sd79uyVP774kroz4po1n8uKD1dg/2SYZAzLkLlz52AzcYjs3rNHdu3cjRNh/yl5aBiP/+AxBlfi5gOmeeDAQTkFYKelpbX6nLt98NcPpaKiEluygrUc53x6x5NHAU3pw8sgPjfjFPm4uDjp378/9vGFq4Rh98yuuKamBpKjABKpqHXnhu2EfiM+7wRDUlKShIbyN0fOpU2/nJwcTd8YhNKf0i85OdnlwJR5M9+Kigr85kq9SkL+fklXqKmpSaZOnSrXXXddu+i5ublSW1srERER8tj3H8XdtiVtyJB0uapgrqz9bJ0svO1Wjbdt23b56/t/lcjISJk9e6ZcN/9ae3pDM4bIrFkz5aWXXgZoM+WNN/4sd975bbs/H6iarFq1Wh54YEkbNaa4uFiOHj2mvHDkXZsEvPjFo4AmX8g4XraDSlpkyZIlMmjQIJUkPIjGTAQXQcVr+/btkFJrtELM4ZjWfffdp4A2xyUIOUV46NChNtOE0dHRsnjx4jZu5ngsF/MlCAi4Tz/9VHbu3NkufXMcZ88EM1UMqhrOCXsdUfaqqipteKNGjbQHS4Qe/e07btd3NuwtX2xV/sybd6VcedVcezjjISEhHoPNe1R12Ltnn5yYdhK6+mD1Jh+4r/LY0a8kJ/u0DByUakSTzZu3CHVy7j2kYOmN1BYxHvoCgoaDo1//+tcyatQo7UbNIDWKxcpgFxsbG6tS7plnntF3xjcaBeNTylHymi/GHT3atsWeYY3wlNbmcI7P7HqZJ4HPXoPgf+qpp/TdyNdIz9Wd4UaOHNkBmAWDvwQcqRalDfuPL/wfGt9rcvjwESkrK9PGZPCA+jIHgZTOEyddZji3uycnJ8nw4RkKzAP7D5r8fTDYG4FjDprkwxUr7O7l5ZWyZvUa5QX1de6R7I3kcUATBBy43H333W7z7+jRo6oOGCoE72PGjGnTjZoTHTJkiEo25kkyAGgO05lnSsyHHnpIpbqRlpGeY3xKdi6Y8Pso+VwRz7u46647Uf7ReubGzi93yh/+5wV55uf/oeDetWu3Rq2r5Y8u4XdO8K0EdUcUEoIfOALV1p07L66pqVFuvOkGxI1QKb0dujbptdeWa/mmT5/a2lu1Vdc0UC/443FAV1dXy9KlS1VfdodflDCbNm1qo++xYQwdOtRlMoZuzgAEorNewGVkB4+oqCh54oknVLc3vIyGZbwzD0r1hx9+WAdZhrure1x8nCy+7zvy9LKfyLXXXiORyMMPjeDI4aPyp5dewa+E7ZNAnJfBcjMvqkIdUXOz7TcTHb+TPcYNN8xX4K7+dLX8859f4jSr0ziLsJ/MnDWj10pn8sK1yOiIU93kR8amYaTNSnekyspK2bdvn3CgQslGNSI+Ph5zsqmqAhw8eFD1YY7aSdT5mBaB5opYsVRJjh07pqAgIMwS1ohHt5MnT9r1SaobzNeRmNewYcMw+DrVpmERbPw2+lOf70gyO6bJuGx41wNwvDhv/N57H8ihg4cgRV9XsJMXdXV1kom5asd5bCM9nlFSWFik38lBr5nweTJm7BhJWLsO6ZdigPmBNo5Ro0dC7YkxB+11zx4H9MCBzg9Of/vttxXQBhgIMj6zm6UOSHXDmGOlHwFNHdlRGjnWyLhx42TlypVagY4S1QjL9DZs2CC7d+/W9KhXz5w5E1LtBiOI/Z6SkqKAZhyD2FCoez/yyCOqaxvu57tvwRTd+PGXtJHmHC/cffcdsuypn+IMQPxUXXi4pKQk69Tby396VX7xzM+cJvv52s9RrkyVwpdf3n6KkOOCaVAvPv7ob2gctoPGFyy42WlavcnR4yoHK94ZUe8kgAk6gpSDOoKGo/AvvvhCSktL7VKR7tQrp0+f3iYpupuBRk9D2rIBOPqZIzNP5s871ZvNmzfr1J05DJ8pLR0bBnsNqhnMq7O0E3PH7737V/nVf/4aCyu5qsowX85qbN++A0egUW+28YEzHgRkTU2tPPvMczqOoERmeN7ffPMt+eSTv2mjXbr0QQz0ApwWY86c2RhTBGlvcjPAbPR2TgP3EkePSmjyiFNhzmj+/PnazRNItMojUVKSCCAzGFmRs2bNwuGBbSuOXTKB66hXX3rppUKV5XwV6JgH9X3zQIzlIOgZzrjodscddzhVo7TwLv4kJydi9iYGMxj58sv/+JV+e79+4ZKXl68rgWfPtsiddy3R2Jxjf/Rf/0Ve+r+XNfyTP1kmgwenQb8O1Kk4lpNhvrnoNhmcnqZx+IfHhYF7uM71JkvuXyyvvLwc/JvBIEo8N8+Rx4aft989KqEp/Qg6VzR27FhM/j8gzz33nBDgBC67czLbTATVnDlzzE76fOLECVlhmpoyAkyZMsWtCiNYqd446ud0Z4MxiO/333+/fXrQcO/MnXruD//t+7IIIKT05fTcKejmbPBJsM/4tyd+oMvfRlpxcbHy/ccflWuumafHEZ8+fVpOncxU3Xr48GHyxI9+IBMnTjCC6z06OhLz3JUA+7mf2kvDuOPJp37UOrNhC57SP1nnwzkT0tvIoxKawMzKylJdlVLTGRlzzwQ0r40bN2r3zxVDQw3hYNEsOZkOB2XZ2dmaPhdizKoNG8C0adNkx44dbSS9OX82HIKVeVCtuPrqqxVo5jB85uDVkM633nqrzjc7hunsO8s1fcY0vVhmgpm9iKuehD0SVwl5lZdXoME36hw9BYUzovohS9v7OPZs1153jfDqjeRRQJNhrKw333xT9U2uEJ6PqFpMnDhRV+xWr16tQOUsiWOlcxaAUouVyxkLLmwYxIZE6c8VP2dEfy5Pz5gxQwHNWQfHBmPEY6OhnnvzzTer2mO4X+idDdDcCM+XXlRUx3PS54vfV/ydN+Ue/jpKwhdffFHtNCjtzkfUDxcsWKAzD5TE1JEpSc3E6S6usjE9gs4xXTYCpuOMCGiqAJyS42KMKzDTpoT6/RVXXKES3FlallvPcsArAM1PpgHQ008/LcuXL8eS7+FOcWHevHk6KHNmuUb9mVKaQKakJvDNxPnWhISEdu7mMB09s7Fw6X327Nkw01zYUVDLrwc54FGVg2AzLkpFqg1UA7igQr1u8uTJ2pXTzxlRd6akNmY/zGHWrVunr9SFuZDCaT2zWkJVhGoIjZzcJTaU559/Hkb3ibBkc25X7G6aVvju4YBHAe3sEwheqiC8PvvsM5g5rlKTS0pBjv4diXquM3r00Udl//79apk3fPhwp/oo9fGtW7c6i253Y4NjoyCIOR22B/bGH330kTYGLpzQ31WDsydiPfQYB7wC0AQFiYMrY/WPIOGon9e2bdtUPXBmR+yKU1zU4OpeR8S82AtwOtCsg7M8HHAeP35cwUrpTrNO6sx85urgd77zHU3aAnNHHO55P68ANEFBO2FjxoPSmWQAnaB2NTC7UJY5m79mvtS7jxw5Yk+eZaQ7l6J//OMft2kA9kAX+EA9nztWHBuJny9+hQqzGI7Ta5zWY0Mzk59fAKYZ8RsrUNkc06FtR3h4mH0wbOTH+fXzzahwmjQ8LFzCEN+bySsATelIOwwydsKECapHc1GBc7H044wEJenFIGf6t7N8CGYOJL/3ve9dFDAzz1WrVsuHH6xQcJntkbHijZ9U85N5V18lNOpnz0IwvvPOu7rdinHNg16qSBkZQ+VqLLrQHJXEDbL/vuxnusng/gcWK9g/+2ytLrdTJfvXx/5Fpzg1sMOf1bCT/mjFJzISmw6++90l2ms6BPGaV48Dmrrp9ddf32YVjqDm1RViZZrVh66k4SwOJR5XATkQvVhkDFy5BJ6RkaHZcPCaX5Avx786IZ+tWQs9vkpuv32R9hb+fjaVjEveQ4ak68+68fu5+koAv/rKcll0+23YvzhRxwBc+WtqtpmUMvHmpmaV1tlY3NqyZatunnX8Ns7mbFi/SQfegeCBueE4hvWGd48CmsyhruuObtwR0yhFX3vtNdm1a5du46KuSyCyu6TE56zE448/3q4rdpUm0+NF4k4VZ2auruJ21Z35TZ02VSWxOY1Vf/8UW87WYuNrvk5xGioCAbzomwtl/ITx5uBY8v8Y+xA/l3f/8r4CGhqTS+IPa777znuQ3pPaqTWbNm7WFUtH9cVlYh728Pg8NM0huc/PHaIE4pKzI1HC0VKNzCeAadi0fv16ndemHy30eLlDBA6P6aIddU9RC0DqSFQhKK0did/KQa0jXXnlXNX32VtRWtuMkhxD2d6ZLkHNHd9mos79OY5KMBq12c9bn9tzqAdLSkZyEPTCCy/Is88+qwOxjrKnRH/33Xfl9ddfV/sKx7DcDGCYlbIiKZ15Zz6seDYCDvbORwzLi9KPvYexF/F88brLn2rY4UNH9Dp65Cga5Qbw6I9aHg7KnE1fOubdhAbMRszvD4JK0hFxlzzD8XgDnsdh0KuvLsePevqqHt5bQO1RlcNgHO95eXmybNky1emoP9LwnxVHYLGCufLHWQeCmkvWnGngM/1JZDgBaMyQqCP+0J9+vAhsqiQEOonvjMMwfDbC8Z0D0ltuuQXnXczVsD31h3lv2rRZ1q3boFnyHQXTrVgs6wMPLGlXFIKwuLhEv4XfwPnyDes3qsFSWtog1ftpvOSKxowdDR4IDLmydUf5LQtuArgPSRl6s9CwUElu3VDgKr43uXsFoFkJrDjDtoK7URyXvwk4ShFe7GIpfRxJK9/BkWkbRH9Xcc1h2FC4rM7LEzR69CjYkqTYsz5zphmDtm2qy7711jtYav8GGqCtIZMv6wFeY7MrI1EA8Du58/uhpQ/Y03H1wPl/nqS07Omf60lMtPjbvPkfSKcehmCXYTzifFeRq/Q86e4VgHZkAIFH4HZEzsDbUXizX0dxCebLLrtMl9zNcXrqmQ2Qg89rrr26TZZzcf7GT5f9XE9EmjlzhoLVCMCejFN5BCalM9OYMnWy3HrrLepuhHN15zdz9mbu3NkA8hd6ngfVM/ZknCU5dKhztjWu0u9Jd4/q0D35oZ3Ji4CgaSqPt/UknetTzpUiFHYunM5rwhYrGnIZRDDOhz00Dfp59h2BTak9fvylnQKzkQ4bwazZs3RsQjBTwt900w0KanMvZ4T31rsFaFPNcJPBXXfdZXLxzKOzHoRn21EP5kZZgtZMVD/Yow0enKaLLwQ5Zyy4/9Id4olLQ4cOUQnPE085f93byCtVjp5mIgeSaWlpcs8995xX1bmYZaO6TzBv27odZ3DstWdFaZmdnaNA5rEFnE8nYahru5tE+ty5c+QgBnQch/wdc9ff+tYiDcPQSsyklUyPhpN8Y+ECWDsekMsnXy7BIbYNzHYJfS6qPby3PXgU0AQSu09/f88Vg5XFYxE412wMSj1VSVE4ooE6MHdu2wHYWhjqyVOnTdEFlxAAjVKYGKUtRwxUETMtvu8e+f3zf5C//22VSllKXZoVlJaWybhx4fag3ITL/Mzz3sznew8/2EZHj8HiF3eYN2Nwer6xjT1xDz34oEI71e4yc4ok/bKHxBdzmk1Zf/ZQca1s+zIHJt/wE9m1/5T855N3yKNL5nfpUy0duktssyJ5KwcsQHtrzVjl6hIHLEB3iW1WJG/lgAVob60Zq1xd4oAF6C6xzYrkrRywAO2tNWOVq0scsADdJbZZkbyVAxagvbVmrHJ1iQMWoLvENiuSt3LAArS31oxVri5xwAJ0l9hmRfJWDnQa0GrxoSfAd8r0w1u/1yqXF3PAMJvtpHmR0y/pNKBDQ4MkJS1JfGA8vnLtThiAt9+Z7DQHy9HiwHk4UN/QJF+dypeSclpe+klinOtfMjtPUtJpazsC+KEf/0lee+tz8UGmc2eMkflXXCozJ4+U8WPSzpeP5W9xoB0H9h3Kki++PCYrPt0hqz/fzeOfYN46RLZ98gvslOl4C167xFodOg1ohi9FC/rNSyvl2efeEb+wYD3LIcDfV9JTE2RERn/51i3TZcak4RIXY/vhdVeZWu5fTw5QEn+85kvZsfu4vLXiH1JVXS+NOL2Jx56dqW+UhQtmyJ9//4h9A3BXuOQWoI0Mikqr5I33N8r7K7dLTn4pfoW0SI+hOtsMNQTKdvrwVEmIi5SF10+WIYMSJT42QmKjwyWiX4hE9guTkGDbMQJGeta9b3CguqYePz/XJJVVtUKMVFXXye6Dp2TPgSz5bNM+Kcgq0N6dZyb4YCtZaHiopKXGy4Sx6fLDpTfKKAhFjtBs+9m7xpMuAdrIii0rO7dYtu06Llt2HpPdMM7euH63biPC6YJ69+VP+WK/mx3Q+IjwsCBJTYqVIemJ0g/v6fiocSNxfkRchIQGd3woipG3dfcMB1jn1bUNsv9IthQUlcvxzALZArWhtq5BSgDi+oZmqayutT0jHCSdnD0DmEKdOItzRYZDpZg3a6xcd8Ul6MkjVeDFRHXfiaYXBGhnLC0orpC8gnLZvOOIrN6wW46cyJfikkpbt8KuBR92hrMlkOT20SyfW918A/wlHipLOiR7/+RYSUmMkjEjIPFjI2UwgM8WrTMuaMa+bOn269w7mzh8KAhsjctZQb8mbgaPyTPuQSSfW5SBWgW6lYuvrBdK1yLU3/HMQsnJK9GrDm57DuDn4uobsNfxsPgaui025uqsRCv/yXE/v9YfSYUfd54HYKw15bIMmTZpmFwzc5wMG5IiYZhcuJjU7YB2VlgC+OjxXMmCNM/OLZVcqCn5RRVSiBZOhh3DCLca+lR5Za00VFQThUhGa6BdcqyggH6hEgjgR0aESkxUOE7G9Jfw0GBVbUIg4YNxkZkR4cESi8YRjF9SDUFP4Ydeox/UHlJ0ZJhWrB8YH4n0kBvS9LMxHC9MI9h0hBb9mUYw1SW+OCGWjXl0RLoXkC3OBRFYlVV1bRqiulXWtAII+wjBq2YIB7KpvKJG9VB29wRVA/hJYJaCj9wNXgypSeCVldfi5NFmhK+WkjIbj6kasB4aoL+WFZS5KJEma/PDd/ujRw0Cv/unxEgU+EbVMpFXfASET4ykJEVL2oB4SUqIUnfXiV4cnx4BtLOis/KboHNTYtQ3YmBAyY1Kqq2tl8KSajmZlQ8JUSp5AP3BozmQ8lVyCrp6MRqFj3EIDWuU/7UBIBdUIB2MV33Ai/6jRIGvPwBHPPJukAFCpmOcSKTP9oRsIX0oeRzcjDSMu5GW8W6+M38CsSNi2cgHhjWIbi2M1+rIZ7qRGJa81F4P7/y1WEpgW8OBA56VWu8MiwDnnPhu+KEOwqL6yehhAyQlORrgjEEjDpRx6CFDQwJl1pRRmjZ5QCFCYcBpNgoPg2+2zDz312OAvpBPbsQUoq17LJdsgL6OEgYSLPt0iQ5EqiCtKKkoiXJyceYbKopAYmVyVE1qRCMisfLpRqwQFM0c2PIZd4LFTEyjycHN7K+AxZEDLgnY8XPxu9tGHIKFEtAAmbq3AsgIwykthiMs2fuQ/Fvd/AEyPwAsGL0JQT0AahtBngzVjW6J8ZEKVEbmbFRGWiJO9Q/BuCZEwgDa3k69EtBdYTqFEIFdh8ELRV1Vja1bJ8g5oCERsGwoJALecfGoEWA1GoQGavfHR2rQw7gi5hWO6c6OiJIulOdhEK2txBP8w/Aj8+qEP5SWDMf3cNVJ8QtiUJHYO1BaUh3zFolpfENP3b82gO4phlr5eJYD5xRJz5bDyt3iQLdwwAJ0t7DRSsRbOGAB2ltqwipHt3DAAnS3sNFKxFs4YAHaW2rCKke3cMACdLew0UrEWzjw/0Kphoq4cTgXAAAAAElFTkSuQmCC;" vertex="1" parent="1">
          <mxGeometry x="1250.79" y="97.27999999999997" width="86.54" height="50" as="geometry" />
        </mxCell>
        <mxCell id="IzaZbzYS4Rii2mOFWnsh-1" value="" style="group" vertex="1" connectable="0" parent="1">
          <mxGeometry x="1243" y="-90.00000000000003" width="102.98999999999998" height="110.38000000000002" as="geometry" />
        </mxCell>
        <mxCell id="IzaZbzYS4Rii2mOFWnsh-2" value="Oracle Hyperion" style="rounded=0;whiteSpace=wrap;html=1;fontSize=11;fillColor=#ffcd28;strokeColor=#d79b00;gradientColor=#ffa500;" vertex="1" parent="IzaZbzYS4Rii2mOFWnsh-1">
          <mxGeometry y="90" width="100" height="20.38" as="geometry" />
        </mxCell>
        <mxCell id="IzaZbzYS4Rii2mOFWnsh-3" value="Microsoft Dynamics" style="rounded=0;whiteSpace=wrap;html=1;fontSize=11;fillColor=#fad7ac;strokeColor=#b46504;" vertex="1" parent="IzaZbzYS4Rii2mOFWnsh-1">
          <mxGeometry x="1.9499999999999886" y="60" width="100" height="20.38" as="geometry" />
        </mxCell>
        <mxCell id="IzaZbzYS4Rii2mOFWnsh-4" value="Workday" style="rounded=0;whiteSpace=wrap;html=1;fontSize=11;fillColor=#fad9d5;strokeColor=#ae4132;" vertex="1" parent="IzaZbzYS4Rii2mOFWnsh-1">
          <mxGeometry x="2.9899999999999807" y="30" width="100" height="20.38" as="geometry" />
        </mxCell>
        <mxCell id="IzaZbzYS4Rii2mOFWnsh-5" value="Salesforce" style="rounded=0;whiteSpace=wrap;html=1;fontSize=11;fillColor=#f8cecc;strokeColor=#b85450;gradientColor=#ea6b66;" vertex="1" parent="IzaZbzYS4Rii2mOFWnsh-1">
          <mxGeometry x="1.9499999999999886" width="100" height="20.38" as="geometry" />
        </mxCell>
      </root>
    </mxGraphModel>
  </diagram>
</mxfile>
